<svg width="48" height="48" viewBox="0 0 48 48" fill="none" xmlns="http://www.w3.org/2000/svg">
<path d="M13.5266 20.0809C13.5266 20.6716 13.5904 21.1505 13.7022 21.5018C13.8299 21.853 13.9895 22.2361 14.213 22.6512C14.2928 22.7789 14.3248 22.9066 14.3248 23.0184C14.3248 23.178 14.229 23.3377 14.0215 23.4973L13.0157 24.1678C12.872 24.2636 12.7283 24.3115 12.6006 24.3115C12.441 24.3115 12.2813 24.2317 12.1217 24.088C11.8982 23.8485 11.7066 23.5931 11.547 23.3377C11.3873 23.0663 11.2277 22.7629 11.0521 22.3958C9.80688 23.8645 8.24238 24.5988 6.35859 24.5988C5.01759 24.5988 3.94798 24.2157 3.16573 23.4494C2.38348 22.6831 1.98438 21.6614 1.98438 20.3843C1.98438 19.0273 2.4633 17.9258 3.43713 17.0956C4.41095 16.2655 5.70406 15.8504 7.34838 15.8504C7.89116 15.8504 8.44991 15.8983 9.04059 15.9781C9.63127 16.0579 10.2379 16.1856 10.8765 16.3293V15.1639C10.8765 13.9506 10.6211 13.1045 10.1262 12.6096C9.61531 12.1148 8.75324 11.8753 7.52399 11.8753C6.96524 11.8753 6.39052 11.9391 5.79984 12.0828C5.20916 12.2265 4.63445 12.4021 4.0757 12.6256C3.82027 12.7374 3.6287 12.8012 3.51695 12.8331C3.4052 12.8651 3.32538 12.881 3.26152 12.881C3.03802 12.881 2.92627 12.7214 2.92627 12.3861V11.6039C2.92627 11.3485 2.9582 11.1569 3.03802 11.0451C3.11784 10.9334 3.26152 10.8216 3.48502 10.7099C4.04377 10.4225 4.71427 10.1831 5.49652 9.9915C6.27877 9.78396 7.10891 9.68818 7.98695 9.68818C9.8867 9.68818 11.2756 10.1192 12.1696 10.9813C13.0476 11.8434 13.4946 13.1524 13.4946 14.9085V20.0809H13.5266ZM7.04506 22.5075C7.57188 22.5075 8.11466 22.4117 8.68938 22.2201C9.26409 22.0286 9.77495 21.6774 10.206 21.1984C10.4614 20.8951 10.653 20.5599 10.7488 20.1767C10.8446 19.7936 10.9084 19.3306 10.9084 18.7878V18.1173C10.4455 18.0056 9.95056 17.9098 9.4397 17.8459C8.92884 17.7821 8.43395 17.7501 7.93906 17.7501C6.86945 17.7501 6.0872 17.9577 5.56038 18.3887C5.03356 18.8198 4.77813 19.4264 4.77813 20.2246C4.77813 20.9749 4.9697 21.5337 5.36881 21.9168C5.75195 22.3159 6.3107 22.5075 7.04506 22.5075ZM19.8644 24.2317C19.577 24.2317 19.3855 24.1838 19.2577 24.072C19.13 23.9762 19.0183 23.7527 18.9225 23.4494L15.1709 11.109C15.0751 10.7897 15.0272 10.5822 15.0272 10.4704C15.0272 10.215 15.1549 10.0713 15.4103 10.0713H16.9748C17.2782 10.0713 17.4857 10.1192 17.5975 10.231C17.7252 10.3268 17.821 10.5503 17.9167 10.8536L20.5987 21.4219L23.0892 10.8536C23.169 10.5343 23.2648 10.3268 23.3925 10.231C23.5202 10.1352 23.7437 10.0713 24.0311 10.0713H25.3082C25.6115 10.0713 25.8191 10.1192 25.9468 10.231C26.0745 10.3268 26.1863 10.5503 26.2501 10.8536L28.7725 21.5497L31.5343 10.8536C31.6301 10.5343 31.7418 10.3268 31.8536 10.231C31.9813 10.1352 32.1888 10.0713 32.4762 10.0713H33.9609C34.2163 10.0713 34.36 10.199 34.36 10.4704C34.36 10.5503 34.344 10.6301 34.328 10.7259C34.3121 10.8216 34.2802 10.9494 34.2163 11.125L30.3689 23.4654C30.2731 23.7847 30.1614 23.9922 30.0336 24.088C29.9059 24.1838 29.6984 24.2476 29.427 24.2476H28.0541C27.7508 24.2476 27.5432 24.1997 27.4155 24.088C27.2878 23.9762 27.176 23.7687 27.1122 23.4494L24.6377 13.1524L22.1792 23.4334C22.0994 23.7527 22.0036 23.9603 21.8759 24.072C21.7482 24.1838 21.5247 24.2317 21.2373 24.2317H19.8644ZM40.3785 24.6627C39.5484 24.6627 38.7182 24.5669 37.92 24.3753C37.1218 24.1838 36.4992 23.9762 36.0841 23.7368C35.8287 23.5931 35.6531 23.4334 35.5892 23.2898C35.5254 23.1461 35.4934 22.9864 35.4934 22.8428V22.0286C35.4934 21.6933 35.6212 21.5337 35.8606 21.5337C35.9564 21.5337 36.0522 21.5497 36.148 21.5816C36.2438 21.6135 36.3874 21.6774 36.5471 21.7412C37.0899 21.9807 37.6805 22.1723 38.3032 22.3C38.9417 22.4277 39.5643 22.4915 40.2029 22.4915C41.2087 22.4915 41.9909 22.3159 42.5337 21.9647C43.0765 21.6135 43.3638 21.1027 43.3638 20.4481C43.3638 20.0011 43.2202 19.6339 42.9328 19.3306C42.6454 19.0273 42.1027 18.7559 41.3204 18.5005L39.0056 17.7821C37.8402 17.4149 36.9781 16.8721 36.4513 16.1537C35.9245 15.4513 35.6531 14.669 35.6531 13.8389C35.6531 13.1684 35.7968 12.5777 36.0841 12.0669C36.3715 11.556 36.7546 11.109 37.2335 10.7578C37.7125 10.3906 38.2553 10.1192 38.8938 9.92764C39.5324 9.73607 40.2029 9.65625 40.9053 9.65625C41.2565 9.65625 41.6237 9.67221 41.9749 9.72011C42.3421 9.768 42.6774 9.83186 43.0126 9.89571C43.3319 9.97554 43.6352 10.0554 43.9226 10.1511C44.2099 10.2469 44.4334 10.3427 44.5931 10.4385C44.8166 10.5662 44.9762 10.6939 45.072 10.8376C45.1678 10.9653 45.2157 11.1409 45.2157 11.3644V12.1148C45.2157 12.45 45.088 12.6256 44.8485 12.6256C44.7208 12.6256 44.5133 12.5618 44.2419 12.434C43.3319 12.019 42.3102 11.8114 41.1767 11.8114C40.2668 11.8114 39.5484 11.9551 39.0535 12.2584C38.5586 12.5618 38.3032 13.0247 38.3032 13.6793C38.3032 14.1263 38.4628 14.5094 38.7821 14.8127C39.1014 15.116 39.692 15.4194 40.5382 15.6908L42.8051 16.4091C43.9545 16.7763 44.7847 17.2872 45.2796 17.9417C45.7744 18.5963 46.0139 19.3466 46.0139 20.1767C46.0139 20.8632 45.8702 21.4858 45.5988 22.0286C45.3115 22.5714 44.9283 23.0503 44.4334 23.4334C43.9385 23.8325 43.3479 24.1199 42.6614 24.3274C41.943 24.5509 41.1927 24.6627 40.3785 24.6627Z" fill="white"/>
<path d="M43.3961 32.4214C38.1438 36.3007 30.5129 38.3601 23.9516 38.3601C14.7561 38.3601 6.47065 34.9597 0.212647 29.3083C-0.282246 28.8613 0.164754 28.2547 0.755433 28.6059C7.52429 32.5331 15.8736 34.9118 24.5103 34.9118C30.3373 34.9118 36.739 33.6985 42.6298 31.2081C43.5078 30.809 44.2581 31.7828 43.3961 32.4214ZM45.5832 29.9309C44.9127 29.0689 41.1451 29.5159 39.4369 29.7234C38.9261 29.7873 38.8462 29.3403 39.3092 29.005C42.3105 26.8977 47.2435 27.5044 47.8182 28.2068C48.3929 28.9252 47.6585 33.8582 44.8488 36.2209C44.4178 36.5881 44.0027 36.3965 44.1943 35.9176C44.8329 34.3371 46.2537 30.7771 45.5832 29.9309Z" fill="white"/>
</svg>
