<svg width="17" height="16" viewBox="0 0 17 16" fill="none" xmlns="http://www.w3.org/2000/svg">
<path d="M9.16636 1.3335C9.3826 1.3335 9.59673 1.37609 9.79651 1.45884C9.99629 1.54159 10.1778 1.66289 10.3307 1.81579C10.4836 1.9687 10.6049 2.15023 10.6877 2.35001C10.7704 2.54979 10.813 2.76392 10.813 2.98016L10.8124 3.3335H13.1664C13.3432 3.3335 13.5127 3.40373 13.6378 3.52876C13.7628 3.65378 13.833 3.82335 13.833 4.00016L13.8324 6.33283L12.8124 6.3335C12.3945 6.3336 11.9923 6.49255 11.6873 6.77813C11.3823 7.06371 11.1973 7.45457 11.1697 7.8715L11.1664 7.98016V8.02016C11.1663 8.43812 11.3252 8.84046 11.6108 9.14562C11.8964 9.45078 12.2873 9.63591 12.7044 9.6635L12.813 9.66683L13.8324 9.66616L13.833 12.0022C13.833 12.179 13.7628 12.3485 13.6378 12.4736C13.5127 12.5986 13.3432 12.6688 13.1664 12.6688L10.8124 12.6682V13.0202C10.8168 13.2392 10.7774 13.4568 10.6967 13.6604C10.6159 13.864 10.4954 14.0495 10.342 14.2059C10.1887 14.3623 10.0058 14.4866 9.80382 14.5714C9.60189 14.6563 9.38506 14.7 9.16602 14.7C8.94699 14.7 8.73016 14.6563 8.52823 14.5714C8.32629 14.4866 8.14331 14.3623 7.99 14.2059C7.83669 14.0495 7.71612 13.864 7.63537 13.6604C7.55461 13.4568 7.51528 13.2392 7.51969 13.0202V12.6682H5.16636C4.98955 12.6682 4.81998 12.5979 4.69495 12.4729C4.56993 12.3479 4.49969 12.1783 4.49969 12.0015L4.49902 9.6475H4.14569C3.70897 9.6475 3.29013 9.47401 2.98132 9.1652C2.67251 8.85639 2.49902 8.43755 2.49902 8.00083C2.49902 7.56411 2.67251 7.14527 2.98132 6.83646C3.29013 6.52765 3.70897 6.35416 4.14569 6.35416H4.49969V4.00016C4.49969 3.82335 4.56993 3.65378 4.69495 3.52876C4.81998 3.40373 4.98955 3.3335 5.16636 3.3335H7.51969V2.98016C7.51969 2.54344 7.69318 2.1246 8.00199 1.81579C8.3108 1.50698 8.72963 1.3335 9.16636 1.3335Z" fill="#75E6FF"/>
</svg>
