<svg width="17" height="16" viewBox="0 0 17 16" fill="none" xmlns="http://www.w3.org/2000/svg">
<path d="M8.49967 6.66683C9.20692 6.66683 9.8852 6.38588 10.3853 5.88578C10.8854 5.38568 11.1663 4.70741 11.1663 4.00016C11.1663 3.29292 10.8854 2.61464 10.3853 2.11454C9.8852 1.61445 9.20692 1.3335 8.49967 1.3335C7.79243 1.3335 7.11415 1.61445 6.61406 2.11454C6.11396 2.61464 5.83301 3.29292 5.83301 4.00016C5.83301 4.70741 6.11396 5.38568 6.61406 5.88578C7.11415 6.38588 7.79243 6.66683 8.49967 6.66683ZM4.16634 8.66683C4.60837 8.66683 5.03229 8.49123 5.34485 8.17867C5.65741 7.86611 5.83301 7.44219 5.83301 7.00016C5.83301 6.55814 5.65741 6.13421 5.34485 5.82165C5.03229 5.50909 4.60837 5.3335 4.16634 5.3335C3.72431 5.3335 3.30039 5.50909 2.98783 5.82165C2.67527 6.13421 2.49967 6.55814 2.49967 7.00016C2.49967 7.44219 2.67527 7.86611 2.98783 8.17867C3.30039 8.49123 3.72431 8.66683 4.16634 8.66683ZM14.4997 7.00016C14.4997 7.44219 14.3241 7.86611 14.0115 8.17867C13.699 8.49123 13.275 8.66683 12.833 8.66683C12.391 8.66683 11.9671 8.49123 11.6545 8.17867C11.3419 7.86611 11.1663 7.44219 11.1663 7.00016C11.1663 6.55814 11.3419 6.13421 11.6545 5.82165C11.9671 5.50909 12.391 5.3335 12.833 5.3335C13.275 5.3335 13.699 5.50909 14.0115 5.82165C14.3241 6.13421 14.4997 6.55814 14.4997 7.00016ZM8.49967 7.3335C9.38373 7.3335 10.2316 7.68469 10.8567 8.30981C11.4818 8.93493 11.833 9.78277 11.833 10.6668V14.6668H5.16634V10.6668C5.16634 9.78277 5.51753 8.93493 6.14265 8.30981C6.76777 7.68469 7.61562 7.3335 8.49967 7.3335ZM3.83301 10.6668C3.83301 10.2048 3.89967 9.75883 4.02501 9.3375L3.91167 9.34683C3.34026 9.40957 2.81212 9.68104 2.42852 10.1092C2.04492 10.5373 1.83286 11.092 1.83301 11.6668V14.6668H3.83301V10.6668ZM15.1663 14.6668V11.6668C15.1664 11.0724 14.9396 10.5004 14.5323 10.0675C14.1249 9.6346 13.5677 9.3735 12.9743 9.3375C13.099 9.75883 13.1663 10.2048 13.1663 10.6668V14.6668H15.1663Z" fill="#75E6FF"/>
</svg>
