<svg width="17" height="16" viewBox="0 0 17 16" fill="none" xmlns="http://www.w3.org/2000/svg">
<path d="M8.49967 1.3335C12.1817 1.3335 15.1663 4.31816 15.1663 8.00016C15.1663 11.6822 12.1817 14.6668 8.49967 14.6668C4.81767 14.6668 1.83301 11.6822 1.83301 8.00016C1.83301 4.31816 4.81767 1.3335 8.49967 1.3335ZM7.87967 5.05416C7.75637 5.05451 7.63821 5.10365 7.55102 5.19084C7.46383 5.27804 7.41469 5.39619 7.41434 5.5195V9.24016C7.41434 9.4975 7.62234 9.7055 7.87967 9.7055H11.6003C11.6629 9.70786 11.7253 9.69759 11.7838 9.67529C11.8422 9.65299 11.8956 9.61912 11.9407 9.5757C11.9858 9.53229 12.0217 9.48023 12.0462 9.42263C12.0707 9.36504 12.0833 9.30309 12.0833 9.2405C12.0833 9.17791 12.0707 9.11596 12.0462 9.05836C12.0217 9.00076 11.9858 8.9487 11.9407 8.90529C11.8956 8.86187 11.8422 8.828 11.7838 8.8057C11.7253 8.7834 11.6629 8.77313 11.6003 8.7755H8.34434V5.5195C8.34399 5.39631 8.29494 5.27825 8.2079 5.19108C8.12085 5.10391 8.00286 5.05469 7.87967 5.05416Z" fill="#75E6FF"/>
</svg>
