<svg width="32" height="52" viewBox="0 0 32 52" fill="none" xmlns="http://www.w3.org/2000/svg">
<path d="M2 15.5C1.99971 13.5514 2.43286 11.6257 3.26994 9.85383C4.10703 8.082 5.3284 6.50572 6.8509 5.23231C8.3734 3.9589 10.1613 3.01826 12.0928 2.47444C14.0243 1.93062 16.0541 1.79638 18.044 2.08088C18.2128 2.10466 18.3725 2.16988 18.5079 2.27033C18.6434 2.37078 18.75 2.50312 18.8178 2.65477C18.8855 2.80641 18.9121 2.97233 18.895 3.13673C18.8779 3.30114 18.8176 3.45857 18.72 3.59406C18.3372 4.12526 18.0979 4.74096 18.0241 5.38485C17.9503 6.02875 18.0444 6.68029 18.2977 7.27989C18.5509 7.87948 18.9553 8.408 19.4739 8.81709C19.9924 9.22618 20.6086 9.50279 21.266 9.62163C21.4648 9.65757 21.6477 9.75107 21.7905 9.88978C21.9333 10.0285 22.0294 10.2059 22.066 10.3986C22.1885 11.0357 22.474 11.633 22.8965 12.1356C23.3189 12.6382 23.8647 13.0301 24.4839 13.2755C25.1032 13.5209 25.776 13.6119 26.441 13.5402C27.1059 13.4685 27.7416 13.2363 28.29 12.865C28.4298 12.7709 28.5922 12.7129 28.7616 12.6966C28.931 12.6802 29.102 12.7061 29.2582 12.7717C29.4144 12.8373 29.5508 12.9404 29.6544 13.0714C29.7579 13.2023 29.8253 13.3567 29.85 13.5199C29.95 14.167 30 14.827 30 15.5C30 19.097 28.525 22.5467 25.8995 25.0901C23.274 27.6336 19.713 29.0625 16 29.0625C12.287 29.0625 8.72601 27.6336 6.1005 25.0901C3.475 22.5467 2 19.097 2 15.5ZM16 3.875C13.6122 3.87516 11.2787 4.56542 9.29808 5.85749C7.31747 7.14956 5.7798 8.98467 4.88178 11.1281C3.98376 13.2714 3.76624 15.6256 4.25704 17.8894C4.74784 20.1532 5.92465 22.2237 7.6369 23.836C9.34916 25.4483 11.519 26.5291 13.8688 26.9401C16.2187 27.351 18.6416 27.0735 20.8278 26.1431C23.0139 25.2126 24.8638 23.6714 26.1407 21.7168C27.4177 19.7622 28.0637 17.4829 27.996 15.1706C27.2316 15.4318 26.4205 15.5403 25.6116 15.4895C24.8027 15.4386 24.0129 15.2295 23.2897 14.8748C22.5665 14.5201 21.9251 14.0271 21.404 13.4256C20.883 12.8241 20.4931 12.1266 20.258 11.3751C19.4823 11.1473 18.7622 10.7696 18.1413 10.2649C17.5204 9.76008 17.0115 9.13866 16.6454 8.4381C16.2792 7.73754 16.0634 6.97237 16.0109 6.18877C15.9584 5.40517 16.0704 4.6194 16.34 3.87888L16 3.875ZM17.5 15.5C17.5 15.8854 17.342 16.255 17.0607 16.5275C16.7794 16.8 16.3978 16.9531 16 16.9531C15.6022 16.9531 15.2206 16.8 14.9393 16.5275C14.658 16.255 14.5 15.8854 14.5 15.5C14.5 15.1146 14.658 14.745 14.9393 14.4725C15.2206 14.2 15.6022 14.0469 16 14.0469C16.3978 14.0469 16.7794 14.2 17.0607 14.4725C17.342 14.745 17.5 15.1146 17.5 15.5ZM10.5 22.2812C10.8978 22.2812 11.2794 22.1282 11.5607 21.8556C11.842 21.5831 12 21.2135 12 20.8281C12 20.4427 11.842 20.0731 11.5607 19.8006C11.2794 19.5281 10.8978 19.375 10.5 19.375C10.1022 19.375 9.72064 19.5281 9.43934 19.8006C9.15804 20.0731 9 20.4427 9 20.8281C9 21.2135 9.15804 21.5831 9.43934 21.8556C9.72064 22.1282 10.1022 22.2812 10.5 22.2812ZM11 12.1094C11 12.4948 10.842 12.8644 10.5607 13.1369C10.2794 13.4094 9.89782 13.5625 9.5 13.5625C9.10218 13.5625 8.72064 13.4094 8.43934 13.1369C8.15804 12.8644 8 12.4948 8 12.1094C8 11.724 8.15804 11.3544 8.43934 11.0819C8.72064 10.8093 9.10218 10.6563 9.5 10.6563C9.89782 10.6563 10.2794 10.8093 10.5607 11.0819C10.842 11.3544 11 11.724 11 12.1094ZM19.5 23.25C19.8978 23.25 20.2794 23.0969 20.5607 22.8244C20.842 22.5519 21 22.1823 21 21.7969C21 21.4115 20.842 21.0419 20.5607 20.7694C20.2794 20.4968 19.8978 20.3438 19.5 20.3438C19.1022 20.3438 18.7206 20.4968 18.4393 20.7694C18.158 21.0419 18 21.4115 18 21.7969C18 22.1823 18.158 22.5519 18.4393 22.8244C18.7206 23.0969 19.1022 23.25 19.5 23.25Z" fill="#1FC1FF"/>
<path d="M21.4997 32.3125C19.6252 32.3128 17.7957 32.8864 16.2567 33.9563C14.7176 35.0262 13.5426 36.5413 12.8894 38.2982C12.2362 40.0552 12.136 41.9699 12.6023 43.7854C13.0685 45.6009 14.0789 47.2303 15.4979 48.4551C16.9169 49.6798 18.6765 50.4412 20.5406 50.6372C22.4048 50.8331 24.2843 50.4542 25.9269 49.5512C27.5695 48.6482 28.8966 47.2644 29.7301 45.5855C30.5636 43.9066 30.8637 42.013 30.59 40.1586C30.5739 40.0479 30.5297 39.9431 30.4617 39.8542C30.3936 39.7653 30.304 39.6953 30.2013 39.6508C30.0985 39.6064 29.9861 39.5889 29.8748 39.6002C29.7634 39.6114 29.6567 39.6509 29.565 39.715C29.2051 39.9662 28.788 40.1232 28.3519 40.1717C27.9157 40.2201 27.4743 40.1584 27.0681 39.9922C26.6619 39.826 26.3039 39.5606 26.0268 39.2203C25.7497 38.88 25.5623 38.4756 25.4818 38.0442C25.4574 37.9137 25.3941 37.7937 25.3001 37.7C25.2062 37.6063 25.086 37.5432 24.9555 37.5192C24.5236 37.4389 24.1188 37.2515 23.7782 36.9742C23.4375 36.6969 23.1719 36.3386 23.0056 35.932C22.8394 35.5254 22.7778 35.0836 22.8266 34.6471C22.8753 34.2106 23.0328 33.7933 23.2847 33.4334C23.3484 33.3416 23.3877 33.2351 23.3987 33.1239C23.4098 33.0127 23.3923 32.9005 23.3479 32.798C23.3034 32.6955 23.2336 32.606 23.1449 32.538C23.0562 32.47 22.9516 32.4259 22.841 32.4096C22.3969 32.3445 21.9486 32.3121 21.4997 32.3125ZM21.4997 42.4844C21.2386 42.4844 20.9882 42.3807 20.8036 42.1961C20.619 42.0115 20.5153 41.7611 20.5153 41.5C20.5153 41.2389 20.619 40.9886 20.8036 40.8039C20.9882 40.6193 21.2386 40.5156 21.4997 40.5156C21.7607 40.5156 22.0111 40.6193 22.1957 40.8039C22.3803 40.9886 22.484 41.2389 22.484 41.5C22.484 41.7611 22.3803 42.0115 22.1957 42.1961C22.0111 42.3807 21.7607 42.4844 21.4997 42.4844ZM18.8747 45.1094C18.8747 45.3705 18.7709 45.6208 18.5863 45.8054C18.4017 45.99 18.1514 46.0938 17.8903 46.0938C17.6292 46.0938 17.3788 45.99 17.1942 45.8054C17.0096 45.6208 16.9059 45.3705 16.9059 45.1094C16.9059 44.8483 17.0096 44.5979 17.1942 44.4133C17.3788 44.2287 17.6292 44.125 17.8903 44.125C18.1514 44.125 18.4017 44.2287 18.5863 44.4133C18.7709 44.5979 18.8747 44.8483 18.8747 45.1094ZM17.234 40.1875C17.1048 40.1875 16.9768 40.162 16.8573 40.1126C16.7379 40.0631 16.6294 39.9906 16.538 39.8992C16.4466 39.8078 16.3741 39.6993 16.3246 39.5798C16.2751 39.4604 16.2497 39.3324 16.2497 39.2031C16.2497 39.0739 16.2751 38.9459 16.3246 38.8264C16.3741 38.707 16.4466 38.5985 16.538 38.5071C16.6294 38.4157 16.7379 38.3432 16.8573 38.2937C16.9768 38.2442 17.1048 38.2188 17.234 38.2188C17.4951 38.2188 17.7455 38.3225 17.9301 38.5071C18.1147 38.6917 18.2184 38.9421 18.2184 39.2031C18.2184 39.4642 18.1147 39.7146 17.9301 39.8992C17.7455 40.0838 17.4951 40.1875 17.234 40.1875ZM24.7809 45.7656C24.7809 46.0267 24.6772 46.2771 24.4926 46.4617C24.308 46.6463 24.0576 46.75 23.7965 46.75C23.5355 46.75 23.2851 46.6463 23.1005 46.4617C22.9159 46.2771 22.8122 46.0267 22.8122 45.7656C22.8122 45.5046 22.9159 45.2542 23.1005 45.0696C23.2851 44.885 23.5355 44.7813 23.7965 44.7813C24.0576 44.7813 24.308 44.885 24.4926 45.0696C24.6772 45.2542 24.7809 45.5046 24.7809 45.7656Z" fill="#1FC1FF"/>
</svg>
