<svg width="52" height="32" viewBox="0 0 52 32" fill="none" xmlns="http://www.w3.org/2000/svg">
<path d="M15.5 30C13.5514 30.0003 11.6257 29.5671 9.85383 28.7301C8.082 27.893 6.50572 26.6716 5.23231 25.1491C3.9589 23.6266 3.01826 21.8387 2.47444 19.9072C1.93062 17.9757 1.79638 15.9459 2.08087 13.956C2.10466 13.7872 2.16988 13.6275 2.27033 13.4921C2.37078 13.3566 2.50312 13.25 2.65477 13.1822C2.80641 13.1145 2.97233 13.0879 3.13673 13.105C3.30114 13.1221 3.45857 13.1824 3.59406 13.28C4.12525 13.6628 4.74096 13.9021 5.38485 13.9759C6.02875 14.0497 6.68029 13.9556 7.27989 13.7023C7.87948 13.4491 8.408 13.0447 8.81709 12.5261C9.22618 12.0076 9.50279 11.3914 9.62162 10.734C9.65757 10.5352 9.75107 10.3523 9.88978 10.2095C10.0285 10.0667 10.2059 9.97061 10.3986 9.934C11.0357 9.81148 11.633 9.52595 12.1356 9.10353C12.6382 8.68112 13.0301 8.13531 13.2755 7.51607C13.5209 6.89684 13.6119 6.22396 13.5402 5.55903C13.4685 4.8941 13.2363 4.25836 12.865 3.71C12.7709 3.57017 12.7129 3.40784 12.6966 3.2384C12.6802 3.06896 12.7061 2.89803 12.7717 2.74179C12.8373 2.58555 12.9404 2.44919 13.0714 2.34563C13.2023 2.24206 13.3567 2.17473 13.5199 2.15C14.167 2.05 14.827 2 15.5 2C19.097 2 22.5467 3.475 25.0901 6.1005C27.6336 8.72601 29.0625 12.287 29.0625 16C29.0625 19.713 27.6336 23.274 25.0901 25.8995C22.5467 28.525 19.097 30 15.5 30ZM3.875 16C3.87516 18.3878 4.56542 20.7213 5.85749 22.7019C7.14956 24.6825 8.98467 26.2202 11.1281 27.1182C13.2714 28.0162 15.6256 28.2338 17.8894 27.743C20.1532 27.2522 22.2237 26.0754 23.836 24.3631C25.4483 22.6508 26.5291 20.481 26.9401 18.1312C27.351 15.7813 27.0735 13.3584 26.1431 11.1722C25.2126 8.9861 23.6714 7.13623 21.7168 5.85927C19.7622 4.58232 17.4829 3.93634 15.1706 4.004C15.4318 4.76841 15.5403 5.57953 15.4895 6.38841C15.4386 7.19728 15.2295 7.98713 14.8748 8.71029C14.5201 9.43345 14.0271 10.0749 13.4256 10.596C12.8241 11.117 12.1266 11.5069 11.3751 11.742C11.1473 12.5177 10.7696 13.2378 10.2649 13.8587C9.76008 14.4796 9.13866 14.9885 8.4381 15.3546C7.73754 15.7208 6.97237 15.9366 6.18877 15.9891C5.40517 16.0416 4.6194 15.9296 3.87887 15.66L3.875 16ZM15.5 14.5C15.8854 14.5 16.255 14.658 16.5275 14.9393C16.8 15.2206 16.9531 15.6022 16.9531 16C16.9531 16.3978 16.8 16.7794 16.5275 17.0607C16.255 17.342 15.8854 17.5 15.5 17.5C15.1146 17.5 14.745 17.342 14.4725 17.0607C14.2 16.7794 14.0469 16.3978 14.0469 16C14.0469 15.6022 14.2 15.2206 14.4725 14.9393C14.745 14.658 15.1146 14.5 15.5 14.5ZM22.2812 21.5C22.2812 21.1022 22.1282 20.7206 21.8556 20.4393C21.5831 20.158 21.2135 20 20.8281 20C20.4427 20 20.0731 20.158 19.8006 20.4393C19.5281 20.7206 19.375 21.1022 19.375 21.5C19.375 21.8978 19.5281 22.2794 19.8006 22.5607C20.0731 22.842 20.4427 23 20.8281 23C21.2135 23 21.5831 22.842 21.8556 22.5607C22.1282 22.2794 22.2812 21.8978 22.2812 21.5ZM12.1094 21C12.4948 21 12.8644 21.158 13.1369 21.4393C13.4094 21.7206 13.5625 22.1022 13.5625 22.5C13.5625 22.8978 13.4094 23.2794 13.1369 23.5607C12.8644 23.842 12.4948 24 12.1094 24C11.724 24 11.3544 23.842 11.0819 23.5607C10.8093 23.2794 10.6563 22.8978 10.6563 22.5C10.6563 22.1022 10.8093 21.7206 11.0819 21.4393C11.3544 21.158 11.724 21 12.1094 21ZM23.25 12.5C23.25 12.1022 23.0969 11.7206 22.8244 11.4393C22.5519 11.158 22.1823 11 21.7969 11C21.4115 11 21.0419 11.158 20.7694 11.4393C20.4968 11.7206 20.3437 12.1022 20.3437 12.5C20.3437 12.8978 20.4968 13.2794 20.7694 13.5607C21.0419 13.842 21.4115 14 21.7969 14C22.1823 14 22.5519 13.842 22.8244 13.5607C23.0969 13.2794 23.25 12.8978 23.25 12.5Z" fill="#1FC1FF"/>
<path d="M32.3125 10.5001C32.3128 12.3745 32.8864 14.204 33.9563 15.7431C35.0262 17.2821 36.5413 18.4571 38.2982 19.1103C40.0552 19.7636 41.9699 19.8638 43.7854 19.3975C45.6009 18.9312 47.2303 17.9208 48.4551 16.5019C49.6798 15.0829 50.4412 13.3233 50.6372 11.4591C50.8331 9.59496 50.4542 7.71548 49.5512 6.07288C48.6482 4.43029 47.2644 3.10318 45.5855 2.26965C43.9066 1.43613 42.013 1.13606 40.1586 1.40973C40.0479 1.42584 39.9431 1.47002 39.8542 1.53807C39.7653 1.60612 39.6953 1.69576 39.6508 1.79849C39.6064 1.90122 39.5889 2.01361 39.6002 2.12499C39.6114 2.23636 39.6509 2.34301 39.715 2.43479C39.9662 2.79463 40.1232 3.21172 40.1717 3.64791C40.2201 4.08409 40.1584 4.52546 39.9922 4.93164C39.826 5.33782 39.5606 5.69584 39.2203 5.97297C38.88 6.25009 38.4756 6.43748 38.0442 6.51798C37.9137 6.54233 37.7937 6.60566 37.7 6.69963C37.6063 6.79359 37.5432 6.91376 37.5192 7.04429C37.4389 7.47613 37.2515 7.88093 36.9742 8.22158C36.6969 8.56223 36.3386 8.82785 35.932 8.99411C35.5254 9.16037 35.0836 9.22195 34.6471 9.1732C34.2106 9.12445 33.7933 8.96695 33.4334 8.7151C33.3416 8.65134 33.2351 8.61207 33.1239 8.60101C33.0127 8.58994 32.9005 8.60746 32.798 8.65189C32.6955 8.69632 32.606 8.76619 32.538 8.85489C32.47 8.94359 32.4259 9.04817 32.4096 9.15873C32.3445 9.60288 32.3121 10.0512 32.3125 10.5001ZM42.4844 10.5001C42.4844 10.7612 42.3807 11.0116 42.1961 11.1962C42.0115 11.3808 41.7611 11.4845 41.5 11.4845C41.2389 11.4845 40.9886 11.3808 40.8039 11.1962C40.6193 11.0116 40.5156 10.7612 40.5156 10.5001C40.5156 10.239 40.6193 9.98865 40.8039 9.80404C40.9886 9.61944 41.2389 9.51573 41.5 9.51573C41.7611 9.51573 42.0115 9.61944 42.1961 9.80404C42.3807 9.98865 42.4844 10.239 42.4844 10.5001ZM45.1094 13.1251C45.3704 13.1251 45.6208 13.2288 45.8054 13.4134C45.99 13.598 46.0938 13.8484 46.0938 14.1095C46.0938 14.3705 45.99 14.6209 45.8054 14.8055C45.6208 14.9901 45.3704 15.0939 45.1094 15.0939C44.8483 15.0939 44.5979 14.9901 44.4133 14.8055C44.2287 14.6209 44.125 14.3705 44.125 14.1095C44.125 13.8484 44.2287 13.598 44.4133 13.4134C44.5979 13.2288 44.8483 13.1251 45.1094 13.1251ZM40.1875 14.7657C40.1875 14.895 40.162 15.023 40.1126 15.1424C40.0631 15.2619 39.9906 15.3704 39.8992 15.4618C39.8078 15.5532 39.6993 15.6257 39.5798 15.6752C39.4604 15.7246 39.3324 15.7501 39.2031 15.7501C39.0739 15.7501 38.9459 15.7246 38.8264 15.6752C38.707 15.6257 38.5985 15.5532 38.5071 15.4618C38.4157 15.3704 38.3432 15.2619 38.2937 15.1424C38.2442 15.023 38.2188 14.895 38.2188 14.7657C38.2188 14.5047 38.3225 14.2543 38.5071 14.0697C38.6917 13.8851 38.9421 13.7814 39.2031 13.7814C39.4642 13.7814 39.7146 13.8851 39.8992 14.0697C40.0838 14.2543 40.1875 14.5047 40.1875 14.7657ZM45.7656 7.21885C46.0267 7.21885 46.2771 7.32256 46.4617 7.50717C46.6463 7.69177 46.75 7.94215 46.75 8.20323C46.75 8.4643 46.6463 8.71468 46.4617 8.89928C46.2771 9.08389 46.0267 9.1876 45.7656 9.1876C45.5046 9.1876 45.2542 9.08389 45.0696 8.89928C44.885 8.71468 44.7813 8.4643 44.7813 8.20323C44.7813 7.94215 44.885 7.69177 45.0696 7.50717C45.2542 7.32256 45.5046 7.21885 45.7656 7.21885Z" fill="#1FC1FF"/>
</svg>
