<svg width="24" height="25" viewBox="0 0 24 25" fill="none" xmlns="http://www.w3.org/2000/svg">
<path d="M17.2929 5.79289C17.6834 5.40237 18.3164 5.40237 18.707 5.79289C19.0975 6.18342 19.0975 6.81643 18.707 7.20696L13.414 12.4999L18.707 17.7929L18.7753 17.8691C19.0957 18.2618 19.0731 18.8408 18.707 19.207C18.3408 19.5731 17.7618 19.5957 17.3691 19.2753L17.2929 19.207L11.9999 13.914L6.70696 19.207C6.31643 19.5975 5.68342 19.5975 5.29289 19.207C4.90237 18.8164 4.90237 18.1834 5.29289 17.7929L10.5859 12.4999L5.29289 7.20696L5.22453 7.13078C4.90418 6.73801 4.92678 6.15901 5.29289 5.79289C5.65901 5.42678 6.23801 5.40418 6.63078 5.72453L6.70696 5.79289L11.9999 11.0859L17.2929 5.79289Z" fill="#88868A"/>
</svg>
