<svg width="24" height="24" viewBox="0 0 24 24" fill="none" xmlns="http://www.w3.org/2000/svg">
<path d="M20.5332 5.25C20.692 5.25 20.8446 5.31277 20.957 5.4248V5.42578C21.0695 5.53827 21.1328 5.69055 21.1328 5.84961C21.1328 5.96898 21.0975 6.08475 21.0322 6.18262L20.957 6.27344L10.1572 17.0742C10.0448 17.1864 9.8923 17.249 9.7334 17.249C9.61398 17.249 9.49828 17.2138 9.40039 17.1484L9.30957 17.0742L3.91406 11.6787C3.83459 11.5947 3.78198 11.49 3.76074 11.3779L3.75 11.2607C3.75109 11.143 3.78697 11.0291 3.85156 10.9326L3.92578 10.8418C4.00918 10.7585 4.1147 10.7022 4.22852 10.6787L4.34473 10.666C4.50204 10.6646 4.65344 10.7257 4.7666 10.835V10.834L9.20312 15.2715L9.7334 15.8018L20.1094 5.42578C20.1938 5.3414 20.3007 5.28474 20.416 5.26172L20.5332 5.25Z" fill="#75E6FF" stroke="#75E6FF" stroke-width="1.5"/>
</svg>
