<svg width="48" height="48" viewBox="0 0 48 48" fill="none" xmlns="http://www.w3.org/2000/svg">
<path d="M16.0625 33H23.0625V40C23.0625 43.8637 19.9262 47 16.0625 47C12.1988 47 9.0625 43.8637 9.0625 40C9.0625 36.1363 12.1988 33 16.0625 33Z" stroke="white" stroke-width="2"/>
<path d="M16.0625 17H23.0625V31H16.0625C12.1988 31 9.0625 27.8637 9.0625 24C9.0625 20.1363 12.1988 17 16.0625 17Z" stroke="white" stroke-width="2"/>
<path d="M16.0625 1H23.0625V15H16.0625C12.1988 15 9.0625 11.8637 9.0625 8C9.0625 4.13628 12.1988 1 16.0625 1Z" stroke="white" stroke-width="2"/>
<path d="M32.0625 1C35.9262 1 39.0625 4.13628 39.0625 8C39.0625 11.8637 35.9262 15 32.0625 15H25.0625V1H32.0625Z" stroke="white" stroke-width="2"/>
<path d="M32.0625 17C35.9262 17 39.0625 20.1363 39.0625 24C39.0625 27.8637 35.9262 31 32.0625 31C28.1988 31 25.0625 27.8637 25.0625 24C25.0625 20.1363 28.1988 17 32.0625 17Z" stroke="white" stroke-width="2"/>
</svg>
