<svg width="48" height="48" viewBox="0 0 48 48" fill="none" xmlns="http://www.w3.org/2000/svg">
<path d="M30.2242 15.1125H30.3742L30.2992 15.0375L35.5492 9.7875V9.675C31.1242 5.775 25.0117 4.425 19.3492 6.1125C13.6867 7.8 9.33672 12.3 7.76172 18C7.83672 17.9625 7.94922 17.925 8.06172 17.925C10.0117 16.65 12.3367 15.9 14.7742 15.9C15.5992 15.9 16.3867 15.975 17.1742 16.125C17.2117 16.0875 17.2492 16.0875 17.2867 16.0875C20.6617 12.375 26.3617 11.925 30.2617 15.1125H30.2242Z" fill="white"/>
<path d="M40.5383 17.925C39.6758 14.7375 37.8758 11.85 35.3633 9.6375L30.0008 14.9625C32.2508 16.8 33.5633 19.575 33.4883 22.4625V23.4C39.8258 23.4 39.8258 32.85 33.4883 32.85H23.9633V40.35H23.9258L23.9633 40.425H33.4883C38.9633 40.4625 43.8008 36.9375 45.4133 31.7625C47.0258 26.5875 45.0383 20.9625 40.5383 17.925Z" fill="white"/>
<path d="M14.6273 40.4625H24.4898V32.8875H14.6273C13.9148 32.8875 13.2398 32.7375 12.6023 32.475L6.90234 37.95V38.025C9.15234 39.6375 11.8523 40.5 14.6648 40.5L14.6273 40.4625Z" fill="white"/>
<path d="M15.0754 15.7125C9.48794 15.75 4.53794 19.2 2.73794 24.2625C0.93794 29.3625 2.73794 34.95 7.16294 38.25L13.0129 32.6625C9.78794 31.275 9.03794 27.225 11.5129 24.8625C13.9879 22.4625 18.1879 23.2125 19.6504 26.2875L25.5004 20.7C23.0254 17.5875 19.1629 15.75 15.0754 15.7875V15.7125Z" fill="white"/>
</svg>
