<svg width="48" height="48" viewBox="0 0 48 48" fill="none" xmlns="http://www.w3.org/2000/svg">
<path d="M17.8563 36.7951C10.6593 38.8058 22.2352 42.9597 31.3995 39.0335C29.8983 38.45 28.8217 37.7768 28.8217 37.7768C24.7353 38.5493 22.8397 38.6101 19.1302 38.1863C16.0687 37.8357 17.8563 36.7951 17.8563 36.7951ZM30.3022 32.8726C24.8857 33.9147 21.7571 33.8813 17.7944 33.4726C14.7303 33.1557 16.7362 31.6707 16.7362 31.6707C8.80983 34.3017 21.1488 37.2871 32.2271 34.0467C31.0496 33.632 30.3022 32.8726 30.3022 32.8726ZM34.5468 10.157C34.5472 10.157 18.5227 14.1578 26.1757 22.9771C28.4347 25.5777 25.5832 27.9158 25.5832 27.9158C25.5832 27.9158 31.3166 24.9567 28.6841 21.2495C26.2244 17.7938 24.339 16.0771 34.5468 10.157ZM38.2961 40.586C38.2961 40.586 39.6195 41.6772 36.8381 42.5206C31.5498 44.1226 14.8233 44.6056 10.1774 42.5847C8.5087 41.858 11.6396 40.8503 12.6247 40.6377C13.6518 40.4153 14.2383 40.4558 14.2383 40.4558C12.3813 39.1482 2.23345 43.0246 9.08507 44.1365C27.768 47.165 43.1415 42.7726 38.2961 40.586ZM31.875 29.2111C32.7731 28.5983 34.0136 28.0662 34.0136 28.0662C34.0136 28.0662 30.4796 28.6981 26.9587 28.994C22.6484 29.3555 18.0251 29.4267 15.7042 29.1162C10.2097 28.3816 18.7166 26.3607 18.7166 26.3607C18.7166 26.3607 15.4121 26.1372 11.3501 28.1022C6.54557 30.4253 23.2342 31.4843 31.875 29.2111ZM33.9783 34.8905C33.9378 34.9992 33.8028 35.1215 33.8028 35.1215C45.5302 32.0386 41.2184 24.2543 35.6111 26.2246C35.1191 26.3986 34.8611 26.8032 34.8611 26.8032C34.8611 26.8032 35.172 26.678 35.8653 26.5332C38.7 25.9426 42.7612 30.3278 33.9783 34.8905ZM24.0678 26.276C22.3376 22.3651 16.4703 18.9436 24.0705 12.9413C33.5471 5.46121 28.6844 0.595215 28.6844 0.595215C30.6457 8.32321 21.7653 10.6576 18.5598 15.4703C16.377 18.7497 19.6312 22.2736 24.0678 26.276ZM34.2956 45.6815C27.1005 47.036 18.2253 46.8781 12.963 46.0092C12.963 46.0092 14.0407 46.9017 19.5802 47.2583C28.0087 47.7972 40.9552 46.9583 41.2612 42.9698C41.2616 42.9698 40.6725 44.4818 34.2956 45.6815Z" fill="white"/>
</svg>
