<svg width="40" height="40" viewBox="0 0 40 40" fill="none" xmlns="http://www.w3.org/2000/svg">
<path d="M11.0806 33.6574L11.6825 34.0142C14.2116 35.5149 17.1112 36.3087 20.0679 36.3103H20.0744C29.1548 36.3103 36.5453 28.9215 36.5492 19.8403C36.5506 15.4393 34.8388 11.3011 31.7282 8.18824C28.6174 5.07542 24.4813 3.36006 20.0806 3.35825C10.9929 3.35825 3.60258 10.746 3.59896 19.8269C3.59773 22.9388 4.46838 25.9694 6.11769 28.5918L6.50982 29.2148L4.84502 35.2923L11.0806 33.6574ZM0.0859375 40L2.89805 29.7321C1.16359 26.727 0.25102 23.318 0.252351 19.8256C0.256723 8.90008 9.1483 0.0113525 20.0744 0.0113525C25.3765 0.0136335 30.3531 2.07731 34.0958 5.82252C37.8379 9.56801 39.8979 14.5466 39.8961 19.8417C39.8915 30.7666 30.9987 39.6569 20.0744 39.6569C20.0736 39.6569 20.0749 39.6569 20.0744 39.6569H20.0658C16.7487 39.6556 13.4889 38.8236 10.5938 37.2447L0.0859375 40Z" fill="white"/>
<path d="M0.923248 19.8099C0.923248 23.207 1.81115 26.4884 3.50974 29.3837L0.768833 39.3051L10.9218 36.6414C13.7013 38.1855 16.8668 38.9576 20.071 38.9576C30.61 38.9576 39.2188 30.3875 39.2188 19.8485C39.2188 14.7141 37.2113 9.92716 33.6211 6.29835C29.9923 2.70815 25.2054 0.700722 20.071 0.700722C9.53202 0.700722 0.923248 9.27088 0.923248 19.8099Z" fill="url(#paint0_linear_2566_25101)"/>
<path d="M0.237484 19.7945C0.237484 23.3135 1.15723 26.7125 2.91673 29.7117L0.0775299 39.9888L10.5946 37.2296C13.4737 38.8291 16.7528 39.6289 20.0719 39.6289C30.9888 39.6289 39.9062 30.7514 39.9062 19.8345C39.9062 14.516 37.8268 9.55739 34.1079 5.79845C30.349 2.07951 25.3904 9.53674e-05 20.0719 9.53674e-05C9.15496 9.53674e-05 0.237484 8.87758 0.237484 19.7945ZM6.51571 29.1918L6.11582 28.592C4.47628 25.9527 3.59653 22.9136 3.59653 19.8345C3.59653 10.7171 10.9944 3.35914 20.0719 3.35914C24.4706 3.35914 28.6294 5.07866 31.7086 8.15779C34.8277 11.2769 36.5472 15.4357 36.5472 19.8345C36.5472 28.9119 29.1493 36.3098 20.0719 36.3098C17.1127 36.3098 14.1935 35.51 11.6742 33.9905L11.0744 33.6306L4.83619 35.2701L6.51571 29.1918Z" fill="url(#paint1_linear_2566_25101)"/>
<path fill-rule="evenodd" clip-rule="evenodd" d="M15.118 11.5492C14.7469 10.7245 14.3564 10.7079 14.0034 10.6935C13.7148 10.6811 13.3842 10.6819 13.0543 10.6819C12.7241 10.6819 12.1874 10.8059 11.7337 11.3015C11.2796 11.7972 10 12.9952 10 15.432C10 17.8689 11.775 20.2235 12.0223 20.5543C12.27 20.8845 15.4487 26.0448 20.4828 28.0301C24.6666 29.6798 25.518 29.3517 26.4261 29.2692C27.3342 29.1866 29.3563 28.0713 29.7691 26.9148C30.1819 25.7584 30.1819 24.7673 30.058 24.5601C29.9342 24.3537 29.604 24.2298 29.1087 23.9821C28.6133 23.7345 26.1784 22.5361 25.7243 22.371C25.2703 22.206 24.9401 22.1234 24.6099 22.6192C24.2796 23.1145 23.331 24.2298 23.042 24.5601C22.7531 24.8911 22.4642 24.9324 21.9689 24.6847C21.4735 24.4362 19.8784 23.9138 17.986 22.2266C16.5137 20.9139 15.5197 19.2927 15.2307 18.7969C14.9418 18.3016 15.1998 18.0333 15.4482 17.7864C15.6706 17.5644 15.9436 17.2082 16.1912 16.919C16.4383 16.6298 16.5209 16.4234 16.686 16.0931C16.8511 15.7624 16.7686 15.4732 16.6448 15.2255C16.5209 14.9779 15.5584 12.5285 15.118 11.5492Z" fill="white"/>
<defs>
<linearGradient id="paint0_linear_2566_25101" x1="19.9917" y1="39.3051" x2="19.9917" y2="0.700722" gradientUnits="userSpaceOnUse">
<stop stop-color="#20B038"/>
<stop offset="1" stop-color="#60D66A"/>
</linearGradient>
<linearGradient id="paint1_linear_2566_25101" x1="19.9901" y1="39.9888" x2="19.9901" y2="9.53674e-05" gradientUnits="userSpaceOnUse">
<stop stop-color="#F9F9F9"/>
<stop offset="1" stop-color="white"/>
</linearGradient>
</defs>
</svg>
