<svg width="40" height="40" viewBox="0 0 40 40" fill="none" xmlns="http://www.w3.org/2000/svg">
<path d="M30.0454 36.6664C28.5927 36.6664 26.5521 36.1411 23.4964 34.4342C19.7807 32.3509 16.9066 30.4275 13.2109 26.7422C9.64763 23.1819 7.91364 20.8768 5.48681 16.4616C2.74518 11.4764 3.21253 8.86326 3.73496 7.74643C4.35711 6.41159 5.27546 5.61322 6.46245 4.8208C7.13666 4.37915 7.85014 4.00056 8.59384 3.68983C8.66826 3.65784 8.73747 3.62733 8.79924 3.5998C9.16762 3.43388 9.72577 3.18313 10.4328 3.45099C10.9046 3.62807 11.3258 3.99043 11.9852 4.64148C13.3374 5.97483 15.1852 8.94436 15.8669 10.4027C16.3246 11.3856 16.6275 12.0344 16.6282 12.7621C16.6282 13.6141 16.1996 14.2711 15.6794 14.9801C15.5819 15.1133 15.4851 15.2406 15.3914 15.3641C14.825 16.1081 14.7007 16.3232 14.7826 16.7071C14.9486 17.4787 16.1862 19.7756 18.2201 21.8046C20.254 23.8337 22.4851 24.9929 23.2598 25.1581C23.6602 25.2437 23.8797 25.1142 24.6477 24.5279C24.7579 24.4438 24.871 24.3567 24.9893 24.2697C25.7826 23.6797 26.4092 23.2622 27.2413 23.2622H27.2457C27.9698 23.2622 28.5897 23.5762 29.6167 24.0941C30.9563 24.7697 34.0157 26.5934 35.3575 27.9468C36.0102 28.6046 36.3741 29.0242 36.5519 29.4952C36.8199 30.2043 36.5676 30.7601 36.4031 31.1321C36.3756 31.1939 36.3451 31.2616 36.3131 31.3367C35.9998 32.079 35.6189 32.7908 35.1752 33.4633C34.3841 34.6463 33.5826 35.5622 32.2445 36.185C31.5574 36.51 30.8055 36.6746 30.0454 36.6664Z" fill="#556C7C"/>
</svg>
