<svg width="40" height="40" viewBox="0 0 40 40" fill="none" xmlns="http://www.w3.org/2000/svg">
<path fill-rule="evenodd" clip-rule="evenodd" d="M20.7106 0.0287121C29.6547 0.0707312 33.6705 2.98806 34.6669 3.90047C37.9624 6.76378 39.7933 13.1147 38.5627 23.1452C37.4802 32.0078 31.2985 33.5801 29.2247 34.1075C29.0216 34.1592 28.8579 34.2008 28.7423 34.2383C28.184 34.4184 23.2437 35.6549 16.8268 35.1147C16.1185 35.937 15.1761 37.0175 14.4978 37.7499C14.2929 37.9706 14.101 38.1886 13.9176 38.3969C12.9893 39.4517 12.279 40.2587 11.1963 39.9229C10.1218 39.5927 10.1818 37.96 10.1818 37.96L10.1878 33.9321H10.1818C0.793541 31.2909 0.931603 21.5605 1.03965 16.3621C1.1417 11.1638 2.15016 6.97387 5.01346 4.11057C10.1578 -0.607578 20.7106 0.0287121 20.7106 0.0287121Z" fill="#665CAC"/>
<path d="M28.1618 31.3018C29.9243 30.8928 34.8466 29.7505 35.7555 22.4249C36.794 14.0451 35.3714 8.32445 32.5861 5.92936C31.7457 5.16701 28.1201 2.89198 20.5506 2.85596C20.5506 2.85596 11.5885 2.26769 7.23657 6.20548C4.81747 8.59457 4.0011 12.1482 3.91106 16.4882L3.90124 16.9303C3.79966 21.3685 3.62062 29.1906 11.2944 31.3209C11.2944 31.3209 11.2644 37.4737 11.2584 38.014C11.2584 38.3921 11.3184 38.6502 11.5345 38.7043C11.6906 38.7463 11.9247 38.6623 12.1228 38.4642C13.3894 37.1856 17.4532 32.2873 17.4532 32.2873C22.9037 32.6475 27.2377 31.567 27.7059 31.417C27.8137 31.3826 27.9688 31.3466 28.1618 31.3018Z" fill="white"/>
<path d="M24.8937 16.1156C24.9072 16.3947 24.6919 16.6319 24.4128 16.6454C24.1337 16.6589 23.8965 16.4436 23.883 16.1645C23.7995 14.4355 22.9963 13.6061 21.3362 13.5179C21.0571 13.503 20.843 13.2648 20.8578 12.9858C20.8726 12.7068 21.1108 12.4926 21.3898 12.5074C23.5745 12.6235 24.7853 13.874 24.8937 16.1156Z" fill="#665CAC"/>
<path d="M26.9701 17.5163C27.2494 17.5226 27.481 17.3013 27.4873 17.022C27.5323 15.0445 26.9401 13.3749 25.7095 12.0343C24.4768 10.6912 22.7766 9.94759 20.6245 9.79477C20.3458 9.77498 20.1038 9.98488 20.084 10.2636C20.0642 10.5423 20.2741 10.7843 20.5528 10.8041C22.4591 10.9394 23.9161 11.5767 24.9641 12.7185C26.013 13.8613 26.5149 15.2762 26.4758 16.999C26.4694 17.2783 26.6907 17.5099 26.9701 17.5163Z" fill="#665CAC"/>
<path d="M30.1467 18.0452C30.1488 18.3246 29.9239 18.5528 29.6445 18.5548C29.3651 18.5569 29.1369 18.3321 29.1349 18.0527C29.1118 14.974 28.2032 12.5809 26.4123 10.8298C24.6152 9.07833 22.3813 8.1933 19.697 8.17613C19.4176 8.17434 19.1925 7.94639 19.1943 7.66699C19.1961 7.38758 19.4241 7.16253 19.7035 7.16432C22.6451 7.18313 25.1308 8.16793 27.1191 10.1058C29.1145 12.0568 30.1217 14.7096 30.1467 18.0452Z" fill="#665CAC"/>
<path d="M22.5575 22.503C22.1794 22.9772 21.465 22.9172 21.465 22.9172C16.2667 21.5906 14.874 16.3262 14.874 16.3262C14.874 16.3262 14.814 15.6178 15.2882 15.2337L16.2247 14.4893C16.6929 14.1292 16.987 13.2588 16.5128 12.4064C16.2487 11.9322 15.7204 11.0858 15.3303 10.5515C14.9161 9.98728 13.9556 8.83475 13.9496 8.82875C13.4874 8.2765 12.8031 8.15044 12.0828 8.52261C12.0828 8.52261 12.0768 8.52861 12.0708 8.52861C11.3865 8.91279 10.7502 9.42902 10.1559 10.0833L10.1439 10.0953C9.69969 10.6296 9.44158 11.1578 9.38155 11.674C9.36954 11.7341 9.36354 11.8121 9.36954 11.9021C9.36354 12.1303 9.39956 12.3524 9.47159 12.5745L9.4956 12.5925C9.7177 13.3908 10.282 14.7174 11.5005 16.9324C12.2929 18.3671 13.1032 19.5676 13.9076 20.5761C14.3278 21.1103 14.808 21.6566 15.3603 22.2148L15.5764 22.4309C16.1346 22.9832 16.6809 23.4634 17.2151 23.8836C18.2236 24.688 19.4181 25.4983 20.8588 26.2907C23.0738 27.5092 24.4004 28.0735 25.1987 28.2956L25.2168 28.3196C25.4389 28.3916 25.661 28.4217 25.8891 28.4217C25.9791 28.4277 26.0571 28.4217 26.1172 28.4097C26.6334 28.3496 27.1616 28.0915 27.6959 27.6473L27.7079 27.6353C28.3622 27.041 28.8784 26.3987 29.2626 25.7204C29.2626 25.7204 29.2686 25.7144 29.2686 25.7084C29.6408 24.9881 29.5147 24.3038 28.9625 23.8416C28.9625 23.8416 27.8039 22.8751 27.2397 22.4609C26.7114 22.0708 25.859 21.5485 25.3848 21.2784C24.5324 20.8042 23.662 21.0983 23.3019 21.5665L22.5575 22.503Z" fill="#665CAC"/>
</svg>
