<svg width="40" height="40" viewBox="0 0 40 40" fill="none" xmlns="http://www.w3.org/2000/svg">
<path d="M6.66927 33.3333C5.7526 33.3333 4.96816 33.0072 4.31594 32.355C3.66372 31.7027 3.33705 30.9177 3.33594 30V9.99996C3.33594 9.08329 3.6626 8.29885 4.31594 7.64663C4.96927 6.9944 5.75372 6.66774 6.66927 6.66663H33.3359C34.2526 6.66663 35.0376 6.99329 35.6909 7.64663C36.3443 8.29996 36.6704 9.0844 36.6693 9.99996V30C36.6693 30.9166 36.3432 31.7016 35.6909 32.355C35.0387 33.0083 34.2537 33.3344 33.3359 33.3333H6.66927ZM20.0026 21.375C20.1415 21.375 20.2876 21.3538 20.4409 21.3116C20.5943 21.2694 20.7398 21.2072 20.8776 21.125L32.6693 13.75C32.8915 13.6111 33.0582 13.4377 33.1693 13.23C33.2804 13.0222 33.3359 12.7927 33.3359 12.5416C33.3359 11.9861 33.0998 11.5694 32.6276 11.2916C32.1554 11.0138 31.6693 11.0277 31.1693 11.3333L20.0026 18.3333L8.83594 11.3333C8.33594 11.0277 7.84983 11.0211 7.3776 11.3133C6.90538 11.6055 6.66927 12.015 6.66927 12.5416C6.66927 12.8194 6.72483 13.0627 6.83594 13.2716C6.94705 13.4805 7.11372 13.64 7.33594 13.75L19.1276 21.125C19.2665 21.2083 19.4126 21.2711 19.5659 21.3133C19.7193 21.3555 19.8648 21.3761 20.0026 21.375Z" fill="#556C7C"/>
</svg>
