<svg width="40" height="40" viewBox="0 0 40 40" fill="none" xmlns="http://www.w3.org/2000/svg">
<path d="M20 40C31.0457 40 40 31.0457 40 20C40 8.95431 31.0457 0 20 0C8.95431 0 0 8.95431 0 20C0 31.0457 8.95431 40 20 40Z" fill="url(#paint0_linear_2566_20097)"/>
<path fill-rule="evenodd" clip-rule="evenodd" d="M9.05564 19.7889C14.886 17.2487 18.7739 15.574 20.7192 14.7649C26.2734 12.4547 27.4275 12.0534 28.1798 12.0402C28.3452 12.0373 28.7151 12.0783 28.9548 12.2727C29.1571 12.4369 29.2128 12.6587 29.2394 12.8143C29.266 12.97 29.2992 13.3246 29.2728 13.6017C28.9719 16.7641 27.6695 24.4386 27.0069 27.9806C26.7266 29.4794 26.1746 29.9819 25.6401 30.0311C24.4787 30.138 23.5967 29.2636 22.4718 28.5262C20.7116 27.3723 19.7171 26.654 18.0085 25.528C16.0339 24.2268 17.3139 23.5116 18.4393 22.3428C18.7338 22.0369 23.8511 17.3823 23.9501 16.9601C23.9625 16.9072 23.974 16.7104 23.8571 16.6065C23.7401 16.5025 23.5676 16.5381 23.443 16.5663C23.2665 16.6064 20.4544 18.4651 15.0069 22.1423C14.2087 22.6904 13.4857 22.9574 12.838 22.9434C12.1239 22.928 10.7502 22.5397 9.72904 22.2077C8.47654 21.8006 7.48108 21.5853 7.56776 20.8939C7.61291 20.5337 8.10887 20.1654 9.05564 19.7889Z" fill="white"/>
<defs>
<linearGradient id="paint0_linear_2566_20097" x1="20" y1="0" x2="20" y2="39.7033" gradientUnits="userSpaceOnUse">
<stop stop-color="#2AABEE"/>
<stop offset="1" stop-color="#229ED9"/>
</linearGradient>
</defs>
</svg>
