<svg width="40" height="40" viewBox="0 0 40 40" fill="none" xmlns="http://www.w3.org/2000/svg">
<path d="M12.4024 8.91675C13.4674 8.91675 14.4524 9.00008 15.3524 9.24675C16.2541 9.41175 16.9924 9.74175 17.6474 10.1534C18.3041 10.5656 18.7957 11.1429 19.1224 11.8851C19.4507 12.6267 19.6157 13.5351 19.6157 14.5234C19.6157 15.6784 19.3691 16.6667 18.7957 17.4084C18.3041 18.1517 17.4841 18.8101 16.5007 19.3051C17.8941 19.7184 18.9591 20.4601 19.6157 21.4484C20.2724 22.4367 20.6807 23.6751 20.6807 25.0767C20.6807 26.2317 20.4341 27.2201 20.0241 28.0451C19.6157 28.8701 18.9591 29.6117 18.2207 30.1067C17.4184 30.6367 16.5319 31.0267 15.5991 31.2601C14.6157 31.5084 13.6324 31.6734 12.6491 31.6734H1.66406V8.91675H12.4024ZM11.7457 18.1501C12.6474 18.1501 13.3857 17.9034 13.9591 17.4917C14.5324 17.0801 14.7791 16.3367 14.7791 15.4301C14.7791 14.9351 14.6957 14.4401 14.5324 14.1117C14.3691 13.7834 14.1224 13.5334 13.7957 13.2867C13.4617 13.0992 13.1025 12.9605 12.7291 12.8751C12.3191 12.7917 11.9107 12.7917 11.4174 12.7917H6.66406V18.1517L11.7457 18.1501ZM11.9924 27.8801C12.4841 27.8801 12.9757 27.7967 13.3857 27.7151C13.7957 27.6317 14.2057 27.4684 14.5324 27.2201C14.8651 26.9773 15.1442 26.6687 15.3524 26.3134C15.5157 25.9017 15.6807 25.4067 15.6807 24.8301C15.6807 23.6751 15.3524 22.8501 14.6974 22.2734C14.0407 21.7784 13.1391 21.5317 12.0741 21.5317H6.66406V27.8817L11.9924 27.8801ZM27.8124 27.7967C28.4679 28.4567 29.4513 28.7867 30.7624 28.7867C31.6641 28.7867 32.4841 28.5401 33.1391 28.1284C33.7957 27.6329 34.2057 27.1379 34.3691 26.6434H38.3857C37.7291 28.6217 36.7457 30.0234 35.4357 30.9301C34.1224 31.7551 32.5657 32.2501 30.6807 32.2501C29.4748 32.2519 28.2793 32.028 27.1557 31.5901C26.1443 31.2129 25.2427 30.5897 24.5324 29.7767C23.7696 29.019 23.2067 28.0838 22.8941 27.0551C22.4841 25.9834 22.3191 24.8301 22.3191 23.5101C22.3191 22.2734 22.4841 21.1201 22.8941 20.0467C23.2873 19.0127 23.8714 18.0618 24.6157 17.2434C25.3524 16.5017 26.2541 15.8434 27.2374 15.4301C28.332 14.9906 29.5012 14.7665 30.6807 14.7701C32.0741 14.7701 33.3041 15.0184 34.3691 15.5951C35.4357 16.1717 36.2541 16.8317 36.9091 17.8217C37.5657 18.7284 38.0591 19.8001 38.3857 20.9551C38.5491 22.1084 38.6307 23.2634 38.5491 24.5817H26.6641C26.6641 25.9017 27.1557 27.1384 27.8124 27.7984M32.9757 19.1417C32.4024 18.5651 31.5007 18.2351 30.4341 18.2351C29.8086 18.2257 29.1901 18.3669 28.6307 18.6467C28.1391 18.8951 27.8124 19.2251 27.4841 19.5551C27.1805 19.8725 26.9805 20.2747 26.9107 20.7084C26.8274 21.1217 26.7457 21.4501 26.7457 21.7801H34.1224C33.9591 20.5434 33.5491 19.7201 32.9757 19.1417ZM25.7624 10.4834H34.9424V12.7101H25.7641L25.7624 10.4834Z" fill="black"/>
</svg>
