<svg width="40" height="40" viewBox="0 0 40 40" fill="none" xmlns="http://www.w3.org/2000/svg">
<path d="M37.0366 0.00298262H2.95164C1.34072 -0.0151971 0.0196605 1.27522 0 2.88616V37.1133C0.0189874 38.725 1.33994 40.0167 2.95164 39.9998H37.0366C38.6515 40.0198 39.9776 38.7282 40 37.1133V2.88369C39.977 1.26957 38.6507 -0.0207753 37.0366 0.000253418" fill="#0A66C2"/>
<path d="M28.1567 34.0824H34.0834L34.0859 23.6116C34.0859 18.4713 32.9783 14.52 26.9713 14.52C24.6749 14.4348 22.5177 15.6195 21.3576 17.6032H21.2779V14.9948H15.5883V34.0818H21.515V24.6395C21.515 22.1496 21.9873 19.7381 25.0742 19.7381C28.1172 19.7381 28.1567 22.5874 28.1567 24.8007V34.0824Z" fill="white"/>
<path d="M5.46094 8.94689C5.46128 10.8464 7.00141 12.3861 8.90092 12.3857C9.8131 12.3856 10.6878 12.023 11.3327 11.3779C11.9776 10.7328 12.3398 9.85786 12.3397 8.94566C12.3393 7.04611 10.7992 5.5065 8.89969 5.50684C7.00018 5.50718 5.4606 7.04734 5.46094 8.94689Z" fill="white"/>
<path d="M5.93137 34.0824H11.8643V14.9948H5.93137V34.0824Z" fill="white"/>
</svg>
