<svg width="48" height="48" viewBox="0 0 48 48" fill="none" xmlns="http://www.w3.org/2000/svg">
<g clip-path="url(#clip0_2044_10354)">
<path fill-rule="evenodd" clip-rule="evenodd" d="M23.7405 38.6737C23.5778 38.6737 23.4259 38.6303 23.2848 38.5543L21.8418 37.6972C21.6248 37.5778 21.7333 37.5344 21.7984 37.5127C22.0913 37.4151 22.1456 37.3934 22.4494 37.2198C22.4819 37.1981 22.5253 37.2089 22.5579 37.2306L23.6646 37.8925C23.708 37.9142 23.7622 37.9142 23.7948 37.8925L28.1239 35.3861C28.1673 35.3644 28.189 35.321 28.189 35.2668V30.265C28.189 30.2107 28.1673 30.1673 28.1239 30.1456L23.7948 27.6501C23.7514 27.6284 23.6971 27.6284 23.6646 27.6501L19.3354 30.1456C19.292 30.1673 19.2703 30.2216 19.2703 30.265V35.2668C19.2703 35.3102 19.292 35.3644 19.3354 35.3861L20.5181 36.0697C21.1582 36.3952 21.5597 36.0154 21.5597 35.6357V30.699C21.5597 30.6339 21.6139 30.5688 21.6899 30.5688H22.2432C22.3083 30.5688 22.3734 30.623 22.3734 30.699V35.6357C22.3734 36.4928 21.9069 36.9919 21.0931 36.9919C20.8436 36.9919 20.6483 36.9919 20.0949 36.7207L18.9557 36.0697C18.6736 35.9069 18.5 35.6031 18.5 35.2776V30.2758C18.5 29.9503 18.6736 29.6465 18.9557 29.4838L23.2848 26.9774C23.5561 26.8256 23.925 26.8256 24.1962 26.9774L28.5253 29.4838C28.8074 29.6465 28.981 29.9503 28.981 30.2758V35.2776C28.981 35.6031 28.8074 35.9069 28.5253 36.0697L24.1962 38.576C24.0552 38.6411 23.8924 38.6737 23.7405 38.6737ZM25.075 35.2342C23.1763 35.2342 22.7857 34.3662 22.7857 33.6284C22.7857 33.5633 22.84 33.4982 22.9159 33.4982H23.4801C23.5452 33.4982 23.5995 33.5416 23.5995 33.6067C23.6863 34.1818 23.9358 34.4639 25.0859 34.4639C25.9973 34.4639 26.3879 34.2577 26.3879 33.7695C26.3879 33.4874 26.2794 33.2812 24.858 33.1402C23.6754 33.0209 22.9376 32.7605 22.9376 31.8165C22.9376 30.9377 23.6754 30.4169 24.9123 30.4169C26.3011 30.4169 26.9846 30.8943 27.0714 31.9359C27.0714 31.9684 27.0606 32.001 27.0389 32.0335C27.0172 32.0552 26.9846 32.0769 26.9521 32.0769H26.3879C26.3336 32.0769 26.2794 32.0335 26.2685 31.9793C26.1383 31.3825 25.802 31.1872 24.9123 31.1872C23.9141 31.1872 23.7948 31.5344 23.7948 31.7948C23.7948 32.1095 23.9358 32.2071 25.2812 32.3807C26.6157 32.5543 27.245 32.8039 27.245 33.7369C27.2342 34.6917 26.453 35.2342 25.075 35.2342Z" fill="white"/>
<path fill-rule="evenodd" clip-rule="evenodd" d="M10.3074 19.1112C10.3074 18.9159 10.1989 18.7315 10.0253 18.6339L5.42496 15.9865C5.34901 15.9431 5.26221 15.9214 5.17541 15.9105H5.13201C5.04521 15.9105 4.95841 15.9431 4.88246 15.9865L0.282098 18.6339C0.108499 18.7315 0 18.9159 0 19.1112L0.0108499 26.2288C0.0108499 26.3264 0.0650995 26.4241 0.151899 26.4675C0.238698 26.5217 0.347197 26.5217 0.423147 26.4675L3.15732 24.9051C3.33092 24.8075 3.43942 24.623 3.43942 24.4277V21.0968C3.43942 20.9015 3.54792 20.717 3.72152 20.6194L4.88246 19.9467C4.96926 19.8924 5.06691 19.8707 5.16456 19.8707C5.26221 19.8707 5.35986 19.8924 5.43581 19.9467L6.59675 20.6194C6.77035 20.717 6.87884 20.9015 6.87884 21.0968V24.4277C6.87884 24.623 6.98734 24.8075 7.16094 24.9051L9.89512 26.4675C9.98192 26.5217 10.0904 26.5217 10.1772 26.4675C10.264 26.4241 10.3183 26.3264 10.3183 26.2288L10.3074 19.1112Z" fill="white"/>
<path fill-rule="evenodd" clip-rule="evenodd" d="M32.42 9.3138C32.3332 9.2704 32.2247 9.2704 32.1488 9.3138C32.062 9.36805 32.0078 9.45485 32.0078 9.5525V16.6049C32.0078 16.67 31.9752 16.7351 31.9101 16.7785C31.845 16.8111 31.7799 16.8111 31.7148 16.7785L30.5647 16.1167C30.3911 16.019 30.185 16.019 30.0114 16.1167L25.411 18.7749C25.2374 18.8726 25.1289 19.057 25.1289 19.2523V24.5579C25.1289 24.7532 25.2374 24.9377 25.411 25.0353L30.0114 27.6935C30.185 27.7912 30.3911 27.7912 30.5647 27.6935L35.1651 25.0353C35.3387 24.9377 35.4472 24.7532 35.4472 24.5579V11.3319C35.4472 11.1257 35.3387 10.9413 35.1651 10.8436L32.42 9.3138ZM31.9969 22.8111C31.9969 22.8653 31.9752 22.9087 31.9318 22.9304L30.3585 23.8418C30.3151 23.8635 30.2609 23.8635 30.2175 23.8418L28.6442 22.9304C28.6008 22.9087 28.5791 22.8545 28.5791 22.8111V20.9883C28.5791 20.9341 28.6008 20.8907 28.6442 20.869L30.2175 19.9576C30.2609 19.9359 30.3151 19.9359 30.3585 19.9576L31.9318 20.869C31.9752 20.8907 31.9969 20.9449 31.9969 20.9883V22.8111Z" fill="white"/>
<path fill-rule="evenodd" clip-rule="evenodd" d="M47.7302 20.9448C47.9038 20.8472 48.0014 20.6627 48.0014 20.4674V19.1763C48.0014 18.981 47.8929 18.7965 47.7302 18.6989L43.1624 16.0515C42.9888 15.9539 42.7826 15.9539 42.609 16.0515L38.0087 18.7097C37.8351 18.8074 37.7266 18.9918 37.7266 19.1871V24.4927C37.7266 24.688 37.8351 24.8725 38.0087 24.9701L42.5765 27.5741C42.7501 27.6718 42.9562 27.6718 43.119 27.5741L45.8857 26.0334C45.9725 25.99 46.0267 25.8924 46.0267 25.7947C46.0267 25.6971 45.9725 25.5994 45.8857 25.556L41.2636 22.8978C41.1768 22.8436 41.1226 22.7568 41.1226 22.6591V20.9991C41.1226 20.9014 41.1768 20.8038 41.2636 20.7604L42.7067 19.9358C42.7935 19.8815 42.902 19.8815 42.9888 19.9358L44.4318 20.7604C44.5186 20.8146 44.5729 20.9014 44.5729 20.9991V22.3011C44.5729 22.3987 44.6271 22.4964 44.7139 22.5398C44.8007 22.594 44.9092 22.594 44.996 22.5398L47.7302 20.9448Z" fill="white"/>
<path fill-rule="evenodd" clip-rule="evenodd" d="M42.8159 20.6954C42.8485 20.6737 42.8919 20.6737 42.9244 20.6954L43.8032 21.2053C43.8358 21.227 43.8575 21.2595 43.8575 21.3029V22.3228C43.8575 22.3662 43.8358 22.3988 43.8032 22.4205L42.9244 22.9304C42.8919 22.9521 42.8485 22.9521 42.8159 22.9304L41.9371 22.4205C41.9045 22.3988 41.8828 22.3662 41.8828 22.3228V21.3029C41.8828 21.2595 41.9045 21.227 41.9371 21.2053L42.8159 20.6954Z" fill="white"/>
<path fill-rule="evenodd" clip-rule="evenodd" d="M17.9979 16.0732C17.8243 15.9756 17.6181 15.9756 17.4445 16.0732L12.8767 18.7098C12.7031 18.8074 12.6055 18.9919 12.6055 19.1872V24.4711C12.6055 24.6664 12.714 24.8508 12.8767 24.9485L17.4445 27.585C17.6181 27.6826 17.8243 27.6826 17.9979 27.585L22.5657 24.9485C22.7393 24.8508 22.8369 24.6664 22.8369 24.4711V19.1872C22.8369 18.9919 22.7284 18.8074 22.5657 18.7098L17.9979 16.0732Z" fill="white"/>
<path fill-rule="evenodd" clip-rule="evenodd" d="M17.9979 16.0732C17.8243 15.9756 17.6181 15.9756 17.4445 16.0732L12.8767 18.7098C12.7031 18.8074 12.6055 18.9919 12.6055 19.1872V24.4711C12.6055 24.6664 12.714 24.8508 12.8767 24.9485L17.4445 27.585C17.6181 27.6826 17.8243 27.6826 17.9979 27.585L22.5657 24.9485C22.7393 24.8508 22.8369 24.6664 22.8369 24.4711V19.1872C22.8369 18.9919 22.7284 18.8074 22.5657 18.7098L17.9979 16.0732Z" fill="white"/>
<mask id="mask0_2044_10354" style="mask-type:luminance" maskUnits="userSpaceOnUse" x="12" y="16" width="11" height="12">
<path fill-rule="evenodd" clip-rule="evenodd" d="M17.9979 16.0732C17.8243 15.9756 17.6181 15.9756 17.4445 16.0732L12.8767 18.7098C12.7031 18.8074 12.6055 18.9919 12.6055 19.1872V24.4711C12.6055 24.6664 12.714 24.8508 12.8767 24.9485L17.4445 27.585C17.6181 27.6826 17.8243 27.6826 17.9979 27.585L22.5657 24.9485C22.7393 24.8508 22.8369 24.6664 22.8369 24.4711V19.1872C22.8369 18.9919 22.7284 18.8074 22.5657 18.7098L17.9979 16.0732Z" fill="white"/>
</mask>
<g mask="url(#mask0_2044_10354)">
<path fill-rule="evenodd" clip-rule="evenodd" d="M22.5765 18.7098L17.987 16.0733C17.9436 16.0516 17.8894 16.0299 17.846 16.019L12.7031 24.8292C12.7465 24.8834 12.8008 24.9268 12.855 24.9594L17.4445 27.5959C17.5747 27.6718 17.7266 27.6935 17.8677 27.6501L22.6959 18.8183C22.6633 18.7749 22.6199 18.7424 22.5765 18.7098Z" fill="white"/>
</g>
<mask id="mask1_2044_10354" style="mask-type:luminance" maskUnits="userSpaceOnUse" x="12" y="16" width="11" height="12">
<path fill-rule="evenodd" clip-rule="evenodd" d="M17.9979 16.0732C17.8243 15.9756 17.6181 15.9756 17.4445 16.0732L12.8767 18.7098C12.7031 18.8074 12.6055 18.9919 12.6055 19.1872V24.4711C12.6055 24.6664 12.714 24.8508 12.8767 24.9485L17.4445 27.585C17.6181 27.6826 17.8243 27.6826 17.9979 27.585L22.5657 24.9485C22.7393 24.8508 22.8369 24.6664 22.8369 24.4711V19.1872C22.8369 18.9919 22.7284 18.8074 22.5657 18.7098L17.9979 16.0732Z" fill="white"/>
</mask>
<g mask="url(#mask1_2044_10354)">
<path fill-rule="evenodd" clip-rule="evenodd" d="M22.5896 24.9485C22.7198 24.8725 22.8174 24.7423 22.8608 24.6013L17.8265 16.0082C17.6963 15.9865 17.5552 15.9973 17.4359 16.0733L12.8789 18.6989L17.7939 27.661C17.859 27.6501 17.935 27.6284 18.0001 27.5959L22.5896 24.9485Z" fill="white"/>
<path fill-rule="evenodd" clip-rule="evenodd" d="M22.5895 24.9485L18.0108 27.585C17.9457 27.6176 17.8806 27.6393 17.8047 27.6501L17.8915 27.8129L22.9692 24.8726V24.8075L22.839 24.5905C22.8173 24.7424 22.7197 24.8726 22.5895 24.9485Z" fill="white"/>
<path fill-rule="evenodd" clip-rule="evenodd" d="M22.5895 24.9485L18.0108 27.585C17.9457 27.6176 17.8806 27.6393 17.8047 27.6501L17.8915 27.8129L22.9692 24.8726V24.8075L22.839 24.5905C22.8173 24.7424 22.7197 24.8726 22.5895 24.9485Z" fill="white"/>
</g>
</g>
<defs>
<clipPath id="clip0_2044_10354">
<rect width="48" height="48" fill="white"/>
</clipPath>
</defs>
</svg>
