<svg width="56" height="48" viewBox="0 0 56 48" fill="none" xmlns="http://www.w3.org/2000/svg">
<path fill-rule="evenodd" clip-rule="evenodd" d="M37.7954 47.8387C39.4127 47.2436 41.9367 45.9361 43.7632 44.7476C45.9484 43.3256 48.9507 40.6135 50.4459 38.7109C53.1315 35.2937 54.5364 31.818 55.3437 26.5935C55.8866 23.0803 55.9252 22.1883 55.9753 11.9912C56.0286 1.14634 56.0771 1.82706 55.1895 0.967823C54.3329 0.138553 54.8397 0.175827 44.4069 0.175826C34.3305 0.175825 34.6832 0.15592 33.8508 0.770674C33.6382 0.927591 33.3314 1.27489 33.1688 1.54234L32.8735 2.02876L32.8439 11.2686L32.8141 20.5084L33.0505 21.0402C33.328 21.6646 34.0896 22.3605 34.6648 22.5152C34.9006 22.5785 36.8656 22.6219 39.518 22.6222L43.9751 22.6229L43.9751 23.2887C43.9751 24.8046 43.5286 27.3772 42.9697 29.0817C42.2267 31.3478 41.093 33.1749 39.4509 34.7529C38.1111 36.0403 36.5598 37.0627 34.379 38.0957C32.7843 38.8509 32.5451 39.0383 32.1069 39.876C31.9909 40.0978 31.9135 40.4932 31.9097 40.884C31.9042 41.4497 31.9771 41.6795 32.5158 42.7956C34.5657 47.0426 34.7333 47.3121 35.5896 47.735C36.2175 48.0451 37.1192 48.0875 37.7954 47.8387ZM5.45197 47.9163C6.05812 47.808 8.90832 46.4578 10.4517 45.5479C15.134 42.7872 18.789 39.0886 20.9278 34.9468C22.4918 31.9183 23.2665 28.8589 23.812 23.5557C23.9571 22.1464 23.9986 20.0392 24.0378 12.098C24.0919 1.13406 24.1409 1.82833 23.2521 0.96782C22.3955 0.138657 22.9016 0.175824 12.4751 0.175823C2.31237 0.175822 2.66861 0.15443 1.84217 0.813865C1.62539 0.986877 1.32056 1.3761 1.1647 1.67882L0.881424 2.22919L0.883827 11.3936C0.886233 20.3845 0.890502 20.5672 1.10903 21.0346C1.36508 21.5824 1.75566 22.009 2.30329 22.3391C2.67724 22.5646 2.79471 22.5712 7.38769 22.6229L12.0893 22.6758L12.0559 23.5229C11.9696 25.7107 11.4241 28.3145 10.6663 30.1539C9.88723 32.0451 8.95415 33.4247 7.53819 34.7787C6.24953 36.0109 4.93386 36.889 2.86865 37.8949C0.88886 38.8592 0.33553 39.3036 0.11142 40.1091C-0.153816 41.0626 -0.0141367 41.543 1.29125 44.1699C2.01979 45.636 2.66631 46.7903 2.91568 47.0702C3.54918 47.7815 4.47624 48.0907 5.45197 47.9163Z" fill="#0C374A"/>
</svg>
