<svg width="24" height="24" viewBox="0 0 24 24" fill="none" xmlns="http://www.w3.org/2000/svg">
<g clip-path="url(#clip0_3001_7382)">
<path d="M22.3955 22.1959V8.11767C22.3955 7.64377 22.2701 7.51395 21.7961 7.51269C20.9033 7.51017 20.0098 7.51017 19.117 7.51269C18.655 7.51458 18.522 7.64944 18.522 8.10191V15.3887C18.522 17.6838 18.5194 19.9795 18.5264 22.2746C18.5264 22.3238 18.5232 22.3654 18.5156 22.4H22.4012C22.3955 22.3503 22.3955 22.2841 22.3955 22.1959Z" fill="#75E6FF"/>
<path d="M10.9976 17.2995C10.9976 16.2773 10.9989 15.2558 10.997 14.2336C10.9957 13.7522 10.8721 13.6306 10.3988 13.6306C9.48187 13.6306 8.56496 13.6306 7.64805 13.6306C7.22476 13.6312 7.09676 13.7572 7.09613 14.1782C7.09486 15.1839 7.09549 16.1903 7.09549 17.1967C7.09549 18.8862 7.09169 20.5764 7.09993 22.2665C7.09993 22.3195 7.09676 22.3636 7.08789 22.4001H11.0014C10.9976 22.3566 10.9976 22.2999 10.9976 22.2281V17.2995Z" fill="#75E6FF"/>
<path d="M16.6995 11.6272C16.6995 11.3757 16.7045 11.1243 16.6976 10.8728C16.6893 10.571 16.5429 10.4235 16.2394 10.4229C15.2439 10.4191 14.2478 10.4191 13.2523 10.4229C12.9767 10.4241 12.8493 10.5426 12.8113 10.8155C12.7967 10.9239 12.7986 11.0354 12.7986 11.1451C12.798 13.9903 12.798 16.8362 12.798 19.6815C12.798 20.5461 12.7923 21.4107 12.8018 22.2753C12.8018 22.3238 12.7993 22.3654 12.791 22.4001H16.7045C16.7001 22.3541 16.7001 22.2942 16.7001 22.2154C16.6995 18.6864 16.7001 15.1568 16.6995 11.6272Z" fill="#75E6FF"/>
<path d="M5.26991 17.2011C5.26991 16.8576 5.13304 16.7013 4.81558 16.7001C3.82769 16.6957 2.83981 16.6957 1.85193 16.7001C1.54397 16.7013 1.40266 16.8469 1.39886 17.1494C1.39443 17.4639 1.3976 17.7783 1.3976 18.0928C1.39696 19.4842 1.39253 20.8756 1.40203 22.2671C1.40266 22.3194 1.39886 22.3635 1.39062 22.4001H5.27498C5.27118 22.3559 5.27118 22.298 5.27118 22.2236C5.27055 20.5492 5.27181 18.8748 5.26991 17.2011Z" fill="#75E6FF"/>
<path d="M1.63883 14.565C1.67685 14.5537 1.71424 14.5411 1.75163 14.5285C4.2622 13.6588 6.70878 12.6373 9.08755 11.457C13.1297 9.45111 16.8898 7.01736 20.3414 4.11539C20.6893 3.82298 21.0327 3.52617 21.3781 3.23188C21.43 3.28796 21.4136 3.33586 21.4072 3.37997C21.3559 3.72972 21.302 4.07884 21.2507 4.42795C21.2127 4.68633 21.3407 4.88799 21.5656 4.92895C21.7995 4.97117 22.0041 4.83757 22.0441 4.58298C22.1664 3.79967 22.2855 3.01509 22.3869 2.22926C22.4325 1.87447 22.224 1.69109 21.859 1.71315C21.1183 1.75726 20.3775 1.80074 19.6361 1.84107C19.318 1.85809 19.1368 2.00681 19.1413 2.26014C19.1457 2.51851 19.3548 2.67606 19.6773 2.65778C20.055 2.63636 20.4327 2.61052 20.8667 2.58279C20.7793 2.66535 20.7248 2.71954 20.6671 2.76996C18.8403 4.37628 16.9082 5.84649 14.878 7.18877C10.8827 9.82985 6.61499 11.9296 2.10394 13.5466C1.85872 13.6349 1.61095 13.7162 1.36889 13.8126C1.1186 13.9121 1.01531 14.1207 1.09452 14.335C1.17436 14.5524 1.38283 14.6406 1.63883 14.565Z" fill="#75E6FF"/>
<path d="M4.71514 10.397C7.35244 10.3926 9.53288 8.22355 9.53605 5.60075C9.53922 2.95085 7.37842 0.800049 4.7126 0.800049C2.05058 0.799419 -0.112745 2.93509 -0.117181 5.56798C-0.121616 8.22922 2.05248 10.4021 4.71514 10.397ZM3.15759 6.41053C3.37747 6.32482 3.58151 6.42628 3.67783 6.71364C3.94143 7.49885 5.11118 7.49255 5.57058 7.08041C5.67577 6.98651 5.73153 6.86804 5.72076 6.73696C5.7252 6.50695 5.62191 6.34877 5.44702 6.23156C5.22587 6.0841 4.97494 6.0173 4.7164 5.97192C4.3172 5.90197 3.92686 5.80871 3.59165 5.56483C2.86864 5.04052 2.86484 3.95976 3.58405 3.41466C3.73549 3.29997 3.90025 3.19977 4.08337 3.15061C4.25129 3.10587 4.29945 3.01576 4.31023 2.85002C4.3343 2.49082 4.65114 2.31059 4.91854 2.48515C5.05922 2.57652 5.10547 2.71831 5.10801 2.87145C5.11118 3.02269 5.18215 3.09138 5.32092 3.13738C5.76702 3.28673 6.10539 3.56653 6.31577 3.99127C6.45074 4.26477 6.40195 4.48974 6.18397 4.60003C5.97423 4.7059 5.77716 4.62145 5.62508 4.36119C5.32282 3.84381 4.67712 3.66736 4.17145 3.96291C3.9484 4.09336 3.82737 4.27674 3.84131 4.54268C3.85462 4.79916 4.01494 4.93717 4.22722 5.03233C4.47434 5.14324 4.74238 5.17916 5.00472 5.23462C5.31585 5.30015 5.61494 5.39531 5.88171 5.57491C6.36203 5.8963 6.561 6.35129 6.49953 6.91278C6.4425 7.42638 6.10666 7.73327 5.6631 7.94501C5.59149 7.97904 5.51799 8.01622 5.44131 8.02757C5.21827 8.05908 5.0947 8.15171 5.08836 8.40189C5.08266 8.61363 4.94135 8.74471 4.7164 8.7529C4.50729 8.76046 4.3286 8.62687 4.32353 8.39559C4.31783 8.14352 4.1892 8.07546 3.98199 8.00488C3.47696 7.83284 3.1145 7.49759 2.94595 6.98147C2.85343 6.69978 2.93137 6.49875 3.15759 6.41053Z" fill="#75E6FF"/>
</g>
<defs>
<clipPath id="clip0_3001_7382">
<rect width="24" height="24" fill="white"/>
</clipPath>
</defs>
</svg>
