<svg width="24" height="24" viewBox="0 0 24 24" fill="none" xmlns="http://www.w3.org/2000/svg">
<g clip-path="url(#clip0_3001_4148)">
<path d="M16.153 17.556C16.1142 17.5956 16.0574 17.6271 16.0547 17.7037C16.0801 17.7003 16.1062 17.7037 16.1249 17.6928C17.5164 16.872 18.9073 16.0486 20.3002 15.2292C20.4587 15.1362 20.4647 15.05 20.351 14.9112C19.9465 14.4167 19.2577 14.3852 18.7856 14.864C17.9036 15.7565 17.0296 16.6573 16.153 17.556Z" fill="#75E6FF"/>
<path d="M17.6123 14.7026C17.4237 14.5617 17.2198 14.4796 16.9851 14.4953C16.6908 14.4748 16.4421 14.5801 16.2348 14.7853C15.9533 15.0644 15.6791 15.3509 15.3989 15.6313C15.3193 15.7107 15.2892 15.7668 15.4029 15.8495C15.6236 16.0089 15.8021 16.2127 15.9192 16.4644C15.9727 16.58 16.0175 16.6005 16.1137 16.5013C16.6179 15.9795 17.1248 15.4604 17.635 14.9447C17.7353 14.8434 17.7159 14.7805 17.6123 14.7026Z" fill="#75E6FF"/>
<path d="M5.69219 20.1747C4.9914 18.9334 4.29128 17.6927 3.59116 16.4514C3.51426 16.3153 3.43402 16.184 3.26283 16.1901C3.16721 16.186 3.08831 16.2127 3.01475 16.2558C2.08259 16.805 1.1491 17.3514 0.220289 17.9068C-0.0485249 18.0682 -0.0645735 18.2426 0.135365 18.4902C0.990621 19.5496 1.84588 20.6083 2.70113 21.6671C3.25882 22.3572 3.8145 23.0493 4.37487 23.738C4.62964 24.0513 4.76137 24.0697 5.1024 23.868C5.62933 23.5568 6.15827 23.2483 6.6852 22.9358C7.0289 22.732 7.06234 22.6027 6.86775 22.2573C6.47656 21.5631 6.08404 20.8689 5.69219 20.1747ZM2.70983 19.4019C2.56673 19.3916 2.45639 19.3219 2.38417 19.1967C2.18357 18.8438 1.97828 18.4936 1.78904 18.1345C1.67402 17.9157 1.73487 17.7084 1.91676 17.6024C2.09731 17.4964 2.31262 17.5484 2.43433 17.7522C2.64229 18.101 2.84557 18.4526 3.03013 18.8137C3.17524 19.0975 2.99736 19.4039 2.70983 19.4019Z" fill="#75E6FF"/>
<path d="M22.066 15.1752C21.826 15.2025 21.6294 15.3359 21.4274 15.4549C19.5631 16.5533 17.6995 17.6524 15.8365 18.7528C15.4346 18.9901 15.0307 19.0558 14.5673 18.9245C13.1464 18.5203 11.7167 18.1475 10.2904 17.7618C9.9186 17.6613 9.77416 17.4971 9.83501 17.2468C9.89854 16.9862 10.1085 16.9123 10.4937 17.0163C11.7508 17.3549 13.0073 17.6989 14.2658 18.0306C14.7419 18.1564 15.1585 17.9129 15.2935 17.4588C15.4279 17.0088 15.1932 16.5362 14.7492 16.3659C14.687 16.3419 14.6222 16.3242 14.558 16.3064C13.1651 15.9254 11.7729 15.5411 10.3787 15.1663C9.94468 15.0493 9.52073 14.8865 9.06802 14.853C8.84267 14.84 8.63806 14.9023 8.44547 15.0158C7.31137 15.6847 6.17794 16.3549 5.04116 17.019C4.89338 17.1059 4.86864 17.1805 4.95892 17.3384C5.57411 18.4129 6.18463 19.4901 6.78444 20.5735C6.89678 20.7773 6.9904 20.8224 7.18165 20.6795C7.68918 20.2978 8.23751 20.2534 8.84267 20.4271C10.4556 20.8888 12.0811 21.306 13.6934 21.7703C14.2731 21.9372 14.7746 21.862 15.2909 21.5515C17.0515 20.4921 18.8256 19.4566 20.5949 18.4115C21.3098 17.9889 22.0286 17.5744 22.7374 17.1415C23.1868 16.8665 23.3533 16.346 23.1794 15.8543C23.0176 15.3967 22.5629 15.1184 22.066 15.1752Z" fill="#75E6FF"/>
<path d="M1.77875 7.76883C2.09905 7.80576 2.20872 7.87758 2.28896 8.19219C2.38057 8.5492 2.49625 8.89733 2.67011 9.21878C3.03589 9.89656 3.04659 9.83569 2.53236 10.4533C2.44075 10.5627 2.41935 10.6475 2.52501 10.759C2.70555 10.9478 2.86938 11.1543 3.05394 11.3383C3.5033 11.787 3.50999 11.7876 3.99613 11.3841C4.18871 11.2248 4.3726 11.1919 4.58993 11.328C4.88883 11.5154 5.20713 11.6652 5.5408 11.7781C6.27235 12.025 6.26634 11.8383 6.35928 12.7889C6.37399 12.9449 6.44688 12.9934 6.58463 12.9934C6.85144 12.9948 7.11825 13.0091 7.38506 13.0044C7.96882 12.9941 7.96882 12.9907 8.03168 12.4134C8.07113 12.0516 8.12931 11.975 8.46499 11.8841C8.81338 11.7897 9.17046 11.6926 9.46134 11.4819C9.91605 11.1523 10.2858 11.2179 10.6356 11.6249C10.7432 11.7507 10.8455 11.763 10.9686 11.6365C11.1451 11.4559 11.341 11.2945 11.5156 11.1119C11.9515 10.6557 11.9549 10.6475 11.561 10.151C11.3952 9.9417 11.3751 9.75088 11.5129 9.52244C11.7015 9.20988 11.8579 8.87749 11.9596 8.52458C12.1889 7.72506 12.1288 7.82833 12.9011 7.73122C13.0723 7.71001 13.1365 7.62999 13.1391 7.47132C13.1438 7.20664 13.1512 6.94264 13.1485 6.67795C13.1411 6.10482 13.1405 6.08361 12.5835 6.03027C12.2478 5.99881 12.0987 5.8374 12.0311 5.52073C11.9636 5.20407 11.8746 4.87783 11.6894 4.61862C11.3424 4.13371 11.3664 3.72335 11.8125 3.33282C11.9221 3.23707 11.9094 3.12764 11.8125 3.02232C11.6299 2.82329 11.4641 2.6058 11.2655 2.42592C10.7105 1.92186 10.8756 1.98136 10.3714 2.39515C10.1488 2.57776 9.95484 2.60238 9.71611 2.44439C9.40651 2.23921 9.07283 2.05318 8.71308 1.99436C8.16408 1.90476 7.96882 1.58263 7.9929 1.06147C8.00226 0.869285 7.90062 0.800207 7.73746 0.794736C7.47065 0.786528 7.20384 0.781057 6.93703 0.783793C6.36396 0.789948 6.36396 0.792684 6.31782 1.36787C6.28773 1.73788 6.22688 1.81448 5.87181 1.91229C5.44318 2.03129 5.03527 2.20091 4.64944 2.42661C4.31442 2.62221 4.25759 2.61879 3.95868 2.37531C3.86707 2.30076 3.78014 2.22006 3.68786 2.14825C3.64239 2.11336 3.58823 2.09079 3.53272 2.05933C3.47923 2.0949 3.42908 2.12294 3.38294 2.15782C3.17564 2.31718 2.99242 2.50389 2.81388 2.69539C2.53214 2.99724 2.51609 3.30638 2.76574 3.62281C2.77042 3.62965 2.77577 3.63649 2.78112 3.64265C2.95698 3.83825 2.97236 4.04001 2.83327 4.2705C2.63467 4.5981 2.47419 4.94691 2.37121 5.31692C2.17729 6.01248 2.2368 5.98376 1.44708 6.05557C1.27589 6.0713 1.20969 6.14243 1.20969 6.30931C1.20969 6.59041 1.19231 6.87219 1.20234 7.15329C1.22373 7.7743 1.1241 7.69223 1.77942 7.76883H1.77875ZM7.29679 3.16457C9.24067 3.16663 10.8221 4.79439 10.8195 6.79149C10.8174 8.77764 9.21259 10.4136 7.27539 10.4047C5.34287 10.3965 3.74069 8.74754 3.74203 6.7696C3.74403 4.79029 5.34889 3.16252 7.29679 3.16457Z" fill="#75E6FF"/>
<path d="M23.9672 8.23803C23.8896 7.99865 23.6917 7.87554 23.37 7.87486C22.72 7.87281 22.0694 7.8687 21.4194 7.87828C21.2376 7.88102 21.15 7.81399 21.0971 7.6389C20.9072 7.01242 20.7066 6.38867 20.5073 5.76492C20.401 5.43116 20.2078 5.26291 19.951 5.26838C19.6956 5.27385 19.5264 5.42774 19.4194 5.7615C19.2228 6.37704 19.0249 6.9919 18.839 7.61154C18.7815 7.80373 18.6932 7.89059 18.4866 7.87965C18.1622 7.86186 17.8359 7.87486 17.5109 7.87486C17.2107 7.87418 16.9105 7.87349 16.6109 7.87418C16.2284 7.87486 16.0351 7.98771 15.9522 8.2565C15.8706 8.52255 15.9609 8.72568 16.2745 8.9589C16.7874 9.34054 17.2976 9.72422 17.8172 10.0949C17.9583 10.1961 17.9897 10.2878 17.9342 10.4547C17.7236 11.0839 17.5263 11.7172 17.3257 12.3499C17.2876 12.4702 17.2428 12.5892 17.2702 12.7233C17.3518 13.1309 17.7711 13.3067 18.1248 13.0564C18.6524 12.6829 19.174 12.2986 19.6802 11.8957C19.8855 11.7329 20.0245 11.7158 20.2379 11.8882C20.728 12.2842 21.2442 12.6467 21.7478 13.0249C21.9183 13.1535 22.0975 13.2232 22.3081 13.1439C22.5963 13.0352 22.7234 12.7541 22.6171 12.4094C22.4218 11.7753 22.2199 11.1434 22.0079 10.5149C21.9417 10.3186 21.9584 10.1975 22.1416 10.0696C22.6712 9.6996 23.1855 9.30634 23.7037 8.91855C23.9705 8.71884 24.0521 8.49724 23.9672 8.23803Z" fill="#75E6FF"/>
<path d="M14.1212 2.69676C14.4301 2.9293 14.7404 3.16115 15.054 3.38617C15.1764 3.47371 15.2051 3.56604 15.155 3.7124C15.0306 4.07421 14.9189 4.4408 14.8059 4.8067C14.709 5.12131 14.7571 5.33265 14.953 5.47217C15.1376 5.60417 15.3696 5.5775 15.6211 5.39078C15.8919 5.19107 16.168 4.9982 16.4268 4.78345C16.6014 4.63845 16.7358 4.6111 16.9237 4.77251C17.1985 5.0071 17.5007 5.20749 17.7903 5.4243C17.9902 5.57476 18.2029 5.62195 18.4142 5.46602C18.6228 5.31213 18.6589 5.09806 18.576 4.85047C18.4516 4.47978 18.3446 4.10293 18.2162 3.73292C18.1587 3.56604 18.1995 3.46414 18.3379 3.36702C18.6402 3.15431 18.9344 2.9293 19.232 2.70975C19.4339 2.55997 19.5797 2.38352 19.4955 2.10584C19.4219 1.86167 19.2413 1.74267 18.9297 1.73925C18.5539 1.73446 18.1788 1.73241 17.8037 1.73993C17.6432 1.74335 17.5636 1.67975 17.5168 1.52381C17.3998 1.13191 17.2707 0.744806 17.1423 0.357015C17.0681 0.130632 16.9096 0 16.6756 0C16.4395 0 16.2897 0.144311 16.2142 0.365222C16.146 0.566299 16.0885 0.772164 16.0243 0.974609C15.8616 1.48346 15.5212 1.73788 15.0032 1.73788C14.8113 1.73857 14.6194 1.73651 14.4281 1.73857C14.176 1.74199 13.966 1.82201 13.8724 2.08669C13.7935 2.30897 13.8778 2.51278 14.1212 2.69676Z" fill="#75E6FF"/>
<path d="M6.44864 8.09162C6.52888 8.17369 6.62384 8.22157 6.74086 8.21199C6.89867 8.21678 7.00232 8.11693 7.10329 8.01297C7.61685 7.48839 8.1304 6.9645 8.64195 6.43786C8.7349 6.34143 8.8332 6.24294 8.89873 6.12736C9.02177 5.91123 8.89873 5.6404 8.66535 5.58226C8.48882 5.53849 8.36244 5.62808 8.24475 5.74846C7.79204 6.21422 7.33533 6.67587 6.8853 7.14437C6.78232 7.25106 6.70943 7.3051 6.58706 7.16284C6.42256 6.97065 6.24001 6.79351 6.05746 6.61911C5.87691 6.44539 5.64956 6.4447 5.50111 6.60475C5.35065 6.76684 5.35333 6.96244 5.52986 7.14916C5.83144 7.46787 6.14171 7.77838 6.44864 8.09162Z" fill="#75E6FF"/>
</g>
<defs>
<clipPath id="clip0_3001_4148">
<rect width="24" height="24" fill="white"/>
</clipPath>
</defs>
</svg>
