<svg width="48" height="48" viewBox="0 0 48 48" fill="none" xmlns="http://www.w3.org/2000/svg">
<path d="M44 15.126V13.968C44 13.068 43.936 12.232 43.742 11.332C43.678 10.432 43.292 9.59596 42.906 8.88796C42.07 7.34396 40.848 5.99396 39.176 5.15796C38.34 4.77196 37.57 4.44996 36.668 4.32196C35.768 4.25796 34.932 4.06396 34.032 4.06396H13.39C12.682 4.06396 12.102 4.12796 11.396 4.25796C10.7319 4.3388 10.0823 4.5118 9.466 4.77196C9.274 4.83596 9.016 4.96396 8.824 5.02996C8.26286 5.40238 7.72579 5.80986 7.216 6.24996C7.022 6.31596 6.894 6.50996 6.636 6.70196C6.03217 7.31509 5.51353 8.00662 5.094 8.75797C4.708 9.59596 4.386 10.366 4.258 11.268C4.128 12.168 4.064 13.004 4 13.904V33.968C4 34.868 4.064 35.704 4.258 36.604C4.322 37.504 4.708 38.342 5.094 39.112C5.93 40.72 7.152 42.006 8.824 42.842C9.66 43.228 10.43 43.55 11.332 43.678C12.232 43.744 13.068 43.936 13.968 43.936H34.034C34.934 43.936 35.768 43.872 36.668 43.678C37.568 43.614 38.406 43.228 39.176 42.842C40.72 42.006 42.07 40.784 42.906 39.112C43.292 38.276 43.614 37.506 43.742 36.604C43.872 35.704 44 34.868 44 33.968V15.126ZM37.762 36.54C35.962 33.132 32.682 33.904 31.01 34.804C30.8774 34.9172 30.7248 35.0047 30.56 35.062H30.43C27.022 36.99 22.2 37.054 17.504 34.998C13.6755 33.2892 10.4333 30.4934 8.18 26.958C9.25964 27.8031 10.4501 28.4962 11.718 29.018C16.798 31.396 21.75 31.202 25.35 29.018C20.27 25.158 16.154 20.078 12.81 16.026C12.1787 15.3181 11.5986 14.5662 11.074 13.776C14.934 17.312 21.106 21.814 23.294 22.972C18.598 18.084 14.546 11.912 14.674 12.232C22.006 19.628 28.758 23.872 28.758 23.872C29.016 23.936 29.21 24.128 29.402 24.258C29.466 23.872 29.66 23.55 29.788 23.164C30.946 18.92 29.724 13.968 26.702 9.97996C33.582 14.032 37.57 21.814 35.898 28.438C35.832 28.502 35.832 28.694 35.832 28.888C39.112 32.81 38.212 37.312 37.762 36.54Z" fill="white"/>
</svg>
