<svg width="24" height="24" viewBox="0 0 24 24" fill="none" xmlns="http://www.w3.org/2000/svg">
<g clip-path="url(#clip0_3001_93)">
<path d="M3.30161 15.4991C2.57959 16.2714 2.13426 17.168 1.97281 18.2038C1.93139 18.4692 1.84017 18.5569 1.57668 18.5422C1.14815 18.5183 0.71602 18.517 0.286888 18.5422C0.00900292 18.5581 -0.0210063 18.4472 0.00960312 18.2063C0.19386 16.7568 0.74903 15.4789 1.69612 14.3848C2.90009 12.9929 4.44977 12.2421 6.21191 11.9296C8.1331 11.5888 9.64496 10.6474 10.6419 8.90672C10.7025 8.8013 10.7547 8.69036 10.8051 8.58004C11.0776 7.98859 11.6112 7.75568 12.1279 8.00514C12.6465 8.25581 12.8229 8.81723 12.5427 9.41175C11.835 10.9103 10.7589 12.0595 9.34607 12.882C9.03278 13.064 8.71108 13.2338 8.36897 13.3466C8.1427 13.4214 8.06588 13.5329 8.06828 13.7836C8.08148 15.2441 8.06768 16.7047 8.08028 18.1658C8.08268 18.4478 8.03047 18.5495 7.72557 18.5452C6.36556 18.5262 5.00494 18.5324 3.64492 18.5428C3.41985 18.5446 3.35683 18.4803 3.36043 18.251C3.37364 17.4138 3.36643 16.576 3.36403 15.7381C3.36403 15.6707 3.38804 15.5959 3.30161 15.5003V15.4991Z" fill="#75E6FF"/>
<path d="M13.3956 9.00244C13.913 9.84212 14.4957 10.5752 15.3138 10.9772C16.3341 11.478 17.0975 12.2668 17.8892 13.0372C18.0278 13.172 18.1317 13.2021 18.3015 13.1009C18.6382 12.9005 18.9899 12.7277 19.3296 12.5322C19.4617 12.4562 19.5733 12.4396 19.7186 12.5064C22.1307 13.6145 23.5699 15.4839 23.9751 18.1635C24.0309 18.5337 24.0225 18.5349 23.6588 18.5355C23.2284 18.5355 22.7975 18.5184 22.369 18.5417C22.1319 18.5545 22.0623 18.4583 22.0299 18.2432C21.884 17.2699 21.4831 16.4149 20.8487 15.6745C20.7995 15.6169 20.7617 15.5372 20.6674 15.5256C20.5918 15.6144 20.6302 15.7205 20.6302 15.8161C20.626 16.6331 20.62 17.4501 20.6308 18.2671C20.6338 18.4847 20.566 18.5411 20.359 18.5398C18.9689 18.5313 17.5783 18.5288 16.1883 18.5417C15.944 18.5441 15.914 18.4473 15.9152 18.2383C15.9218 16.7471 15.9152 15.2559 15.9224 13.7647C15.9236 13.5539 15.8708 13.4448 15.6613 13.3633C14.4723 12.9011 13.4574 12.1761 12.6088 11.2058C12.4731 11.0508 12.4563 10.9435 12.5782 10.7621C12.9293 10.2405 13.2558 9.70177 13.3944 9.00183L13.3956 9.00244Z" fill="#75E6FF"/>
<path d="M18.2747 11.6203C17.1373 11.6246 16.2112 10.6868 16.207 9.52597C16.2028 8.36942 17.1271 7.41084 18.2543 7.40349C19.388 7.39613 20.3261 8.33755 20.3339 9.49042C20.3417 10.6764 19.4342 11.6154 18.2753 11.6196L18.2747 11.6203Z" fill="#75E6FF"/>
<path d="M5.71263 7.25063C6.85599 7.24573 7.77727 8.17244 7.78687 9.33695C7.79647 10.5045 6.86259 11.4631 5.71503 11.465C4.58609 11.4662 3.6588 10.5156 3.6582 9.35534C3.6582 8.19021 4.56988 7.25615 5.71263 7.25124V7.25063Z" fill="#75E6FF"/>
<path d="M11.5593 6.82112C11.5779 6.96821 11.5137 7.05586 11.3714 7.07915C11.2232 7.10305 11.147 7.02399 11.1206 6.88363C11.0545 6.53366 10.9885 6.18308 10.9249 5.8325C10.8877 5.62657 10.9669 5.48008 11.1722 5.45679C11.3666 5.43473 11.4591 5.56405 11.4741 5.75466C11.5023 6.11015 11.5311 6.46563 11.5593 6.82173V6.82112Z" fill="#75E6FF"/>
<path d="M13.4981 6.27983C13.4746 6.32947 13.4368 6.42202 13.3894 6.50967C13.2394 6.78547 13.0851 7.05822 12.9345 7.33341C12.8625 7.46518 12.7592 7.49338 12.6332 7.42657C12.5162 7.36528 12.4897 7.26415 12.5396 7.1428C12.6818 6.79589 12.8216 6.44776 12.9699 6.10331C13.0281 5.96786 13.1391 5.8986 13.2856 5.94028C13.423 5.97889 13.5077 6.07206 13.4987 6.27922L13.4981 6.27983Z" fill="#75E6FF"/>
<path d="M10.3339 7.32033C10.3279 7.40614 10.2937 7.47662 10.2216 7.52504C10.149 7.57407 10.074 7.59307 10.0014 7.52994C9.69708 7.26701 9.39039 7.00714 9.0933 6.73623C8.99367 6.64552 8.99367 6.51804 9.07169 6.4022C9.15692 6.27655 9.30216 6.21588 9.40959 6.29923C9.7577 6.57136 10.0356 6.9201 10.3177 7.2621C10.3291 7.2762 10.3285 7.30072 10.3339 7.32033Z" fill="#75E6FF"/>
<path d="M15.0558 7.50712C15.0612 7.63338 14.9994 7.71674 14.8962 7.77864C14.5943 7.95883 14.2924 8.1378 13.9935 8.3229C13.8548 8.4087 13.7438 8.38541 13.661 8.25058C13.5782 8.11635 13.6502 8.02319 13.757 7.94229C14.0373 7.72838 14.3104 7.50467 14.5961 7.29935C14.8013 7.15164 15.045 7.26993 15.0558 7.50712Z" fill="#75E6FF"/>
</g>
<defs>
<clipPath id="clip0_3001_93">
<rect width="24" height="24" fill="white"/>
</clipPath>
</defs>
</svg>
