<svg width="24" height="24" viewBox="0 0 24 24" fill="none" xmlns="http://www.w3.org/2000/svg">
<path d="M16.9363 6.19636C15.3211 4.53228 13.3353 3.81103 11.0564 4.15084C8.37296 4.55094 6.53492 6.10304 5.52811 8.65157C5.10423 9.72554 5.03154 10.8531 5.14152 11.996C5.20336 12.6383 5.3478 13.2586 5.64234 13.8372C5.88873 14.321 6.22858 14.7345 6.57929 15.1409C7.08624 15.7286 7.54551 16.3469 7.83911 17.0782C8.1261 17.7928 8.28564 18.5384 8.38476 19.2999C8.42017 19.5737 8.5174 19.6565 8.78834 19.6565C9.85557 19.6565 10.9233 19.6565 11.9905 19.6565C13.0577 19.6565 14.1406 19.6565 15.2158 19.6565C15.4599 19.6565 15.5675 19.5598 15.6015 19.3166C15.6321 19.1003 15.6609 18.883 15.6992 18.6681C15.8455 17.8474 16.0914 17.062 16.5162 16.3412C16.8164 15.832 17.2007 15.3883 17.582 14.9427C17.996 14.4584 18.358 13.942 18.5723 13.3313C18.8036 12.6718 18.882 11.9879 18.8957 11.2934C18.9349 9.32065 18.3 7.60105 16.9363 6.19636ZM15.9106 8.70661C15.8686 8.74011 15.8162 8.78797 15.8096 8.83487C15.7138 9.514 15.4306 10.118 15.0907 10.6995C15.0199 10.8206 14.9472 10.9407 14.8665 11.0546C14.8184 11.1226 14.8198 11.1704 14.8665 11.2398C15.1984 11.7366 15.483 12.2583 15.6642 12.8326C15.7846 13.2155 15.8597 13.6051 15.7955 14.009C15.7025 14.5943 15.2895 14.9738 14.7027 15.0188C14.2699 15.0523 13.8611 14.948 13.4613 14.7953C12.9832 14.6125 12.5381 14.3636 12.1165 14.0726C12.0311 14.0133 11.9745 14.009 11.8848 14.0703C11.3254 14.4512 10.7359 14.7704 10.0751 14.9336C9.74607 15.015 9.41329 15.049 9.07958 14.9715C8.56932 14.8537 8.26346 14.5139 8.18935 13.9903C8.1766 13.8975 8.17424 13.8037 8.16952 13.7434C8.1851 13.1423 8.36683 12.6206 8.61936 12.1243C8.76757 11.8338 8.93844 11.5538 9.10979 11.2762C9.1669 11.1843 9.17398 11.1245 9.11167 11.0316C8.76049 10.5057 8.46076 9.95192 8.28706 9.33644C8.1851 8.97654 8.13035 8.61089 8.20398 8.2371C8.30924 7.70395 8.67553 7.36893 9.21032 7.30527C9.72058 7.24449 10.1968 7.37563 10.6627 7.56228C11.0979 7.73697 11.5043 7.96813 11.89 8.23615C11.974 8.29454 12.0302 8.28927 12.1123 8.23375C12.6655 7.85853 13.247 7.54122 13.8965 7.36749C13.9041 7.36558 13.9112 7.36175 13.9187 7.36079C14.1745 7.33208 14.3737 7.2287 14.5696 7.03582C14.9893 6.62279 15.7223 6.71181 16.0947 7.17701C16.4605 7.63455 16.3751 8.33761 15.9116 8.70613L15.9106 8.70661Z" fill="#75E6FF"/>
<path d="M14.9872 21.0182C14.9551 21.1728 14.8489 21.2589 14.6785 21.2594C14.2395 21.2608 13.8006 21.2599 13.3616 21.2604C12.9033 21.2604 12.4449 21.2604 11.9871 21.2604C11.1016 21.2604 10.2156 21.2608 9.33008 21.2599C9.09596 21.2599 8.95954 21.0814 9.01382 20.855C9.04498 20.7248 9.14269 20.6387 9.27438 20.6253C9.29326 20.6234 9.31261 20.6238 9.33197 20.6238C11.111 20.6238 12.89 20.6238 14.6691 20.6238C14.898 20.6238 15.0344 20.7952 14.9877 21.0187L14.9872 21.0182Z" fill="#75E6FF"/>
<path d="M14.3847 22.35C14.3705 22.5041 14.2709 22.6089 14.1194 22.6276C14.0774 22.6329 14.0349 22.6319 13.9924 22.6319C13.3259 22.6319 12.6595 22.6319 11.993 22.6319C11.3109 22.6319 10.6293 22.6329 9.94724 22.631C9.71548 22.631 9.58473 22.4783 9.61588 22.2557C9.6357 22.1126 9.73152 22.016 9.8736 21.9968C9.90381 21.9925 9.93496 21.9915 9.96565 21.9915C11.3218 21.9915 12.6779 21.9911 14.034 21.9915C14.2738 21.9915 14.405 22.1279 14.3847 22.35Z" fill="#75E6FF"/>
<path d="M13.8149 23.915C13.7521 23.9623 13.6624 23.9949 13.5845 23.9958C13.053 24.0025 12.5215 23.9992 11.99 23.9992C11.4623 23.9992 10.9346 24.0006 10.4069 23.9992C10.1907 23.9987 10.0581 23.8475 10.0831 23.6374C10.1024 23.4747 10.2124 23.3674 10.3772 23.3641C10.5966 23.3593 10.8166 23.3622 11.0356 23.3622C11.8871 23.3622 12.7382 23.3622 13.5897 23.3622C13.7247 23.3622 13.8314 23.4096 13.8876 23.5402C13.9447 23.6737 13.922 23.835 13.8153 23.9154L13.8149 23.915Z" fill="#75E6FF"/>
<path d="M12.3153 0.387664C12.3153 1.16443 12.3153 1.94167 12.3153 2.71844C12.3153 2.76869 12.3148 2.82038 12.3044 2.86967C12.2747 3.01852 12.1458 3.12237 11.9981 3.12094C11.8499 3.11998 11.7206 3.01517 11.6946 2.86632C11.6828 2.79788 11.6842 2.72657 11.6842 2.6567C11.6837 2.28961 11.6842 1.92253 11.6842 1.55544C11.6842 1.14959 11.6823 0.743263 11.6852 0.337412C11.6856 0.124914 11.8069 0 12.0014 0C12.1728 0 12.2941 0.109599 12.3125 0.281894C12.3162 0.316832 12.3153 0.352248 12.3153 0.387186V0.387664Z" fill="#75E6FF"/>
<path d="M4.06828 11.1569C4.06592 11.3489 3.94225 11.4704 3.7407 11.4719C3.33618 11.4742 2.93119 11.4723 2.52667 11.4723C2.12592 11.4723 1.72518 11.4742 1.32444 11.4709C1.09126 11.469 0.955317 11.2842 1.01338 11.0593C1.05114 10.9133 1.15451 10.8344 1.32349 10.8329C1.65107 10.8305 1.97865 10.8315 2.30623 10.8315C2.78439 10.8315 3.26207 10.8305 3.73976 10.8329C3.94792 10.8339 4.07111 10.9593 4.06875 11.1569H4.06828Z" fill="#75E6FF"/>
<path d="M22.9793 11.2633C22.9349 11.4021 22.8302 11.4715 22.6546 11.4715C22.1769 11.4729 21.6987 11.4724 21.221 11.4719C20.8935 11.4719 20.5659 11.4748 20.2383 11.4696C20.0235 11.4657 19.8933 11.291 19.9357 11.0795C19.9669 10.9225 20.0759 10.834 20.2544 10.833C20.6589 10.8306 21.0639 10.8321 21.4684 10.8325C21.8729 10.8325 22.2779 10.8292 22.6824 10.8335C22.9161 10.8359 23.052 11.0383 22.9803 11.2633H22.9793Z" fill="#75E6FF"/>
<path d="M5.12963 7.13967C5.0357 7.30096 4.85916 7.33973 4.67838 7.23444C3.98498 6.82954 3.29159 6.42417 2.59913 6.01736C2.44762 5.92882 2.39711 5.80534 2.44101 5.65506C2.48396 5.50765 2.60669 5.40715 2.77425 5.40858C2.80257 5.42007 2.86299 5.43634 2.91492 5.46697C3.60878 5.87091 4.30265 6.27676 4.9951 6.68357C5.1773 6.79077 5.22828 6.97073 5.12963 7.13967Z" fill="#75E6FF"/>
<path d="M21.3957 6.01928C20.9766 6.26624 20.5565 6.51128 20.1364 6.75728C19.8664 6.91522 19.5973 7.07459 19.3259 7.23013C19.2669 7.26364 19.1999 7.2823 19.1678 7.29522C18.9922 7.29522 18.8766 7.20381 18.8345 7.06119C18.7949 6.92622 18.8388 6.79078 18.9573 6.71277C19.0673 6.64098 19.1824 6.5778 19.2957 6.51128C19.889 6.16382 20.4814 5.81588 21.0757 5.46985C21.2834 5.34876 21.4849 5.42582 21.5543 5.64741C21.6025 5.80104 21.5505 5.92691 21.3952 6.0188L21.3957 6.01928Z" fill="#75E6FF"/>
<path d="M5.17638 15.3926C5.17496 15.4606 5.1221 15.5443 5.03005 15.5984C4.3173 16.0167 3.60456 16.4345 2.88992 16.849C2.73226 16.9404 2.55715 16.8854 2.47218 16.7322C2.3825 16.5728 2.42451 16.39 2.58358 16.2962C3.28877 15.8803 3.99491 15.4663 4.70294 15.0557C4.92621 14.9265 5.18204 15.0892 5.17685 15.3926H5.17638Z" fill="#75E6FF"/>
<path d="M17.6082 1.93735C17.3712 2.35756 17.1319 2.77633 16.8931 3.19558C16.7293 3.48274 16.565 3.76942 16.4022 4.05754C16.3375 4.17192 16.2455 4.23701 16.1317 4.23892C15.8693 4.23653 15.7272 3.97282 15.8532 3.74597C16.0269 3.43296 16.2063 3.12331 16.3833 2.8127C16.6103 2.41403 16.8359 2.0144 17.0658 1.61716C17.1758 1.42716 17.3698 1.39079 17.5374 1.52144C17.6724 1.62674 17.7002 1.77462 17.6082 1.93782V1.93735Z" fill="#75E6FF"/>
<path d="M21.5683 16.5572C21.5717 16.8162 21.3253 16.9755 21.1034 16.8473C20.3916 16.4357 19.6826 16.0198 18.9746 15.6015C18.8146 15.5072 18.7764 15.3378 18.8651 15.1774C18.9557 15.0133 19.1252 14.9568 19.289 15.052C20.0003 15.4646 20.7093 15.8815 21.4182 16.2978C21.515 16.3548 21.5674 16.4419 21.5688 16.5572H21.5683Z" fill="#75E6FF"/>
<path d="M7.84922 4.23839C7.76189 4.23695 7.66985 4.18526 7.61132 4.08332C7.1983 3.36064 6.78529 2.63796 6.37652 1.91288C6.28683 1.75399 6.34395 1.58361 6.50113 1.49267C6.66634 1.39695 6.83249 1.44242 6.9335 1.61902C7.21624 2.1115 7.49567 2.60589 7.77652 3.09933C7.90161 3.319 8.03047 3.53629 8.15084 3.75883C8.26978 3.97803 8.11968 4.23695 7.84922 4.23791V4.23839Z" fill="#75E6FF"/>
<path d="M15.6938 7.82504C15.699 8.06147 15.4956 8.30411 15.2922 8.30316C15.0316 8.3022 14.8164 8.11028 14.8145 7.87768C14.8121 7.61158 14.9981 7.42062 15.2634 7.41727C15.5079 7.4144 15.6887 7.58526 15.6938 7.82456V7.82504Z" fill="#75E6FF"/>
<path d="M11.4595 8.70857C10.7675 9.27379 10.153 9.89788 9.58844 10.6009C9.23349 10.0175 8.91818 9.44178 8.82283 8.7727C8.80489 8.64731 8.80725 8.51426 8.82566 8.38886C8.86767 8.10553 9.04845 7.94329 9.33167 7.91314C9.60213 7.88394 9.86033 7.9452 10.1138 8.03039C10.5872 8.19024 11.0239 8.42619 11.4595 8.70857Z" fill="#75E6FF"/>
<path d="M15.1552 8.93785C15.0221 9.54567 14.7408 10.0745 14.4113 10.6015C13.8472 9.90701 13.2374 9.2767 12.5449 8.71578C12.9282 8.40278 13.8453 7.98496 14.1833 7.96582C14.281 8.50999 14.6043 8.83208 15.1557 8.93737L15.1552 8.93785Z" fill="#75E6FF"/>
<path d="M15.1705 13.914C15.1389 14.1925 14.9652 14.3624 14.6895 14.3821C14.5083 14.3945 14.3185 14.3821 14.141 14.3409C13.5628 14.2083 13.0521 13.9202 12.5371 13.5962C13.2362 13.0262 13.8493 12.4031 14.4068 11.7019C14.4549 11.7799 14.4969 11.844 14.5356 11.9101C14.8085 12.3753 15.053 12.8544 15.1521 13.3918C15.1832 13.5617 15.1899 13.7431 15.1705 13.9145V13.914Z" fill="#75E6FF"/>
<path d="M13.9702 11.078C13.4133 10.3587 12.7793 9.71734 12.0718 9.1502C12.0222 9.11048 11.9868 9.10186 11.9325 9.1459C11.2222 9.71591 10.5849 10.3591 10.0251 11.0813C9.98405 11.134 9.98358 11.1689 10.0251 11.2221C10.583 11.9409 11.217 12.5822 11.924 13.1503C11.9774 13.1934 12.0137 13.2015 12.0723 13.1546C12.7798 12.587 13.4137 11.9457 13.9712 11.2268C13.9877 11.2053 14.0019 11.1823 14.0203 11.155C14.0038 11.1292 13.9891 11.1019 13.9707 11.078H13.9702ZM11.9901 12.2324C11.4011 12.229 10.9309 11.7456 10.9328 11.145C10.9347 10.5482 11.4114 10.0696 12.0029 10.0696C12.5967 10.0696 13.0692 10.5568 13.0659 11.1632C13.0626 11.759 12.583 12.2352 11.9906 12.2319L11.9901 12.2324Z" fill="#75E6FF"/>
<path d="M11.4438 13.5816C11.4358 13.5959 11.433 13.6088 11.4254 13.6141C10.8769 13.9678 10.3114 14.2851 9.65391 14.3732C9.51183 14.3923 9.36079 14.3827 9.21965 14.3555C8.98128 14.3095 8.83779 14.1252 8.80758 13.8668C8.77832 13.6175 8.82599 13.3767 8.89774 13.1403C9.04878 12.644 9.28762 12.1903 9.55998 11.7533C9.56753 11.7414 9.5798 11.7318 9.59727 11.7122C10.1509 12.4028 10.7641 13.025 11.4443 13.5816H11.4438Z" fill="#75E6FF"/>
</svg>
