<svg width="24" height="24" viewBox="0 0 24 24" fill="none" xmlns="http://www.w3.org/2000/svg">
<g clip-path="url(#clip0_3001_3359)">
<path d="M16.3627 7.36266C16.1766 7.61292 15.985 7.85968 15.7827 8.09645C15.7359 8.1519 15.6841 8.20085 15.6293 8.23631C15.4744 8.4561 15.2178 8.59996 14.9275 8.59996H10.8206C10.6727 8.65041 10.4937 8.58847 10.3191 8.53103C8.46989 7.92462 6.54774 8.68638 5.72827 10.3912C5.06073 11.7794 5.20007 13.1291 6.16794 14.3259C7.1348 15.5212 8.42613 15.9363 9.94131 15.6201C10.2975 15.5452 10.5178 15.5522 10.6395 15.6626C10.6401 15.6626 10.6411 15.6641 10.6411 15.6641C10.6753 15.6846 10.7065 15.711 10.7341 15.7425L12.6326 17.9259C12.7342 18.0428 12.7609 18.1991 12.7156 18.337C12.692 18.4099 12.6497 18.4759 12.5879 18.5288L12.3127 18.7651L12.2538 18.7906C11.9767 18.9104 11.699 19.0298 11.4127 19.1207C11.1662 19.1987 11.047 19.337 11.0214 19.5848C10.9902 19.881 10.9328 20.1737 10.9062 20.4699C10.8735 20.8336 10.6848 21.0029 10.3201 20.9994C9.90308 20.9954 9.48555 20.9984 9.06802 20.9984C8.65049 20.9979 8.23346 20.9899 7.81643 20.9994C7.44719 21.0079 7.26157 20.8261 7.21931 20.4754C7.1846 20.1932 7.14033 19.9115 7.11971 19.6277C7.1011 19.365 6.99244 19.2086 6.72834 19.1192C6.34753 18.9894 5.97628 18.827 5.60955 18.6592C5.4194 18.5723 5.26899 18.5808 5.10701 18.7111C4.85347 18.9149 4.59088 19.1067 4.33231 19.3046C4.05211 19.5173 3.79203 19.5173 3.53296 19.2561C2.94741 18.6647 2.35583 18.0812 1.76424 17.4958C1.51825 17.2535 1.47549 16.9688 1.725 16.743C2.42877 16.1027 2.49366 15.4483 2.03639 14.6026C1.80247 14.1705 1.59773 13.9508 1.1138 13.9063C-0.00146428 13.8044 4.49107e-05 13.7874 4.49107e-05 12.672C4.49107e-05 12.0506 0.00557846 11.4287 4.49107e-05 10.8073C-0.00297339 10.4527 0.145929 10.2439 0.51215 10.2004C0.809452 10.1644 1.10374 10.1015 1.40204 10.082C1.67017 10.064 1.8236 9.96413 1.91113 9.69839C2.03337 9.33075 2.18982 8.9716 2.35985 8.62344C2.46398 8.40865 2.46398 8.24331 2.30653 8.05749C2.09676 7.80973 1.90912 7.54449 1.71092 7.28724C1.51523 7.03348 1.51523 6.79172 1.75116 6.55944C2.36136 5.95603 2.96854 5.35062 3.57824 4.74721C3.79606 4.53241 4.01992 4.51843 4.27899 4.69675C4.64068 4.94651 4.93999 5.40607 5.36054 5.41755C5.75242 5.42804 6.14329 5.09387 6.55327 4.97948C6.95924 4.86659 7.08953 4.6483 7.14184 4.2432C7.29578 3.04886 7.12273 2.97743 8.5207 3.0039C9.09418 3.01489 9.66816 3.0014 10.2416 3.0079C10.6924 3.01339 10.8936 3.15725 10.8966 3.59682C10.9021 4.43751 11.1974 4.94451 12.0858 5.20876C12.6336 5.3711 12.9802 5.41905 13.432 5.03443C14.1896 4.38855 14.2167 4.41902 14.9421 5.13383C15.3964 5.5809 15.8491 6.02796 16.2979 6.48102C16.6218 6.8082 16.6349 6.99702 16.3627 7.36266Z" fill="#75E6FF"/>
<path d="M12.7154 18.3375C12.7074 18.5248 12.556 18.6592 12.3553 18.7461C12.3412 18.7526 12.3266 18.7586 12.3125 18.7651L12.5877 18.5288C12.6495 18.4759 12.6918 18.41 12.7154 18.3375Z" fill="#75E6FF"/>
<path d="M20.0146 12.9123C19.0794 15.1761 18.1418 17.4384 17.2021 19.6997C17.1553 19.8131 17.1347 19.9539 16.9883 20.0084C16.8434 19.916 16.8147 19.7551 16.7564 19.6153C15.8313 17.3894 14.9087 15.1631 13.9866 12.9368C13.7848 12.4472 13.7989 12.4278 14.3427 12.4278C16.116 12.4268 17.8897 12.4268 19.663 12.4278C20.1851 12.4278 20.2048 12.4517 20.0146 12.9128V12.9123Z" fill="#75E6FF"/>
<path d="M23.8043 12.8334C22.427 14.4228 21.0461 16.0088 19.6657 17.5957C19.3292 17.9829 18.9901 18.3675 18.641 18.7651C18.5258 18.5958 18.6279 18.4964 18.6682 18.399C19.4318 16.5423 20.206 14.6896 20.9651 12.8314C21.0838 12.5402 21.2382 12.4073 21.5708 12.4193C22.2479 12.4432 22.9265 12.4223 23.6041 12.4293C23.7364 12.4308 23.9235 12.3533 23.9889 12.5147C24.0412 12.6436 23.8858 12.7385 23.8033 12.8324L23.8043 12.8334Z" fill="#75E6FF"/>
<path d="M15.3525 18.7676C14.9495 18.3086 14.5652 17.8725 14.1839 17.4339C12.8473 15.8954 11.5112 14.3564 10.1786 12.8144C10.0996 12.7225 9.93766 12.6336 10.0106 12.4967C10.078 12.3694 10.2475 12.4298 10.3723 12.4293C11.0891 12.4248 11.806 12.4323 12.5228 12.4238C12.7477 12.4208 12.885 12.4967 12.9721 12.709C13.7709 14.6496 14.5758 16.5868 15.3776 18.5259C15.4028 18.5848 15.4315 18.6448 15.3525 18.7676Z" fill="#75E6FF"/>
<path d="M19.4117 11.4268C19.2653 11.5751 19.1557 11.5496 19.0566 11.5496C17.6883 11.5521 16.3205 11.5521 14.9532 11.5481C14.845 11.5481 14.6896 11.6026 14.6458 11.4652C14.6121 11.3578 14.75 11.2999 14.8299 11.2399C15.4723 10.7549 16.1183 10.2734 16.7632 9.79036C16.8819 9.70094 17.0026 9.62552 17.1505 9.73591C17.897 10.2949 18.6436 10.8518 19.4122 11.4268H19.4117Z" fill="#75E6FF"/>
<path d="M15.372 9.76144C14.8031 10.1905 14.2316 10.6161 13.6606 11.0422C13.5002 11.1621 13.3945 11.1121 13.3553 10.9273C13.2748 10.5497 13.2013 10.1705 13.1254 9.79091C13.0841 9.58111 13.2029 9.50469 13.3855 9.50169C13.7104 9.4957 14.0349 9.50019 14.3589 9.50019C14.3589 9.49919 14.3599 9.4987 14.3599 9.4987C14.6713 9.4987 14.9826 9.4947 15.2945 9.50169C15.3519 9.50319 15.4314 9.53266 15.4595 9.57612C15.5174 9.66254 15.4304 9.71748 15.3725 9.76094L15.372 9.76144Z" fill="#75E6FF"/>
<path d="M20.8595 9.83731C20.7846 10.177 20.7212 10.5196 20.6528 10.8618C20.608 11.0901 20.5159 11.189 20.2896 11.0172C19.7528 10.6101 19.2105 10.2104 18.6718 9.80484C18.6023 9.75189 18.4942 9.69745 18.5193 9.59954C18.5515 9.47216 18.6843 9.49714 18.7839 9.49564C19.0828 9.49115 19.3811 9.49414 19.6799 9.49414V9.49714C19.9787 9.49714 20.278 9.49564 20.5768 9.49814C20.8032 9.49964 20.9134 9.59455 20.8595 9.83781V9.83731Z" fill="#75E6FF"/>
<path d="M12.2956 11.5471H11.3997V11.5496C11.1135 11.5496 10.8277 11.5521 10.541 11.5486C10.4666 11.5476 10.371 11.5656 10.3343 11.4817C10.295 11.3923 10.3795 11.3408 10.4374 11.2954C10.9641 10.8758 11.4938 10.4582 12.022 10.0401C12.187 9.90972 12.2801 9.96917 12.3188 10.1545C12.3937 10.5206 12.4637 10.8883 12.5386 11.2539C12.5799 11.4552 12.4964 11.5471 12.2951 11.5471H12.2956Z" fill="#75E6FF"/>
<path d="M23.6622 11.4602C23.6522 11.5611 23.548 11.5467 23.4751 11.5472C23.1894 11.5512 22.9031 11.5487 22.6164 11.5487C22.3296 11.5487 22.0183 11.5462 21.7194 11.5497C21.5026 11.5512 21.407 11.4667 21.4558 11.2405C21.5308 10.8878 21.5937 10.5316 21.6646 10.1775C21.7038 9.98168 21.7929 9.89776 21.981 10.0476C22.5092 10.4682 23.0389 10.8848 23.5656 11.3064C23.6119 11.3429 23.6667 11.4123 23.6617 11.4602H23.6622Z" fill="#75E6FF"/>
<path d="M12.3128 18.7651L12.2665 18.8046L12.2539 18.7906L12.3128 18.7651Z" fill="#75E6FF"/>
</g>
<defs>
<clipPath id="clip0_3001_3359">
<rect width="24" height="18" fill="white" transform="translate(0 3)"/>
</clipPath>
</defs>
</svg>
