<svg width="24" height="24" viewBox="0 0 24 24" fill="none" xmlns="http://www.w3.org/2000/svg">
<path d="M18.2438 16.1229C18.0593 16.4667 17.7068 16.6542 17.3375 16.5602C17.1713 16.5182 16.9953 16.4243 16.8745 16.3028C14.944 14.3564 13.022 12.4016 11.0984 10.4487C11.0871 10.4372 11.0807 10.4212 11.0703 10.4047C11.4594 10.0029 11.8381 9.612 12.2296 9.20813C12.2794 9.24912 12.3311 9.2856 12.375 9.33009C14.2611 11.239 16.1467 13.1478 18.0307 15.0582C18.3522 15.3841 18.4277 15.7805 18.2438 16.1229Z" fill="#75E6FF"/>
<path d="M16.5116 17.7928C16.416 18.1112 16.1926 18.3086 15.8692 18.3786C15.6118 18.4346 15.382 18.3631 15.1793 18.2001C15.1029 18.1387 15.0344 18.0662 14.9648 17.9957C13.1222 16.1283 11.28 14.2604 9.43534 12.3951C9.37272 12.3316 9.28495 12.2936 9.25586 12.2751C9.67104 11.8157 10.0413 11.4054 10.4181 10.989C10.494 11.053 10.5394 11.0855 10.5783 11.125C12.4678 13.0388 14.3554 14.9547 16.2469 16.8666C16.5082 17.1305 16.6191 17.4334 16.5116 17.7928Z" fill="#75E6FF"/>
<path d="M14.1082 20.1838C13.7403 20.2673 13.4657 20.0938 13.2132 19.8369C10.8341 17.4162 8.45047 15 6.06688 12.5833C5.98602 12.5018 5.90318 12.4148 5.80456 12.3609C5.62015 12.2594 5.43622 12.2759 5.29816 12.4533C5.16601 12.6238 5.16453 12.8057 5.29816 12.9787C5.35339 13.0501 5.42143 13.1116 5.48504 13.1761C7.85038 15.5763 10.2157 17.976 12.5806 20.3762C12.6728 20.4702 12.767 20.5662 12.8404 20.6746C13.0786 21.027 13.0268 21.4754 12.7241 21.7628C12.4203 22.0522 11.9756 22.0812 11.6437 21.8263C11.5397 21.7463 11.4475 21.6493 11.3553 21.5558C8.23351 18.3939 5.11276 15.2314 1.99151 12.0695C0.553668 10.6129 -0.00450785 8.86651 0.330792 6.83668C0.843603 3.7352 4.03536 1.57191 7.06292 2.26268C8.11764 2.5031 9.04514 2.98594 9.83112 3.74469C9.84788 3.76069 9.86465 3.77568 9.88092 3.79018L9.88289 3.79168L11.3306 5.29568C10.8868 5.74954 10.4435 6.20389 9.99827 6.65574C9.04168 7.62642 8.08115 8.5926 7.129 9.56728C6.63394 10.0741 6.48206 10.6869 6.71973 11.3562C6.9643 12.0445 7.47465 12.4143 8.20146 12.4823C8.30945 12.4923 8.43025 12.5668 8.50964 12.6473C10.4864 14.6416 12.4578 16.641 14.4302 18.6398C14.4938 18.7043 14.5584 18.7698 14.6096 18.8437C14.9597 19.3481 14.6999 20.0498 14.1082 20.1838Z" fill="#75E6FF"/>
<path d="M22.0704 11.8651C21.1251 12.8463 20.1612 13.8089 19.2051 14.7796C19.1429 14.8426 19.0778 14.9031 19.0404 14.9391C18.6972 14.5762 18.3698 14.2188 18.0305 13.8739C16.3733 12.192 14.713 10.513 13.0523 8.83407C12.9828 8.76409 12.9019 8.70561 12.8418 8.65463C13.1263 8.37222 13.3866 8.11431 13.6706 7.8319C13.6943 7.85189 13.7633 7.90537 13.827 7.96435C14.5774 8.66313 15.4665 9.09448 16.4753 9.14147C17.7258 9.20045 18.7687 8.67562 19.5985 7.72993C19.745 7.56299 19.709 7.31407 19.5487 7.16962C19.3934 7.02916 19.1666 7.03466 18.9906 7.18061C18.7125 7.41104 18.459 7.68595 18.1513 7.86289C16.9309 8.56266 15.854 8.4422 14.6691 7.56848C14.4517 7.40804 14.2554 7.2146 14.0641 7.02166C13.7209 6.67578 13.5538 6.66978 13.2037 7.02416C11.7999 8.4457 10.3995 9.87073 8.98976 11.2863C8.84923 11.4272 8.66728 11.5522 8.48188 11.6137C8.14855 11.7241 7.80142 11.5692 7.59876 11.2783C7.40497 11.0004 7.39709 10.6055 7.58939 10.3166C7.653 10.2211 7.73386 10.1356 7.81473 10.0537C9.91381 7.92637 11.9946 5.78007 14.1208 3.68026C15.7248 2.09578 17.6676 1.61994 19.7933 2.30371C21.9481 2.99699 23.2676 4.53898 23.668 6.80773C24.0122 8.76059 23.4323 10.4525 22.0704 11.8651Z" fill="#75E6FF"/>
</svg>
