<svg width="24" height="24" viewBox="0 0 24 24" fill="none" xmlns="http://www.w3.org/2000/svg">
<path d="M7.96485 6.202C7.779 6.17495 7.58948 6.21236 7.42785 6.308H7.41385C7.03885 6.528 6.70085 6.805 6.41285 7.131C6.17285 7.408 6.04285 7.688 6.00885 7.958C5.98885 8.118 6.00285 8.28 6.04985 8.433L6.06785 8.443C6.33785 9.236 6.68985 9.999 7.11985 10.717C7.6743 11.7255 8.3566 12.6582 9.14985 13.492L9.17385 13.526L9.21185 13.554L9.23485 13.581L9.26285 13.605C10.0996 14.4006 11.0345 15.0862 12.0448 15.645C13.1998 16.274 13.9008 16.571 14.3218 16.695V16.701C14.4448 16.739 14.5568 16.756 14.6698 16.756C15.0284 16.7295 15.3678 16.5838 15.6338 16.342C15.9588 16.054 16.2338 15.715 16.4478 15.338V15.331C16.6488 14.951 16.5808 14.593 16.2908 14.35C15.7083 13.841 15.0785 13.389 14.4098 13C13.9618 12.757 13.5068 12.904 13.3228 13.15L12.9298 13.646C12.7278 13.892 12.3618 13.858 12.3618 13.858L12.3518 13.864C9.62085 13.167 8.89185 10.402 8.89185 10.402C8.89185 10.402 8.85785 10.026 9.11085 9.834L9.60285 9.438C9.83885 9.246 10.0028 8.792 9.74985 8.344C9.36345 7.67476 8.91229 7.04508 8.40285 6.464C8.29174 6.32725 8.13591 6.23411 7.96285 6.201L7.96485 6.202ZM12.5798 5C12.4472 5 12.3201 5.05268 12.2263 5.14645C12.1325 5.24021 12.0798 5.36739 12.0798 5.5C12.0798 5.63261 12.1325 5.75979 12.2263 5.85355C12.3201 5.94732 12.4472 6 12.5798 6C13.8438 6 14.8938 6.413 15.7248 7.205C16.1518 7.638 16.4848 8.151 16.7028 8.713C16.9218 9.276 17.0218 9.877 16.9958 10.479C16.9903 10.6116 17.0376 10.741 17.1274 10.8387C17.2173 10.9364 17.3422 10.9944 17.4748 11C17.6075 11.0056 17.7368 10.9582 17.8346 10.8684C17.9323 10.7786 17.9903 10.6536 17.9958 10.521C18.0269 9.78049 17.9039 9.04159 17.6348 8.351C17.3646 7.65714 16.9548 7.02612 16.4308 6.497L16.4208 6.487C15.3898 5.502 14.0858 5 12.5798 5Z" fill="#E5E5E5"/>
<path d="M12.5449 6.64394C12.4123 6.64394 12.2851 6.69662 12.1914 6.79039C12.0976 6.88416 12.0449 7.01134 12.0449 7.14394C12.0449 7.27655 12.0976 7.40373 12.1914 7.4975C12.2851 7.59127 12.4123 7.64394 12.5449 7.64394H12.5619C13.4739 7.70894 14.1379 8.01294 14.6029 8.51194C15.0799 9.02594 15.3269 9.66494 15.3079 10.4549C15.3049 10.5876 15.3546 10.7159 15.4462 10.8119C15.5378 10.9078 15.6638 10.9634 15.7964 10.9664C15.929 10.9695 16.0574 10.9197 16.1533 10.8281C16.2493 10.7365 16.3049 10.6106 16.3079 10.4779C16.3319 9.44094 15.9979 8.54594 15.3359 7.83194V7.82994C14.6589 7.10394 13.7299 6.71994 12.6119 6.64494L12.5949 6.64294L12.5449 6.64394Z" fill="#E5E5E5"/>
<path d="M12.5259 8.31895C12.459 8.31305 12.3915 8.32069 12.3277 8.34141C12.2638 8.36214 12.2047 8.39553 12.154 8.43959C12.1033 8.48365 12.062 8.53747 12.0325 8.59785C12.0031 8.65823 11.9861 8.72392 11.9826 8.791C11.9791 8.85808 11.9892 8.92518 12.0122 8.98829C12.0352 9.0514 12.0707 9.10923 12.1165 9.15832C12.1624 9.20741 12.2177 9.24675 12.2791 9.27401C12.3405 9.30127 12.4067 9.31587 12.4739 9.31695C12.8919 9.33895 13.1589 9.46495 13.3269 9.63395C13.4959 9.80395 13.6219 10.077 13.6449 10.504C13.6461 10.5711 13.6609 10.6372 13.6882 10.6985C13.7156 10.7598 13.755 10.8149 13.8041 10.8606C13.8533 10.9064 13.9111 10.9417 13.9742 10.9646C14.0372 10.9875 14.1043 10.9975 14.1713 10.994C14.2383 10.9904 14.3039 10.9734 14.3642 10.9439C14.4245 10.9145 14.4783 10.8732 14.5223 10.8225C14.5663 10.7718 14.5997 10.7128 14.6204 10.649C14.6411 10.5852 14.6487 10.5178 14.6429 10.451C14.6109 9.85095 14.4229 9.32095 14.0379 8.93095C13.6509 8.54095 13.1239 8.35095 12.5259 8.31895Z" fill="#E5E5E5"/>
<path fill-rule="evenodd" clip-rule="evenodd" d="M7.06681 2.38406C10.2489 1.67276 13.5487 1.67276 16.7308 2.38406L17.0698 2.45906C18 2.66701 18.8543 3.12879 19.5379 3.79308C20.2214 4.45738 20.7074 5.29818 20.9418 6.22206C21.7495 9.40495 21.7495 12.7392 20.9418 15.9221C20.7074 16.8459 20.2214 17.6867 19.5379 18.351C18.8543 19.0153 18 19.4771 17.0698 19.6851L16.7298 19.7601C14.7368 20.2057 12.6918 20.3737 10.6528 20.2591L7.99981 22.6331C7.89979 22.7226 7.77757 22.7837 7.6459 22.8099C7.51423 22.8361 7.37794 22.8265 7.25126 22.782C7.12457 22.7376 7.01214 22.6599 6.9257 22.5572C6.83925 22.4545 6.78196 22.3305 6.75981 22.1981L6.32081 19.5761C5.47899 19.3141 4.71842 18.8407 4.11178 18.2009C3.50514 17.5612 3.07271 16.7766 2.85581 15.9221C2.04806 12.7392 2.04806 9.40494 2.85581 6.22206C3.09023 5.29818 3.57621 4.45738 4.25974 3.79308C4.94328 3.12879 5.79761 2.66701 6.72781 2.45906L7.06681 2.38406ZM16.4038 3.84706C13.4371 3.18386 10.3605 3.18386 7.39381 3.84706L7.05381 3.92306C6.39453 4.07071 5.78908 4.39821 5.30468 4.86919C4.82029 5.34016 4.47592 5.93618 4.30981 6.59106C3.56352 9.53178 3.56352 12.6123 4.30981 15.5531C4.476 16.2081 4.82052 16.8042 5.3051 17.2752C5.78968 17.7461 6.39535 18.0736 7.05481 18.2211L7.14481 18.2411C7.2904 18.2736 7.42298 18.3489 7.52558 18.4572C7.62819 18.5655 7.69616 18.7019 7.72081 18.8491L8.01481 20.6071L9.88681 18.9321C9.96157 18.865 10.049 18.8136 10.144 18.7809C10.239 18.7483 10.3396 18.7351 10.4398 18.7421C12.4389 18.8839 14.4479 18.734 16.4038 18.2971L16.7428 18.2211C17.4023 18.0736 18.0079 17.7461 18.4925 17.2752C18.9771 16.8042 19.3216 16.2081 19.4878 15.5531C20.2338 12.6131 20.2338 9.53206 19.4878 6.59106C19.3216 5.93606 18.9771 5.33995 18.4925 4.86896C18.0079 4.39798 17.4023 4.07055 16.7428 3.92306L16.4038 3.84706Z" fill="#E5E5E5"/>
</svg>
