<svg width="40" height="26" viewBox="0 0 40 26" fill="none" xmlns="http://www.w3.org/2000/svg">
<path fill-rule="evenodd" clip-rule="evenodd" d="M19.7829 25.228C19.6472 25.228 19.5207 25.1918 19.4031 25.1285L18.2006 24.4143C18.0197 24.3148 18.1102 24.2786 18.1644 24.2606C18.4085 24.1792 18.4537 24.1611 18.7069 24.0164C18.734 23.9983 18.7702 24.0074 18.7973 24.0255L19.7196 24.577C19.7557 24.5951 19.8009 24.5951 19.8281 24.577L23.4357 22.4884C23.4718 22.4703 23.4899 22.4342 23.4899 22.3889V18.2208C23.4899 18.1756 23.4718 18.1394 23.4357 18.1213L19.8281 16.0417C19.7919 16.0237 19.7467 16.0237 19.7196 16.0417L16.112 18.1213C16.0758 18.1394 16.0577 18.1846 16.0577 18.2208V22.3889C16.0577 22.4251 16.0758 22.4703 16.112 22.4884L17.0975 23.058C17.631 23.3293 17.9655 23.0128 17.9655 22.6964V18.5824C17.9655 18.5282 18.0107 18.4739 18.074 18.4739H18.5351C18.5894 18.4739 18.6436 18.5191 18.6436 18.5824V22.6964C18.6436 23.4106 18.2548 23.8266 17.5767 23.8266C17.3688 23.8266 17.206 23.8266 16.7449 23.6005L15.7955 23.058C15.5604 22.9224 15.4158 22.6692 15.4158 22.398V18.2298C15.4158 17.9586 15.5604 17.7054 15.7955 17.5698L19.4031 15.4812C19.6292 15.3546 19.9366 15.3546 20.1626 15.4812L23.7702 17.5698C24.0053 17.7054 24.1499 17.9586 24.1499 18.2298V22.398C24.1499 22.6692 24.0053 22.9224 23.7702 23.058L20.1626 25.1466C20.0451 25.2009 19.9094 25.228 19.7829 25.228ZM20.895 22.3618C19.3127 22.3618 18.9872 21.6385 18.9872 21.0237C18.9872 20.9694 19.0324 20.9152 19.0957 20.9152H19.5659C19.6201 20.9152 19.6653 20.9513 19.6653 21.0056C19.7377 21.4848 19.9456 21.7199 20.904 21.7199C21.6635 21.7199 21.989 21.5481 21.989 21.1412C21.989 20.9061 21.8986 20.7343 20.7141 20.6168C19.7286 20.5173 19.1138 20.3003 19.1138 19.5137C19.1138 18.7813 19.7286 18.3474 20.7594 18.3474C21.9167 18.3474 22.4863 18.7452 22.5586 19.6132C22.5586 19.6403 22.5496 19.6674 22.5315 19.6945C22.5134 19.7126 22.4863 19.7307 22.4592 19.7307H21.989C21.9438 19.7307 21.8986 19.6945 21.8896 19.6493C21.7811 19.1521 21.5008 18.9893 20.7594 18.9893C19.9275 18.9893 19.8281 19.2786 19.8281 19.4956C19.8281 19.7578 19.9456 19.8392 21.0668 19.9839C22.1789 20.1285 22.7033 20.3365 22.7033 21.1141C22.6943 21.9097 22.0433 22.3618 20.895 22.3618Z" fill="#E5E5E5"/>
<path fill-rule="evenodd" clip-rule="evenodd" d="M8.58951 8.92606C8.58951 8.76331 8.4991 8.6096 8.35443 8.52823L4.5208 6.32208C4.45751 6.28591 4.38517 6.26783 4.31284 6.25879H4.27667C4.20434 6.25879 4.13201 6.28591 4.06872 6.32208L0.235081 8.52823C0.0904159 8.6096 0 8.76331 0 8.92606L0.00904159 14.8573C0.00904159 14.9387 0.0542496 15.0201 0.126582 15.0563C0.198915 15.1015 0.289331 15.1015 0.352622 15.0563L2.6311 13.7543C2.77577 13.6729 2.86619 13.5192 2.86619 13.3564V10.5807C2.86619 10.4179 2.9566 10.2642 3.10127 10.1828L4.06872 9.62226C4.14105 9.57705 4.22242 9.55897 4.3038 9.55897C4.38517 9.55897 4.46655 9.57705 4.52984 9.62226L5.49729 10.1828C5.64195 10.2642 5.73237 10.4179 5.73237 10.5807V13.3564C5.73237 13.5192 5.82279 13.6729 5.96745 13.7543L8.24593 15.0563C8.31827 15.1015 8.40868 15.1015 8.48101 15.0563C8.55335 15.0201 8.59856 14.9387 8.59856 14.8573L8.58951 8.92606Z" fill="#E5E5E5"/>
<path fill-rule="evenodd" clip-rule="evenodd" d="M27.0161 0.7615C26.9438 0.725333 26.8534 0.725333 26.7901 0.7615C26.7178 0.806708 26.6726 0.87904 26.6726 0.960415V6.83745C26.6726 6.8917 26.6454 6.94595 26.5912 6.98212C26.5369 7.00924 26.4827 7.00924 26.4284 6.98212L25.47 6.43058C25.3254 6.3492 25.1536 6.3492 25.0089 6.43058L21.1753 8.64577C21.0306 8.72714 20.9402 8.88085 20.9402 9.0436V13.4649C20.9402 13.6277 21.0306 13.7814 21.1753 13.8628L25.0089 16.078C25.1536 16.1593 25.3254 16.1593 25.47 16.078L29.3037 13.8628C29.4483 13.7814 29.5387 13.6277 29.5387 13.4649V2.44324C29.5387 2.27145 29.4483 2.11774 29.3037 2.03636L27.0161 0.7615ZM26.6635 12.0092C26.6635 12.0544 26.6454 12.0906 26.6092 12.1087L25.2982 12.8682C25.262 12.8863 25.2168 12.8863 25.1807 12.8682L23.8696 12.1087C23.8335 12.0906 23.8154 12.0454 23.8154 12.0092V10.4902C23.8154 10.445 23.8335 10.4089 23.8696 10.3908L25.1807 9.6313C25.2168 9.61322 25.262 9.61322 25.2982 9.6313L26.6092 10.3908C26.6454 10.4089 26.6635 10.4541 26.6635 10.4902V12.0092Z" fill="#E5E5E5"/>
<path fill-rule="evenodd" clip-rule="evenodd" d="M39.7738 10.4542C39.9185 10.3728 39.9999 10.2191 39.9999 10.0564V8.98044C39.9999 8.81769 39.9095 8.66398 39.7738 8.58261L35.9673 6.37646C35.8227 6.29509 35.6509 6.29509 35.5062 6.37646L31.6726 8.59165C31.5279 8.67302 31.4375 8.82673 31.4375 8.98948V13.4108C31.4375 13.5736 31.5279 13.7273 31.6726 13.8086L35.4791 15.9786C35.6238 16.06 35.7955 16.06 35.9312 15.9786L38.2368 14.6947C38.3091 14.6586 38.3543 14.5772 38.3543 14.4958C38.3543 14.4144 38.3091 14.3331 38.2368 14.2969L34.3851 12.0817C34.3127 12.0365 34.2675 11.9642 34.2675 11.8828V10.4994C34.2675 10.4181 34.3127 10.3367 34.3851 10.3005L35.5876 9.61335C35.6599 9.56814 35.7503 9.56814 35.8227 9.61335L37.0252 10.3005C37.0975 10.3457 37.1427 10.4181 37.1427 10.4994V11.5844C37.1427 11.6658 37.188 11.7472 37.2603 11.7833C37.3326 11.8285 37.423 11.8285 37.4954 11.7833L39.7738 10.4542Z" fill="#E5E5E5"/>
<path fill-rule="evenodd" clip-rule="evenodd" d="M35.678 10.246C35.7051 10.2279 35.7413 10.2279 35.7684 10.246L36.5008 10.6709C36.5279 10.689 36.546 10.7161 36.546 10.7523V11.6022C36.546 11.6384 36.5279 11.6655 36.5008 11.6836L35.7684 12.1086C35.7413 12.1266 35.7051 12.1266 35.678 12.1086L34.9456 11.6836C34.9185 11.6655 34.9004 11.6384 34.9004 11.6022V10.7523C34.9004 10.7161 34.9185 10.689 34.9456 10.6709L35.678 10.246Z" fill="#E5E5E5"/>
<path fill-rule="evenodd" clip-rule="evenodd" d="M15 6.39453C14.8554 6.31315 14.6836 6.31315 14.5389 6.39453L10.7324 8.59163C10.5877 8.67301 10.5063 8.82672 10.5063 8.98946V13.3927C10.5063 13.5555 10.5968 13.7092 10.7324 13.7905L14.5389 15.9877C14.6836 16.069 14.8554 16.069 15 15.9877L18.8065 13.7905C18.9512 13.7092 19.0326 13.5555 19.0326 13.3927V8.98946C19.0326 8.82672 18.9422 8.67301 18.8065 8.59163L15 6.39453Z" fill="#E5E5E5"/>
<path fill-rule="evenodd" clip-rule="evenodd" d="M15 6.39453C14.8554 6.31315 14.6836 6.31315 14.5389 6.39453L10.7324 8.59163C10.5877 8.67301 10.5063 8.82672 10.5063 8.98946V13.3927C10.5063 13.5555 10.5968 13.7092 10.7324 13.7905L14.5389 15.9877C14.6836 16.069 14.8554 16.069 15 15.9877L18.8065 13.7905C18.9512 13.7092 19.0326 13.5555 19.0326 13.3927V8.98946C19.0326 8.82672 18.9422 8.67301 18.8065 8.59163L15 6.39453Z" fill="#E5E5E5"/>
<mask id="mask0_2643_2321" style="mask-type:luminance" maskUnits="userSpaceOnUse" x="10" y="6" width="10" height="11">
<path fill-rule="evenodd" clip-rule="evenodd" d="M15 6.39453C14.8554 6.31315 14.6836 6.31315 14.5389 6.39453L10.7324 8.59163C10.5877 8.67301 10.5063 8.82672 10.5063 8.98946V13.3927C10.5063 13.5555 10.5968 13.7092 10.7324 13.7905L14.5389 15.9877C14.6836 16.069 14.8554 16.069 15 15.9877L18.8065 13.7905C18.9512 13.7092 19.0326 13.5555 19.0326 13.3927V8.98946C19.0326 8.82672 18.9422 8.67301 18.8065 8.59163L15 6.39453Z" fill="white"/>
</mask>
<g mask="url(#mask0_2643_2321)">
<path fill-rule="evenodd" clip-rule="evenodd" d="M18.8157 8.59144L14.9911 6.39433C14.955 6.37625 14.9098 6.35816 14.8736 6.34912L10.5879 13.6909C10.6241 13.7361 10.6693 13.7723 10.7145 13.7994L14.5391 15.9965C14.6476 16.0598 14.7741 16.0779 14.8917 16.0417L18.9152 8.68185C18.8881 8.64569 18.8519 8.61856 18.8157 8.59144Z" fill="#E5E5E5"/>
</g>
<mask id="mask1_2643_2321" style="mask-type:luminance" maskUnits="userSpaceOnUse" x="10" y="6" width="10" height="11">
<path fill-rule="evenodd" clip-rule="evenodd" d="M15 6.39453C14.8554 6.31315 14.6836 6.31315 14.5389 6.39453L10.7324 8.59163C10.5877 8.67301 10.5063 8.82672 10.5063 8.98946V13.3927C10.5063 13.5555 10.5968 13.7092 10.7324 13.7905L14.5389 15.9877C14.6836 16.069 14.8554 16.069 15 15.9877L18.8065 13.7905C18.9512 13.7092 19.0326 13.5555 19.0326 13.3927V8.98946C19.0326 8.82672 18.9422 8.67301 18.8065 8.59163L15 6.39453Z" fill="white"/>
</mask>
<g mask="url(#mask1_2643_2321)">
<path fill-rule="evenodd" clip-rule="evenodd" d="M18.8246 13.7905C18.9331 13.7272 19.0145 13.6187 19.0507 13.5012L14.8554 6.34026C14.7469 6.32218 14.6293 6.33122 14.5299 6.39451L10.7324 8.58257L14.8283 16.0509C14.8825 16.0419 14.9458 16.0238 15.0001 15.9967L18.8246 13.7905Z" fill="#E5E5E5"/>
<path fill-rule="evenodd" clip-rule="evenodd" d="M18.8247 13.7906L15.0092 15.9877C14.9549 16.0148 14.9007 16.0329 14.8374 16.0419L14.9097 16.1775L19.1412 13.7273V13.673L19.0327 13.4922C19.0146 13.6188 18.9332 13.7273 18.8247 13.7906Z" fill="#E5E5E5"/>
<path fill-rule="evenodd" clip-rule="evenodd" d="M18.8247 13.7906L15.0092 15.9877C14.9549 16.0148 14.9007 16.0329 14.8374 16.0419L14.9097 16.1775L19.1412 13.7273V13.673L19.0327 13.4922C19.0146 13.6188 18.9332 13.7273 18.8247 13.7906Z" fill="#E5E5E5"/>
</g>
</svg>
