<svg width="40" height="40" viewBox="0 0 40 40" fill="none" xmlns="http://www.w3.org/2000/svg">
<path d="M11.2723 16.7341C11.2723 17.2263 11.3255 17.6255 11.4186 17.9181C11.5251 18.2108 11.6581 18.5301 11.8444 18.876C11.9109 18.9824 11.9375 19.0888 11.9375 19.182C11.9375 19.315 11.8577 19.448 11.6847 19.5811L10.8466 20.1398C10.7269 20.2196 10.6071 20.2596 10.5007 20.2596C10.3677 20.2596 10.2346 20.193 10.1016 20.0733C9.91533 19.8738 9.75569 19.6609 9.62265 19.448C9.48962 19.2219 9.35658 18.9691 9.21024 18.6631C8.17256 19.8871 6.86881 20.499 5.29899 20.499C4.18149 20.499 3.29015 20.1797 2.63827 19.5412C1.9864 18.9026 1.65381 18.0512 1.65381 16.9869C1.65381 15.8561 2.05292 14.9381 2.86443 14.2463C3.67595 13.5546 4.75354 13.2087 6.12381 13.2087C6.57613 13.2087 7.04176 13.2486 7.53399 13.3151C8.02622 13.3816 8.53176 13.488 9.0639 13.6078V12.6366C9.0639 11.6255 8.85105 10.9204 8.43863 10.508C8.01292 10.0956 7.29453 9.89607 6.27015 9.89607C5.80453 9.89607 5.3256 9.94929 4.83336 10.069C4.34113 10.1888 3.8622 10.3351 3.39658 10.5213C3.18372 10.6145 3.02408 10.6677 2.93095 10.6943C2.83783 10.7209 2.77131 10.7342 2.7181 10.7342C2.53184 10.7342 2.43872 10.6012 2.43872 10.3218V9.66991C2.43872 9.45705 2.46533 9.29741 2.53184 9.20429C2.59836 9.11116 2.71809 9.01804 2.90435 8.92491C3.36997 8.68545 3.92872 8.48589 4.5806 8.32625C5.23247 8.1533 5.92426 8.07348 6.65595 8.07348C8.23908 8.07348 9.39649 8.43268 10.1415 9.15107C10.8732 9.86947 11.2457 10.9604 11.2457 12.4238V16.7341H11.2723ZM5.87104 18.7563C6.31006 18.7563 6.76238 18.6764 7.24131 18.5168C7.72024 18.3571 8.14596 18.0645 8.50515 17.6654C8.71801 17.4126 8.87765 17.1332 8.95747 16.8139C9.0373 16.4946 9.09051 16.1088 9.09051 15.6565V15.0978C8.70471 15.0046 8.2923 14.9248 7.86658 14.8716C7.44087 14.8184 7.02846 14.7918 6.61604 14.7918C5.7247 14.7918 5.07283 14.9647 4.63381 15.3239C4.19479 15.6831 3.98194 16.1887 3.98194 16.8538C3.98194 17.4791 4.14158 17.9447 4.47417 18.264C4.79345 18.5966 5.25908 18.7563 5.87104 18.7563ZM16.5538 20.193C16.3144 20.193 16.1547 20.1531 16.0483 20.06C15.9419 19.9802 15.8487 19.7939 15.7689 19.5412L12.6426 9.2575C12.5627 8.99143 12.5228 8.81848 12.5228 8.72536C12.5228 8.5125 12.6293 8.39277 12.8421 8.39277H14.1459C14.3986 8.39277 14.5716 8.43268 14.6647 8.5258C14.7711 8.60563 14.851 8.79188 14.9308 9.04464L17.1658 17.8516L19.2411 9.04464C19.3077 8.77857 19.3875 8.60563 19.4939 8.5258C19.6003 8.44598 19.7866 8.39277 20.0261 8.39277H21.0903C21.3431 8.39277 21.5161 8.43268 21.6225 8.5258C21.7289 8.60563 21.822 8.79188 21.8753 9.04464L23.9772 17.958L26.2787 9.04464C26.3586 8.77857 26.4517 8.60563 26.5448 8.5258C26.6512 8.44598 26.8242 8.39277 27.0636 8.39277H28.3009C28.5137 8.39277 28.6335 8.4992 28.6335 8.72536C28.6335 8.79188 28.6202 8.85839 28.6069 8.93821C28.5936 9.01804 28.567 9.12446 28.5137 9.2708L25.3076 19.5545C25.2278 19.8205 25.1346 19.9935 25.0282 20.0733C24.9218 20.1531 24.7488 20.2063 24.5227 20.2063H23.3786C23.1258 20.2063 22.9528 20.1664 22.8464 20.0733C22.74 19.9802 22.6469 19.8072 22.5936 19.5412L20.5316 10.9604L18.4828 19.5279C18.4163 19.7939 18.3365 19.9669 18.2301 20.06C18.1236 20.1531 17.9374 20.193 17.6979 20.193H16.5538ZM33.6489 20.5522C32.9571 20.5522 32.2653 20.4724 31.6002 20.3128C30.935 20.1531 30.4162 19.9802 30.0703 19.7806C29.8574 19.6609 29.7111 19.5279 29.6578 19.4081C29.6046 19.2884 29.578 19.1554 29.578 19.0356V18.3571C29.578 18.0778 29.6845 17.9447 29.884 17.9447C29.9638 17.9447 30.0437 17.958 30.1235 17.9846C30.2033 18.0113 30.323 18.0645 30.4561 18.1177C30.9084 18.3172 31.4006 18.4769 31.9195 18.5833C32.4516 18.6897 32.9704 18.743 33.5026 18.743C34.3407 18.743 34.9926 18.5966 35.4449 18.3039C35.8972 18.0113 36.1367 17.5855 36.1367 17.0401C36.1367 16.6676 36.017 16.3616 35.7775 16.1088C35.538 15.8561 35.0857 15.6299 34.4338 15.4171L32.5048 14.8184C31.5337 14.5124 30.8153 14.0601 30.3762 13.4614C29.9372 12.8761 29.7111 12.2242 29.7111 11.5324C29.7111 10.9737 29.8308 10.4814 30.0703 10.0557C30.3097 9.63 30.629 9.2575 31.0281 8.96482C31.4272 8.65884 31.8795 8.43268 32.4117 8.27304C32.9438 8.11339 33.5026 8.04688 34.0879 8.04688C34.3806 8.04688 34.6866 8.06018 34.9793 8.10009C35.2853 8.14 35.5646 8.19321 35.844 8.24643C36.1101 8.31295 36.3629 8.37946 36.6023 8.45929C36.8418 8.53911 37.028 8.61893 37.1611 8.69875C37.3473 8.80518 37.4804 8.91161 37.5602 9.03134C37.64 9.13777 37.6799 9.28411 37.6799 9.47036V10.0956C37.6799 10.375 37.5735 10.5213 37.3739 10.5213C37.2675 10.5213 37.0946 10.4681 36.8684 10.3617C36.1101 10.0158 35.2587 9.84286 34.3141 9.84286C33.5558 9.84286 32.9571 9.96259 32.5447 10.2154C32.1323 10.4681 31.9195 10.8539 31.9195 11.3994C31.9195 11.7719 32.0525 12.0912 32.3186 12.3439C32.5846 12.5967 33.0769 12.8495 33.782 13.0756L35.6711 13.6743C36.6289 13.9803 37.3207 14.406 37.7331 14.9514C38.1455 15.4969 38.3451 16.1221 38.3451 16.8139C38.3451 17.386 38.2254 17.9048 37.9992 18.3571C37.7597 18.8095 37.4404 19.2086 37.028 19.5279C36.6156 19.8605 36.1234 20.0999 35.5513 20.2729C34.9527 20.4591 34.3274 20.5522 33.6489 20.5522Z" fill="#E5E5E5"/>
<path d="M36.1634 27.0176C31.7865 30.2504 25.4274 31.9665 19.9596 31.9665C12.2968 31.9665 5.39221 29.1329 0.177206 24.4234C-0.235205 24.0509 0.137295 23.5454 0.629528 23.8381C6.27025 27.1107 13.228 29.093 20.4253 29.093C25.2811 29.093 30.6158 28.0819 35.5248 26.0065C36.2565 25.6739 36.8818 26.4855 36.1634 27.0176ZM37.986 24.9422C37.4272 24.2239 34.2876 24.5964 32.8641 24.7693C32.4384 24.8225 32.3719 24.45 32.7577 24.1706C35.2587 22.4146 39.3696 22.9201 39.8485 23.5055C40.3274 24.1041 39.7154 28.2149 37.374 30.1839C37.0148 30.4898 36.6689 30.3302 36.8286 29.9311C37.3607 28.614 38.5447 25.6473 37.986 24.9422Z" fill="#E5E5E5"/>
</svg>
