<svg width="40" height="40" viewBox="0 0 40 40" fill="none" xmlns="http://www.w3.org/2000/svg">
<path d="M25.1875 12.594H25.3125L25.25 12.5315L29.625 8.15647V8.06272C25.9375 4.81272 20.8437 3.68772 16.125 5.09397C11.4062 6.50022 7.78125 10.2502 6.46875 15.0002C6.53125 14.969 6.625 14.9377 6.71875 14.9377C8.34375 13.8752 10.2813 13.2502 12.3125 13.2502C13 13.2502 13.6562 13.3127 14.3125 13.4377C14.3437 13.4065 14.375 13.4065 14.4062 13.4065C17.2187 10.3127 21.9687 9.93772 25.2187 12.594H25.1875Z" fill="#E5E5E5"/>
<path d="M33.7812 14.9375C33.0625 12.2812 31.5625 9.875 29.4688 8.03125L25 12.4688C26.875 14 27.9688 16.3125 27.9063 18.7188V19.5C33.1875 19.5 33.1875 27.375 27.9063 27.375H19.9688V33.625H19.9375L19.9688 33.6875H27.9063C32.4688 33.7188 36.5 30.7812 37.8438 26.4687C39.1875 22.1562 37.5312 17.4688 33.7812 14.9375Z" fill="#E5E5E5"/>
<path d="M12.1875 33.7188H20.4063V27.4062H12.1875C11.5938 27.4062 11.0312 27.2812 10.5 27.0625L5.75 31.625V31.6875C7.625 33.0313 9.875 33.75 12.2188 33.75L12.1875 33.7188Z" fill="#E5E5E5"/>
<path d="M12.5625 13.0938C7.90621 13.125 3.78121 16 2.28121 20.2187C0.78121 24.4687 2.28121 29.125 5.96871 31.875L10.8437 27.2187C8.15621 26.0625 7.53121 22.6875 9.59371 20.7187C11.6562 18.7188 15.1562 19.3437 16.375 21.9062L21.25 17.25C19.1875 14.6562 15.9687 13.125 12.5625 13.1562V13.0938Z" fill="#E5E5E5"/>
</svg>
