<svg width="40" height="40" viewBox="0 0 40 40" fill="none" xmlns="http://www.w3.org/2000/svg">
<path d="M13.3857 27.6665H19.0518V33.3335C19.0516 36.461 16.5132 38.9993 13.3857 38.9995C10.2581 38.9995 7.71893 36.4611 7.71875 33.3335C7.71875 30.2058 10.258 27.6665 13.3857 27.6665Z" stroke="#E5E5E5" stroke-width="2"/>
<path d="M13.3857 14.3335H19.0518V25.6665H13.3857C10.2581 25.6665 7.71893 23.1281 7.71875 20.0005C7.71875 16.8728 10.258 14.3335 13.3857 14.3335Z" stroke="#E5E5E5" stroke-width="2"/>
<path d="M13.3857 1H19.0518V12.333H13.3857C10.2581 12.333 7.71893 9.79456 7.71875 6.66699C7.71875 3.53928 10.258 1 13.3857 1Z" stroke="#E5E5E5" stroke-width="2"/>
<path d="M26.719 1C29.8466 1.00018 32.385 3.53939 32.385 6.66699C32.3848 9.79445 29.8465 12.3328 26.719 12.333H21.052V1H26.719Z" stroke="#E5E5E5" stroke-width="2"/>
<path d="M26.719 14.3335C29.8466 14.3337 32.385 16.8729 32.385 20.0005C32.3848 23.1279 29.8465 25.6663 26.719 25.6665C23.5914 25.6665 21.0522 23.1281 21.052 20.0005C21.052 16.8728 23.5913 14.3335 26.719 14.3335Z" stroke="#E5E5E5" stroke-width="2"/>
</svg>
