<svg width="40" height="40" viewBox="0 0 40 40" fill="none" xmlns="http://www.w3.org/2000/svg">
<g clip-path="url(#clip0_2141_18461)">
<g clip-path="url(#clip1_2141_18461)">
<path d="M35.5481 0H4.45186C2.00334 0 0 2 0 4.44444V35.5556C0 38 2.00334 40 4.45186 40H35.5481C37.9967 40 40 38 40 35.5556V4.44444C40 3.2657 39.531 2.13524 38.6961 1.30175C37.8612 0.468252 36.7288 0 35.5481 0ZM32.0089 31.0667C31.9421 31.0889 31.8531 31.1111 31.7863 31.1111H26.7557C26.5379 31.1148 26.3239 31.0533 26.1414 30.9344C25.9589 30.8156 25.8162 30.645 25.7318 30.4444L20.256 17.6889C20.2115 17.5556 20.0779 17.4889 19.9666 17.5333C19.9311 17.5467 19.8988 17.5675 19.8719 17.5943C19.845 17.6211 19.8242 17.6534 19.8108 17.6889L16.4051 25.8C16.3383 25.9556 16.4051 26.1111 16.5609 26.1778C16.6055 26.2 16.6277 26.2 16.6722 26.2H20.4118C20.6344 26.2 20.857 26.3333 20.946 26.5556L22.5932 30.2C22.749 30.5333 22.571 30.9333 22.2371 31.0889C22.1035 31.0889 22.0145 31.1111 21.9254 31.1111H8.30273C7.96884 31.1111 7.67947 30.8222 7.67947 30.4889C7.67947 30.4 7.70172 30.3333 7.72398 30.2444L16.4051 9.62222C16.5832 9.17778 17.0284 8.88889 17.4958 8.88889H22.5042C22.9939 8.88889 23.4168 9.17778 23.5949 9.62222L32.3205 30.2444C32.4763 30.5556 32.3428 30.9333 32.0089 31.0667Z" fill="#E5E5E5"/>
</g>
</g>
<defs>
<clipPath id="clip0_2141_18461">
<rect width="40" height="40" fill="white"/>
</clipPath>
<clipPath id="clip1_2141_18461">
<rect width="40" height="40" fill="white"/>
</clipPath>
</defs>
</svg>
