<svg width="40" height="40" viewBox="0 0 40 40" fill="none" xmlns="http://www.w3.org/2000/svg">
<path d="M14.8803 30.6627C8.88277 32.3383 18.5293 35.7998 26.1662 32.528C24.9153 32.0417 24.0181 31.4808 24.0181 31.4808C20.6128 32.1245 19.0331 32.1752 15.9418 31.822C13.3906 31.5298 14.8803 30.6627 14.8803 30.6627ZM25.2518 27.3939C20.7381 28.2623 18.1309 28.2345 14.8287 27.8939C12.2753 27.6298 13.9468 26.3923 13.9468 26.3923C7.34152 28.5848 17.624 31.0727 26.8559 28.3723C25.8746 28.0267 25.2518 27.3939 25.2518 27.3939ZM28.789 8.46422C28.7893 8.46422 15.4356 11.7983 21.8131 19.1477C23.6956 21.3148 21.3193 23.2633 21.3193 23.2633C21.3193 23.2633 26.0971 20.7973 23.9034 17.708C21.8537 14.8283 20.2825 13.3977 28.789 8.46422ZM31.9134 33.8217C31.9134 33.8217 33.0162 34.7311 30.6984 35.4339C26.2915 36.7689 12.3528 37.1714 8.48121 35.4873C7.09058 34.8817 9.69965 34.042 10.5206 33.8648C11.3765 33.6795 11.8653 33.7133 11.8653 33.7133C10.3178 32.6236 1.86121 35.8539 7.5709 36.7805C23.14 39.3042 35.9512 35.6439 31.9134 33.8217ZM26.5625 24.3427C27.3109 23.832 28.3446 23.3886 28.3446 23.3886C28.3446 23.3886 25.3996 23.9152 22.4656 24.1617C18.8737 24.463 15.0209 24.5223 13.0868 24.2636C8.50808 23.6514 15.5971 21.9673 15.5971 21.9673C15.5971 21.9673 12.8434 21.7811 9.4584 23.4186C5.45465 25.3545 19.3618 26.237 26.5625 24.3427ZM28.3153 29.0755C28.2815 29.1661 28.169 29.268 28.169 29.268C37.9418 26.6989 34.3487 20.212 29.6759 21.8539C29.2659 21.9989 29.0509 22.3361 29.0509 22.3361C29.0509 22.3361 29.31 22.2317 29.8878 22.1111C32.25 21.6189 35.6343 25.2733 28.3153 29.0755ZM20.0565 21.8967C18.6146 18.6377 13.7253 15.7864 20.0587 10.7845C27.9559 4.55109 23.9037 0.496094 23.9037 0.496094C25.5381 6.93609 18.1378 8.88141 15.4665 12.892C13.6475 15.6248 16.3593 18.5614 20.0565 21.8967ZM28.5796 38.068C22.5837 39.1967 15.1878 39.0652 10.8025 38.3411C10.8025 38.3411 11.7006 39.0848 16.3168 39.382C23.3406 39.8311 34.1293 39.132 34.3843 35.8083C34.3846 35.8083 33.8937 37.0683 28.5796 38.068Z" fill="#E5E5E5"/>
</svg>
