<svg width="40" height="40" viewBox="0 0 40 40" fill="none" xmlns="http://www.w3.org/2000/svg">
<path d="M36.6666 12.6051V11.6401C36.6666 10.8901 36.6133 10.1934 36.4516 9.44339C36.3983 8.69339 36.0766 7.99672 35.7549 7.40672C35.0583 6.12005 34.0399 4.99505 32.6466 4.29839C31.9499 3.97672 31.3083 3.70839 30.5566 3.60172C29.8066 3.54839 29.1099 3.38672 28.3599 3.38672H11.1583C10.5683 3.38672 10.0849 3.44005 9.49659 3.54839C8.94318 3.61575 8.40186 3.75991 7.88825 3.97672C7.72825 4.03005 7.51325 4.13672 7.35325 4.19172C6.88563 4.50207 6.43808 4.84163 6.01325 5.20839C5.85159 5.26339 5.74492 5.42505 5.52992 5.58505C5.02673 6.09599 4.59452 6.67226 4.24492 7.29839C3.92325 7.99672 3.65492 8.63839 3.54825 9.39005C3.43992 10.1401 3.38659 10.8367 3.33325 11.5867V28.3067C3.33325 29.0567 3.38659 29.7534 3.54825 30.5034C3.60159 31.2534 3.92325 31.9517 4.24492 32.5934C4.94159 33.9334 5.95992 35.0051 7.35325 35.7017C8.04992 36.0234 8.69159 36.2917 9.44325 36.3984C10.1933 36.4534 10.8899 36.6134 11.6399 36.6134H28.3616C29.1116 36.6134 29.8066 36.5601 30.5566 36.3984C31.3066 36.3451 32.0049 36.0234 32.6466 35.7017C33.9333 35.0051 35.0583 33.9867 35.7549 32.5934C36.0766 31.8967 36.3449 31.2551 36.4516 30.5034C36.5599 29.7534 36.6666 29.0567 36.6666 28.3067V12.6051ZM31.4683 30.4501C29.9683 27.6101 27.2349 28.2534 25.8416 29.0034C25.7311 29.0978 25.6039 29.1707 25.4666 29.2184H25.3583C22.5183 30.8251 18.4999 30.8784 14.5866 29.1651C11.3962 27.7411 8.69436 25.4113 6.81659 22.4651C7.71629 23.1693 8.7083 23.7469 9.76492 24.1817C13.9983 26.1634 18.1249 26.0017 21.1249 24.1817C16.8916 20.9651 13.4616 16.7317 10.6749 13.3551C10.1488 12.7651 9.6654 12.1386 9.22825 11.4801C12.4449 14.4267 17.5883 18.1784 19.4116 19.1434C15.4983 15.0701 12.1216 9.92672 12.2283 10.1934C18.3383 16.3567 23.9649 19.8934 23.9649 19.8934C24.1799 19.9467 24.3416 20.1067 24.5016 20.2151C24.5549 19.8934 24.7166 19.6251 24.8233 19.3034C25.7883 15.7667 24.7699 11.6401 22.2516 8.31672C27.9849 11.6934 31.3083 18.1784 29.9149 23.6984C29.8599 23.7517 29.8599 23.9117 29.8599 24.0734C32.5933 27.3417 31.8433 31.0934 31.4683 30.4501Z" fill="#E5E5E5"/>
</svg>
