<svg width="32" height="32" viewBox="0 0 32 32" fill="none" xmlns="http://www.w3.org/2000/svg">
<path fill-rule="evenodd" clip-rule="evenodd" d="M13.025 6L16.025 2L19.025 6H17.025V10H15.025V6H13.025ZM14.4062 17.175L16.6667 17.2L17.575 17.2125C18.1063 17.3125 18.5 17.5937 18.8188 18.0375C19.15 18.4875 19.3938 19.1062 19.5688 19.8125C19.8875 21.1125 19.9563 22.7 19.9625 24.0812H18.2563L17.8063 30.2062H14.075L13.6813 24.0812H12.0625C12.0625 22.6812 12.0688 21.075 12.3625 19.7687C12.5125 19.05 12.7562 18.4375 13.0875 17.9937C13.4188 17.55 13.8187 17.2687 14.4062 17.175Z" fill="#1FC1FF"/>
<path d="M18.3333 14.3333C18.3333 15.622 17.2887 16.6667 16 16.6667C14.7113 16.6667 13.6667 15.622 13.6667 14.3333C13.6667 13.0447 14.7113 12 16 12C17.2887 12 18.3333 13.0447 18.3333 14.3333Z" fill="#1FC1FF"/>
<path fill-rule="evenodd" clip-rule="evenodd" d="M3.62913 6L6.62913 2L9.62913 6H7.62913V10H5.62913V6H3.62913ZM5.01038 17.175L7.27087 17.2L8.17913 17.2125C8.71038 17.3125 9.10413 17.5937 9.42288 18.0375C9.75413 18.4875 9.99788 19.1062 10.1729 19.8125C10.4916 21.1125 10.5604 22.7 10.5666 24.0812H8.86038L8.41038 30.2062H4.67913L4.28538 24.0812H2.66663C2.66663 22.6812 2.67288 21.075 2.96663 19.7687C3.11663 19.05 3.36038 18.4375 3.69163 17.9937C4.02288 17.55 4.42288 17.2687 5.01038 17.175Z" fill="#1FC1FF"/>
<path d="M8.93746 14.3333C8.93746 15.622 7.89279 16.6667 6.60413 16.6667C5.31546 16.6667 4.27079 15.622 4.27079 14.3333C4.27079 13.0447 5.31546 12 6.60413 12C7.89279 12 8.93746 13.0447 8.93746 14.3333Z" fill="#1FC1FF"/>
<path fill-rule="evenodd" clip-rule="evenodd" d="M22.2959 6L25.2959 2L28.2959 6H26.2959V10H24.2959V6H22.2959ZM23.6771 17.175L25.9376 17.2L26.8459 17.2125C27.3771 17.3125 27.7709 17.5937 28.0896 18.0375C28.4209 18.4875 28.6646 19.1062 28.8396 19.8125C29.1584 21.1125 29.2271 22.7 29.2334 24.0812H27.5271L27.0771 30.2062H23.3459L22.9521 24.0812H21.3334C21.3334 22.6812 21.3396 21.075 21.6334 19.7687C21.7834 19.05 22.0271 18.4375 22.3584 17.9937C22.6896 17.55 23.0896 17.2687 23.6771 17.175Z" fill="#1FC1FF"/>
<path d="M27.6042 14.3333C27.6042 15.622 26.5595 16.6667 25.2709 16.6667C23.9822 16.6667 22.9375 15.622 22.9375 14.3333C22.9375 13.0447 23.9822 12 25.2709 12C26.5595 12 27.6042 13.0447 27.6042 14.3333Z" fill="#1FC1FF"/>
</svg>
