<svg width="32" height="32" viewBox="0 0 32 32" fill="none" xmlns="http://www.w3.org/2000/svg">
<path d="M29.3333 18.0002V28.0002C29.3333 28.3538 29.1929 28.6929 28.9428 28.943C28.6928 29.193 28.3536 29.3335 28 29.3335H26.6667C26.313 29.3335 25.9739 29.193 25.7239 28.943C25.4738 28.6929 25.3333 28.3538 25.3333 28.0002V26.6668H6.66667V28.0002C6.66667 28.3538 6.52619 28.6929 6.27614 28.943C6.02609 29.193 5.68696 29.3335 5.33333 29.3335H4C3.64638 29.3335 3.30724 29.193 3.05719 28.943C2.80714 28.6929 2.66667 28.3538 2.66667 28.0002V18.0002L1.00933 17.5868C0.721005 17.5146 0.465078 17.3481 0.282207 17.1138C0.0993362 16.8794 7.81391e-06 16.5907 0 16.2935L0 15.3335C0 15.1567 0.0702379 14.9871 0.195262 14.8621C0.320286 14.7371 0.489856 14.6668 0.666667 14.6668H3.16667L6.01733 7.06416C6.20791 6.55575 6.54914 6.11763 6.99541 5.80837C7.44167 5.4991 7.97171 5.33343 8.51467 5.3335H23.4853C24.0283 5.33343 24.5583 5.4991 25.0046 5.80837C25.4509 6.11763 25.7921 6.55575 25.9827 7.06416L28.8333 14.6668H31.3333C31.5101 14.6668 31.6797 14.7371 31.8047 14.8621C31.9298 14.9871 32 15.1567 32 15.3335V16.2935C32 16.5907 31.9007 16.8794 31.7178 17.1138C31.5349 17.3481 31.279 17.5146 30.9907 17.5868L29.3333 18.0002ZM5.33333 20.0002V22.6668C5.33333 23.0205 5.47381 23.3596 5.72386 23.6096C5.97391 23.8597 6.31305 24.0002 6.66667 24.0002H10.9933C11.1085 24 11.2216 23.97 11.3217 23.9131C11.4218 23.8562 11.5054 23.7744 11.5645 23.6756C11.6236 23.5768 11.656 23.4643 11.6587 23.3492C11.6615 23.2342 11.6343 23.1203 11.58 23.0188C10.5067 21.0055 8.424 20.0002 5.33333 20.0002ZM26.6667 20.0002C23.5773 20.0002 21.4947 21.0068 20.4187 23.0188C20.3643 23.1204 20.3371 23.2344 20.3399 23.3496C20.3427 23.4648 20.3753 23.5773 20.4345 23.6762C20.4938 23.775 20.5776 23.8568 20.6779 23.9136C20.7781 23.9704 20.8914 24.0002 21.0067 24.0002H25.3333C25.687 24.0002 26.0261 23.8597 26.2761 23.6096C26.5262 23.3596 26.6667 23.0205 26.6667 22.6668V20.0002ZM8 8.00016L5.91867 14.2455C5.85194 14.4458 5.83375 14.6592 5.86559 14.8679C5.89744 15.0766 5.9784 15.2748 6.10182 15.4462C6.22524 15.6175 6.38759 15.7571 6.5755 15.8534C6.76341 15.9497 6.97151 16 7.18267 16.0002H24.8173C25.0285 16 25.2366 15.9497 25.4245 15.8534C25.6124 15.7571 25.7748 15.6175 25.8982 15.4462C26.0216 15.2748 26.1026 15.0766 26.1344 14.8679C26.1663 14.6592 26.1481 14.4458 26.0813 14.2455L24 8.00016H8Z" fill="#1FC1FF"/>
</svg>
