<svg width="32" height="32" viewBox="0 0 32 32" fill="none" xmlns="http://www.w3.org/2000/svg">
<path d="M20 13.3333V28H3.99996C3.64634 28 3.3072 27.8595 3.05715 27.6095C2.8071 27.3594 2.66663 27.0203 2.66663 26.6667V13.3333H20ZM29.3333 13.3333V26.6667C29.3333 27.0203 29.1928 27.3594 28.9428 27.6095C28.6927 27.8595 28.3536 28 28 28H22.6666V13.3333H29.3333ZM28 4C28.3536 4 28.6927 4.14048 28.9428 4.39052C29.1928 4.64057 29.3333 4.97971 29.3333 5.33333V10.6667H2.66663V5.33333C2.66663 4.97971 2.8071 4.64057 3.05715 4.39052C3.3072 4.14048 3.64634 4 3.99996 4H28Z" fill="#1FC1FF"/>
</svg>
