<svg width="32" height="32" viewBox="0 0 32 32" fill="none" xmlns="http://www.w3.org/2000/svg">
<path d="M6.66667 17.3333V29.3333H4V17.3333H6.66667ZM30.6667 17.3333V20H28V29.3333H25.3333V20H22.6667V17.3333H30.6667ZM16 14.6667C17.8682 14.6768 19.6965 15.2073 21.28 16.1987L23.2093 14.2653C21.0927 12.7943 18.5776 12.004 16 12C13.4569 12.0047 10.976 12.7863 8.88933 14.24L10.8213 16.1773C12.3725 15.1999 14.1665 14.6766 16 14.6667Z" fill="#1FC1FF"/>
<path d="M16 9.33317C19.283 9.34055 22.477 10.4015 25.112 12.3598L27.0147 10.4532C23.8652 8.00331 19.9901 6.6711 16 6.6665C12.0444 6.67122 8.20348 7.99533 5.08533 10.4292L6.98666 12.3358C9.59046 10.3925 12.751 9.33966 16 9.33317Z" fill="#1FC1FF"/>
<path d="M16 4.00014C20.6975 4.00076 25.254 5.60474 28.916 8.54681L30.8187 6.64147C26.6611 3.21396 21.4417 1.33764 16.0534 1.3335C10.6652 1.32937 5.44288 3.19768 1.28003 6.61881L3.1827 8.52414C6.81396 5.59814 11.3366 4.00183 16 4.00014ZM16 17.3335C14.8133 17.3335 13.6533 17.6854 12.6666 18.3447C11.6799 19.0039 10.9109 19.941 10.4568 21.0374C10.0026 22.1337 9.88381 23.3401 10.1153 24.504C10.3468 25.6679 10.9183 26.737 11.7574 27.5761C12.5965 28.4152 13.6656 28.9867 14.8295 29.2182C15.9934 29.4497 17.1998 29.3309 18.2961 28.8768C19.3925 28.4226 20.3296 27.6536 20.9888 26.6669C21.6481 25.6802 22 24.5202 22 23.3335C22 21.7422 21.3679 20.2161 20.2427 19.0908C19.1175 17.9656 17.5913 17.3335 16 17.3335ZM16 26.6668C15.3408 26.6668 14.6963 26.4713 14.1481 26.105C13.6 25.7388 13.1727 25.2182 12.9204 24.6091C12.6681 24 12.6021 23.3298 12.7307 22.6832C12.8594 22.0366 13.1768 21.4426 13.643 20.9764C14.1092 20.5103 14.7031 20.1928 15.3497 20.0642C15.9963 19.9356 16.6666 20.0016 17.2756 20.2539C17.8847 20.5062 18.4053 20.9334 18.7716 21.4816C19.1379 22.0297 19.3334 22.6742 19.3334 23.3335C19.3334 24.2175 18.9822 25.0654 18.357 25.6905C17.7319 26.3156 16.8841 26.6668 16 26.6668Z" fill="#1FC1FF"/>
</svg>
