<svg width="32" height="32" viewBox="0 0 32 32" fill="none" xmlns="http://www.w3.org/2000/svg">
<g clip-path="url(#clip0_2643_385)">
<path d="M17.3333 28V30.6667H14.6666V28H3.99996C3.64634 28 3.3072 27.8595 3.05715 27.6095C2.8071 27.3594 2.66663 27.0203 2.66663 26.6667V8H29.3333V26.6667C29.3333 27.0203 29.1928 27.3594 28.9428 27.6095C28.6927 27.8595 28.3536 28 28 28H17.3333ZM10.6666 13.3333C9.8755 13.3333 9.10214 13.5679 8.44434 14.0075C7.78655 14.447 7.27386 15.0717 6.97111 15.8026C6.66836 16.5335 6.58914 17.3378 6.74349 18.1137C6.89783 18.8896 7.27879 19.6024 7.8382 20.1618C8.39761 20.7212 9.11034 21.1021 9.88626 21.2565C10.6622 21.4108 11.4665 21.3316 12.1974 21.0289C12.9283 20.7261 13.553 20.2134 13.9925 19.5556C14.432 18.8978 14.6666 18.1245 14.6666 17.3333H10.6666V13.3333ZM17.3333 13.3333V16H25.3333V13.3333H17.3333ZM17.3333 18.6667V21.3333H25.3333V18.6667H17.3333ZM2.66663 4H29.3333V6.66667H2.66663V4Z" fill="#1FC1FF"/>
</g>
<defs>
<clipPath id="clip0_2643_385">
<rect width="32" height="32" fill="white"/>
</clipPath>
</defs>
</svg>
