<svg width="32" height="32" viewBox="0 0 32 32" fill="none" xmlns="http://www.w3.org/2000/svg">
<path d="M5.33328 8.55211L1.00928 4.22944L2.89594 2.34277L7.21861 6.66677H27.5413C27.7491 6.66676 27.9541 6.71533 28.1398 6.8086C28.3255 6.90187 28.4868 7.03726 28.6109 7.20397C28.735 7.37068 28.8184 7.56408 28.8545 7.76876C28.8905 7.97343 28.8783 8.18369 28.8186 8.38277L25.6186 19.0494C25.5363 19.3242 25.3675 19.5651 25.1374 19.7364C24.9073 19.9076 24.6281 20.0001 24.3413 20.0001H7.99994V22.6668H22.6666V25.3334H6.66661C6.31299 25.3334 5.97385 25.193 5.7238 24.9429C5.47375 24.6929 5.33328 24.3537 5.33328 24.0001V8.55211ZM7.33328 30.6668C6.80284 30.6668 6.29414 30.4561 5.91906 30.081C5.54399 29.7059 5.33328 29.1972 5.33328 28.6668C5.33328 28.1363 5.54399 27.6276 5.91906 27.2526C6.29414 26.8775 6.80284 26.6668 7.33328 26.6668C7.86371 26.6668 8.37242 26.8775 8.74749 27.2526C9.12256 27.6276 9.33328 28.1363 9.33328 28.6668C9.33328 29.1972 9.12256 29.7059 8.74749 30.081C8.37242 30.4561 7.86371 30.6668 7.33328 30.6668ZM23.3333 30.6668C22.8028 30.6668 22.2941 30.4561 21.9191 30.081C21.544 29.7059 21.3333 29.1972 21.3333 28.6668C21.3333 28.1363 21.544 27.6276 21.9191 27.2526C22.2941 26.8775 22.8028 26.6668 23.3333 26.6668C23.8637 26.6668 24.3724 26.8775 24.7475 27.2526C25.1226 27.6276 25.3333 28.1363 25.3333 28.6668C25.3333 29.1972 25.1226 29.7059 24.7475 30.081C24.3724 30.4561 23.8637 30.6668 23.3333 30.6668Z" fill="#1FC1FF"/>
</svg>
