<svg width="25" height="30" viewBox="0 0 25 30" fill="none" xmlns="http://www.w3.org/2000/svg">
<path d="M12.4986 8.6293C11.3306 8.6293 9.52263 7.3013 7.61863 7.3493C5.10663 7.3813 2.80263 8.8053 1.50663 11.0613C-1.10137 15.5893 0.834627 22.2773 3.37863 25.9573C4.62663 27.7493 6.09863 29.7653 8.05063 29.7013C9.92263 29.6213 10.6266 28.4853 12.8986 28.4853C15.1546 28.4853 15.7946 29.7013 17.7786 29.6533C19.7946 29.6213 21.0746 27.8293 22.3066 26.0213C23.7306 23.9413 24.3226 21.9253 24.3546 21.8133C24.3066 21.7973 20.4346 20.3093 20.3866 15.8293C20.3546 12.0853 23.4426 10.2933 23.5866 10.2133C21.8266 7.6373 19.1226 7.3493 18.1786 7.2853C15.7146 7.0933 13.6506 8.6293 12.4986 8.6293ZM16.6586 4.8533C17.6986 3.6053 18.3866 1.8613 18.1946 0.133301C16.7066 0.197301 14.9146 1.1253 13.8426 2.3733C12.8826 3.4773 12.0506 5.2533 12.2746 6.9493C13.9226 7.0773 15.6186 6.1013 16.6586 4.8533Z" fill="#1FC1FF"/>
</svg>
