<svg width="32" height="32" viewBox="0 0 32 32" fill="none" xmlns="http://www.w3.org/2000/svg">
<path d="M28 10.6669C28.7073 10.6669 29.3856 10.9478 29.8857 11.4479C30.3858 11.948 30.6667 12.6263 30.6667 13.3335V18.6669C30.6667 19.3741 30.3858 20.0524 29.8857 20.5525C29.3856 21.0526 28.7073 21.3335 28 21.3335H26.584C26.259 23.9113 25.0044 26.2818 23.0557 28.0002C21.107 29.7186 18.5982 30.6668 16 30.6669V28.0002C18.1218 28.0002 20.1566 27.1573 21.6569 25.657C23.1572 24.1568 24 22.1219 24 20.0002V12.0002C24 9.87846 23.1572 7.84363 21.6569 6.34334C20.1566 4.84305 18.1218 4.00019 16 4.00019C13.8783 4.00019 11.8435 4.84305 10.3432 6.34334C8.8429 7.84363 8.00004 9.87846 8.00004 12.0002V21.3335H4.00004C3.2928 21.3335 2.61452 21.0526 2.11442 20.5525C1.61433 20.0524 1.33337 19.3741 1.33337 18.6669V13.3335C1.33337 12.6263 1.61433 11.948 2.11442 11.4479C2.61452 10.9478 3.2928 10.6669 4.00004 10.6669H5.41604C5.74142 8.08939 6.99615 5.71922 8.9448 4.00109C10.8935 2.28296 13.4021 1.33496 16 1.33496C18.598 1.33496 21.1066 2.28296 23.0553 4.00109C25.0039 5.71922 26.2587 8.08939 26.584 10.6669H28ZM10.3467 21.0469L11.76 18.7855C13.0308 19.5816 14.5005 20.0026 16 20.0002C17.4996 20.0026 18.9693 19.5816 20.24 18.7855L21.6534 21.0469C19.9591 22.1084 17.9994 22.6699 16 22.6669C14.0007 22.6699 12.041 22.1084 10.3467 21.0469Z" fill="#1FC1FF"/>
</svg>
