<svg width="32" height="32" viewBox="0 0 32 32" fill="none" xmlns="http://www.w3.org/2000/svg">
<path d="M18.6667 2.66651C21.1067 2.66534 23.4733 3.50073 25.3718 5.03334C27.2704 6.56595 28.5861 8.70314 29.0996 11.0885C29.6131 13.4738 29.2932 15.963 28.1934 18.1411C27.0936 20.3191 25.2804 22.0543 23.056 23.0572C22.345 24.629 21.2634 26.005 19.9039 27.0671C18.5443 28.1291 16.9474 28.8456 15.2502 29.155C13.553 29.4643 11.806 29.3574 10.1592 28.8434C8.51234 28.3294 7.01475 27.4236 5.79485 26.2037C4.57495 24.9838 3.66914 23.4862 3.15512 21.8394C2.6411 20.1925 2.53419 18.4456 2.84358 16.7483C3.15297 15.0511 3.86941 13.4542 4.93146 12.0947C5.99352 10.7351 7.36949 9.6535 8.94137 8.9425C9.78689 7.07169 11.1542 5.48451 12.8792 4.37131C14.6042 3.25812 16.6137 2.66619 18.6667 2.66651ZM14.6667 11.9998H12V13.3332C11.1335 13.3311 10.3002 13.6665 9.67681 14.2683C9.05339 14.8701 8.68882 15.6911 8.66039 16.5571C8.63195 17.4232 8.94188 18.2662 9.52449 18.9077C10.1071 19.5491 10.9166 19.9384 11.7814 19.9932L12 19.9998H14.6667L14.7867 20.0105C14.9404 20.0383 15.0795 20.1193 15.1796 20.2392C15.2797 20.359 15.3346 20.5103 15.3346 20.6665C15.3346 20.8227 15.2797 20.974 15.1796 21.0939C15.0795 21.2137 14.9404 21.2947 14.7867 21.3225L14.6667 21.3332H9.33337V23.9998H12V25.3332H14.6667V23.9998C15.5332 24.0019 16.3665 23.6665 16.9899 23.0647C17.6133 22.4629 17.9779 21.6419 18.0063 20.7759C18.0348 19.9098 17.7249 19.0668 17.1422 18.4253C16.5596 17.7839 15.7502 17.3946 14.8854 17.3398L14.6667 17.3332H12L11.88 17.3225C11.7263 17.2947 11.5873 17.2137 11.4871 17.0939C11.387 16.974 11.3321 16.8227 11.3321 16.6665C11.3321 16.5103 11.387 16.359 11.4871 16.2392C11.5873 16.1193 11.7263 16.0383 11.88 16.0105L12 15.9998H17.3334V13.3332H14.6667V11.9998ZM18.6667 5.33317C17.5369 5.33185 16.4198 5.57043 15.3891 6.03312C14.3585 6.49581 13.4378 7.17208 12.688 8.01717C14.1951 7.92569 15.7043 8.15516 17.116 8.69043C18.5278 9.2257 19.8098 10.0546 20.8773 11.1222C21.9448 12.1899 22.7735 13.472 23.3086 14.8837C23.8437 16.2955 24.073 17.8048 23.9814 19.3118C25.1937 18.234 26.0496 16.8131 26.4358 15.2376C26.8219 13.6621 26.72 12.0064 26.1435 10.4901C25.5671 8.97388 24.5433 7.66869 23.2079 6.74768C21.8726 5.82667 20.2888 5.33336 18.6667 5.33317Z" fill="#1FC1FF"/>
</svg>
