<svg width="32" height="32" viewBox="0 0 32 32" fill="none" xmlns="http://www.w3.org/2000/svg">
<path d="M18.6666 7.99984H21.3333V10.6665H28C28.3536 10.6665 28.6927 10.807 28.9428 11.057C29.1928 11.3071 29.3333 11.6462 29.3333 11.9998V21.9998L21.3333 17.3332L21.3813 28.0825L24.3453 25.2158L26.7213 29.3332H12C11.6463 29.3332 11.3072 29.1927 11.0572 28.9426C10.8071 28.6926 10.6666 28.3535 10.6666 27.9998V21.3332H7.99996V18.6665H10.6666V11.9998C10.6666 11.6462 10.8071 11.3071 11.0572 11.057C11.3072 10.807 11.6463 10.6665 12 10.6665H18.6666V7.99984ZM29.3333 23.1172V27.9998C29.3334 28.1388 29.3118 28.2769 29.2693 28.4092L26.656 23.8838L29.3333 23.1172ZM5.33329 18.6665V21.3332H2.66663V18.6665H5.33329ZM5.33329 13.3332V15.9998H2.66663V13.3332H5.33329ZM5.33329 7.99984V10.6665H2.66663V7.99984H5.33329ZM5.33329 2.6665V5.33317H2.66663V2.6665H5.33329ZM10.6666 2.6665V5.33317H7.99996V2.6665H10.6666ZM16 2.6665V5.33317H13.3333V2.6665H16ZM21.3333 2.6665V5.33317H18.6666V2.6665H21.3333Z" fill="#1FC1FF"/>
</svg>
