<svg width="32" height="32" viewBox="0 0 32 32" fill="none" xmlns="http://www.w3.org/2000/svg">
<g clip-path="url(#clip0_2643_2805)">
<path d="M8.07463 11.0665C8.15963 10.9309 8.24811 10.7975 8.33996 10.6665H23.66C23.752 10.7972 23.84 10.9318 23.9253 11.0665L26.6186 9.51184L27.952 11.8212L25.0013 13.5252C25.2173 14.3118 25.3333 15.1425 25.3333 15.9998V17.3332H29.3333V19.9998H25.3333C25.3333 21.2705 25.08 22.4825 24.6186 23.5865L27.952 25.5118L26.6186 27.8212L23.2506 25.8772C21.7722 27.7032 19.6588 28.9037 17.3333 29.2385V18.6665H14.6666V29.2398C12.3409 28.9047 10.2275 27.7037 8.74929 25.8772L5.38129 27.8212L4.04796 25.5118L7.38129 23.5878C6.90799 22.4509 6.66508 21.2313 6.66663 19.9998H2.66663V17.3332H6.66663V15.9998C6.66663 15.1425 6.78263 14.3132 6.99863 13.5252L4.04796 11.8212L5.38129 9.51184L8.07463 11.0665ZM10.6666 7.99984C10.6666 6.58535 11.2285 5.2288 12.2287 4.2286C13.2289 3.22841 14.5855 2.6665 16 2.6665C17.4144 2.6665 18.771 3.22841 19.7712 4.2286C20.7714 5.2288 21.3333 6.58535 21.3333 7.99984H10.6666Z" fill="#1FC1FF"/>
</g>
<defs>
<clipPath id="clip0_2643_2805">
<rect width="32" height="32" fill="white"/>
</clipPath>
</defs>
</svg>
