<svg width="28" height="27" viewBox="0 0 28 27" fill="none" xmlns="http://www.w3.org/2000/svg">
<path d="M19.3333 0.333496C20.0693 0.333496 20.6666 0.930829 20.6666 1.66683V5.66683H26C26.736 5.66683 27.3333 6.26416 27.3333 7.00016V25.6668C27.3333 26.4028 26.736 27.0002 26 27.0002H1.99996C1.26396 27.0002 0.666626 26.4028 0.666626 25.6668V7.00016C0.666626 6.26416 1.26396 5.66683 1.99996 5.66683H7.33329V1.66683C7.33329 0.930829 7.93063 0.333496 8.66663 0.333496H19.3333ZM15.3333 11.0002H12.6666V15.0002H8.66663V17.6668H12.6653L12.6666 21.6668H15.3333L15.332 17.6668H19.3333V15.0002H15.3333V11.0002ZM18 3.00016H9.99996V5.66683H18V3.00016Z" fill="#1FC1FF"/>
</svg>
