<svg width="32" height="32" viewBox="0 0 32 32" fill="none" xmlns="http://www.w3.org/2000/svg">
<path d="M22.6667 10.6665H26.6667L30.6667 16.0745V23.9998H27.9534C27.7949 25.1122 27.2403 26.1301 26.3916 26.8664C25.5429 27.6028 24.457 28.0082 23.3334 28.0082C22.2097 28.0082 21.1238 27.6028 20.2751 26.8664C19.4264 26.1301 18.8719 25.1122 18.7134 23.9998H11.9534C11.7949 25.1122 11.2403 26.1301 10.3916 26.8664C9.5429 27.6028 8.457 28.0082 7.33337 28.0082C6.20975 28.0082 5.12385 27.6028 4.27514 26.8664C3.42642 26.1301 2.87188 25.1122 2.71337 23.9998H1.33337V7.99984C1.33337 7.64622 1.47385 7.30708 1.7239 7.05703C1.97395 6.80698 2.31309 6.6665 2.66671 6.6665H21.3334C21.687 6.6665 22.0261 6.80698 22.2762 7.05703C22.5262 7.30708 22.6667 7.64622 22.6667 7.99984V10.6665ZM22.6667 13.3332V17.3332H28V16.9532L25.3227 13.3332H22.6667Z" fill="#1FC1FF"/>
</svg>
