<svg width="32" height="32" viewBox="0 0 32 32" fill="none" xmlns="http://www.w3.org/2000/svg">
<path d="M13.1026 29.0172L19.0799 18.6665L23.7893 26.8225C21.5221 28.4589 18.796 29.3376 15.9999 29.3332C15.0053 29.3332 14.0359 29.2239 13.1026 29.0172ZM10.5199 28.1599C8.80688 27.3853 7.2764 26.2583 6.02841 24.8522C4.78043 23.4462 3.84298 21.7927 3.27727 19.9998H15.2306L10.5199 28.1585V28.1599ZM2.73327 17.3332C2.54247 15.4629 2.75079 13.5733 3.34449 11.7895C3.93818 10.0057 4.90371 8.36814 6.17727 6.98518L12.1493 17.3332H2.73327ZM8.21194 5.17718C10.4788 3.54103 13.2043 2.66237 15.9999 2.66652C16.9946 2.66652 17.9639 2.77585 18.8973 2.98252L12.9199 13.3332L8.21194 5.17718ZM21.4799 3.83985C23.193 4.61436 24.7235 5.74143 25.9715 7.14748C27.2195 8.55354 28.1569 10.207 28.7226 11.9999H16.7693L21.4799 3.84119V3.83985ZM29.2666 14.6665C29.4574 16.5368 29.2491 18.4264 28.6554 20.2102C28.0617 21.994 27.0962 23.6316 25.8226 25.0145L19.8506 14.6665H29.2693H29.2666Z" fill="#1FC1FF"/>
</svg>
