<svg width="32" height="32" viewBox="0 0 32 32" fill="none" xmlns="http://www.w3.org/2000/svg">
<path d="M24 10.6668H26.6667C27.0203 10.6668 27.3594 10.8073 27.6095 11.0574C27.8595 11.3074 28 11.6465 28 12.0002V28.0002C28 28.3538 27.8595 28.6929 27.6095 28.943C27.3594 29.193 27.0203 29.3335 26.6667 29.3335H5.33333C4.97971 29.3335 4.64057 29.193 4.39052 28.943C4.14048 28.6929 4 28.3538 4 28.0002V12.0002C4 11.6465 4.14048 11.3074 4.39052 11.0574C4.64057 10.8073 4.97971 10.6668 5.33333 10.6668H8V9.3335C8 7.21176 8.84285 5.17693 10.3431 3.67664C11.8434 2.17635 13.8783 1.3335 16 1.3335C18.1217 1.3335 20.1566 2.17635 21.6569 3.67664C23.1571 5.17693 24 7.21176 24 9.3335V10.6668ZM21.3333 10.6668V9.3335C21.3333 7.91901 20.7714 6.56245 19.7712 5.56226C18.771 4.56207 17.4145 4.00016 16 4.00016C14.5855 4.00016 13.229 4.56207 12.2288 5.56226C11.2286 6.56245 10.6667 7.91901 10.6667 9.3335V10.6668H21.3333ZM14.6667 18.6668V21.3335H17.3333V18.6668H14.6667ZM9.33333 18.6668V21.3335H12V18.6668H9.33333ZM20 18.6668V21.3335H22.6667V18.6668H20Z" fill="#1FC1FF"/>
</svg>
