<svg width="32" height="32" viewBox="0 0 32 32" fill="none" xmlns="http://www.w3.org/2000/svg">
<g clip-path="url(#clip0_2643_918)">
<path d="M16 29.3332C8.63596 29.3332 2.66663 23.3638 2.66663 15.9998C2.66663 8.63584 8.63596 2.6665 16 2.6665C23.364 2.6665 29.3333 8.63584 29.3333 15.9998C29.3333 23.3638 23.364 29.3332 16 29.3332ZM14.6666 21.3332V23.9998H17.3333V21.3332H18.6666C19.2857 21.3332 19.8925 21.1608 20.4191 20.8353C20.9457 20.5099 21.3712 20.0442 21.6481 19.4906C21.9249 18.9369 22.0421 18.317 21.9865 17.7005C21.9309 17.0839 21.7047 16.4951 21.3333 15.9998C21.7047 15.5046 21.9309 14.9157 21.9865 14.2992C22.0421 13.6827 21.9249 13.0628 21.6481 12.5091C21.3712 11.9554 20.9457 11.4898 20.4191 11.1643C19.8925 10.8389 19.2857 10.6665 18.6666 10.6665H17.3333V7.99984H14.6666V10.6665H10.6666V21.3332H14.6666ZM13.3333 17.3332H18.6666C18.8434 17.3332 19.013 17.4034 19.138 17.5284C19.2631 17.6535 19.3333 17.823 19.3333 17.9998C19.3333 18.1766 19.2631 18.3462 19.138 18.4712C19.013 18.5963 18.8434 18.6665 18.6666 18.6665H13.3333V17.3332ZM13.3333 13.3332H18.6666C18.8434 13.3332 19.013 13.4034 19.138 13.5284C19.2631 13.6535 19.3333 13.823 19.3333 13.9998C19.3333 14.1766 19.2631 14.3462 19.138 14.4712C19.013 14.5963 18.8434 14.6665 18.6666 14.6665H13.3333V13.3332Z" fill="#1FC1FF"/>
</g>
<defs>
<clipPath id="clip0_2643_918">
<rect width="32" height="32" fill="white"/>
</clipPath>
</defs>
</svg>
