<svg width="32" height="32" viewBox="0 0 32 32" fill="none" xmlns="http://www.w3.org/2000/svg">
<path d="M14.6666 9.33333V5.33333C14.6666 4.97971 14.8071 4.64057 15.0572 4.39052C15.3072 4.14048 15.6463 4 16 4H28C28.3536 4 28.6927 4.14048 28.9428 4.39052C29.1928 4.64057 29.3333 4.97971 29.3333 5.33333V26.6667C29.3333 27.0203 29.1928 27.3594 28.9428 27.6095C28.6927 27.8595 28.3536 28 28 28H3.99996C3.64634 28 3.3072 27.8595 3.05715 27.6095C2.8071 27.3594 2.66663 27.0203 2.66663 26.6667V10.6667C2.66663 10.313 2.8071 9.97391 3.05715 9.72386C3.3072 9.47381 3.64634 9.33333 3.99996 9.33333H14.6666ZM6.66663 21.3333V24H13.3333V21.3333H6.66663ZM18.6666 21.3333V24H25.3333V21.3333H18.6666ZM18.6666 17.3333V20H25.3333V17.3333H18.6666ZM18.6666 13.3333V16H25.3333V13.3333H18.6666ZM6.66663 17.3333V20H13.3333V17.3333H6.66663Z" fill="#1FC1FF"/>
</svg>
