<svg width="32" height="32" viewBox="0 0 32 32" fill="none" xmlns="http://www.w3.org/2000/svg">
<path d="M30.4 17.6C30.2947 19.5166 29.7312 21.3799 28.7568 23.0336C27.7824 24.6873 26.4255 26.0832 24.8 27.104L16 32L7.19998 27.104C5.57449 26.0832 4.21759 24.6873 3.24318 23.0336C2.26876 21.3799 1.70526 19.5166 1.59998 17.6V4.8C7.00798 4.8 12 3.008 16 0C20 3.024 24.992 4.8 30.4 4.8V17.6ZM16 19.328L20.672 22.592L19.024 17.136L23.568 13.696L17.872 13.568L16 8.192L14.128 13.568L8.43198 13.696L12.96 17.12L11.312 22.56L16 19.344V19.328Z" fill="#1FC1FF"/>
</svg>
