<svg width="32" height="32" viewBox="0 0 32 32" fill="none" xmlns="http://www.w3.org/2000/svg">
<path d="M4.00006 23.0002V28.0002H9.00006L23.7467 13.2402L18.7467 8.24018L4.00006 23.0002ZM30.1467 24.4802L24.4801 30.1469L17.5467 23.2135L19.9067 20.8535L21.2401 22.1868L24.5334 18.8802L26.4267 20.7735L24.4801 22.6668L25.8934 24.0002L27.7867 22.1335L30.1467 24.4802ZM8.81339 14.4402L1.85339 7.52018L7.52006 1.85352L9.86673 4.21352L6.57339 7.52018L8.00006 8.93352L11.2801 5.62685L13.1734 7.52018L11.2801 9.40018L12.6134 10.7335L8.81339 14.4402ZM27.6134 9.33352C28.1334 8.81352 28.1334 8.00018 27.6134 7.45352L24.4934 4.38685C24.0001 3.86685 23.1334 3.86685 22.6134 4.38685L20.1601 6.82685L25.1601 11.8268L27.6134 9.33352Z" fill="#1FC1FF"/>
</svg>
