<svg width="32" height="32" viewBox="0 0 32 32" fill="none" xmlns="http://www.w3.org/2000/svg">
<path d="M15.5989 5.70074C18.9842 4.9471 22.5088 6.80501 23.8479 10.0328C23.9687 10.3257 24.1147 10.4488 24.4407 10.442C27.7827 10.3732 31.1317 12.9144 31.7317 16.6255C31.7431 16.6919 31.7662 16.7558 31.7844 16.8199V18.7769C31.7639 18.8546 31.7408 18.9323 31.7248 19.0123C31.2595 21.4383 29.9203 23.2118 27.7532 24.3687C27.0278 24.7558 26.2426 24.9478 25.4533 25.1334H4.10569C2.62521 24.7989 1.45032 24.0359 0.663308 22.7027C-1.17514 19.5963 1.02421 15.4795 4.61253 15.3306C4.85186 15.3214 4.99789 15.2779 5.08225 15.0054C5.81914 12.575 7.41612 11.059 9.90257 10.5298C10.1534 10.4771 10.2173 10.3072 10.2971 10.1216C11.3259 7.75524 13.0849 6.2597 15.5989 5.70074ZM16.5959 11.9449C16.0855 11.982 15.6128 12.098 15.1848 12.2818C14.6231 12.5282 14.1768 12.8701 13.8469 13.314C13.517 13.7619 13.3547 14.2849 13.3547 14.8873C13.3548 15.6166 13.602 16.2012 14.0901 16.6509C14.5827 17.0949 15.2491 17.4377 16.094 17.6763L16.593 17.815V21.2769C16.339 21.2515 16.1002 21.1959 15.8752 21.1119C15.5345 20.9867 15.2557 20.7995 15.0373 20.5474C14.8166 20.2971 14.6923 19.9815 14.6633 19.6041L13.0666 19.5884C13.1001 20.2182 13.2812 20.7607 13.6067 21.2222C13.9321 21.6835 14.3821 22.0413 14.9592 22.2974C15.4295 22.5047 15.9736 22.6304 16.591 22.6734V23.8189L17.4358 23.8267V22.6773C18.0777 22.648 18.6352 22.5262 19.1145 22.313C19.6939 22.0569 20.1401 21.6993 20.4455 21.2437C20.7532 20.786 20.9074 20.2631 20.9074 19.6705C20.9074 19.2033 20.8153 18.7968 20.6282 18.4605H20.635C20.4455 18.1241 20.2025 17.8378 19.9016 17.605C19.5962 17.3743 19.2703 17.1892 18.9182 17.0445C18.5638 16.8998 18.2183 16.7858 17.884 16.6978L17.4426 16.5806V13.3121C17.8772 13.3629 18.2473 13.4944 18.5549 13.7056C18.9539 13.9775 19.1818 14.3534 19.2375 14.8384L20.7707 14.8541C20.7574 14.2927 20.5902 13.7931 20.2737 13.357C19.9571 12.921 19.5269 12.577 18.9787 12.3209C18.5262 12.1077 18.0135 11.982 17.4407 11.9429V10.7681L16.5959 10.7603V11.9449ZM17.4426 18.0552C17.7792 18.1491 18.0851 18.2592 18.3615 18.3785C18.6577 18.5133 18.8984 18.6772 19.0744 18.8746C19.2527 19.074 19.34 19.3284 19.3401 19.6392C19.3401 19.9776 19.2373 20.2756 19.0344 20.5259C18.8361 20.778 18.555 20.9711 18.2053 21.108C17.9735 21.1979 17.719 21.2593 17.4426 21.2847V18.0552ZM16.5959 16.3511C16.4695 16.3141 16.3432 16.2689 16.2102 16.2242C15.9896 16.1401 15.7778 16.0387 15.5862 15.9136C15.39 15.7924 15.2378 15.6395 15.1174 15.4595C14.9972 15.2797 14.9397 15.0642 14.9397 14.816C14.9398 14.5189 15.0262 14.2547 15.1955 14.024C15.3694 13.7952 15.6176 13.612 15.9319 13.483C16.1302 13.4009 16.3531 13.3414 16.5959 13.3121V16.3511Z" fill="#1FC1FF"/>
</svg>
