<svg width="32" height="32" viewBox="0 0 32 32" fill="none" xmlns="http://www.w3.org/2000/svg">
<path d="M15.5989 5.70074C18.9842 4.9471 22.5088 6.80501 23.8479 10.0328C23.9687 10.3257 24.1147 10.4488 24.4407 10.442C27.7827 10.3732 31.1317 12.9144 31.7317 16.6255C31.7431 16.6919 31.7662 16.7558 31.7844 16.8199V18.7769C31.7639 18.8546 31.7408 18.9323 31.7248 19.0123C31.2595 21.4383 29.9203 23.2118 27.7532 24.3687C27.0278 24.7558 26.2426 24.9478 25.4533 25.1334H4.10569C2.62521 24.7989 1.45032 24.0359 0.663308 22.7027C-1.17514 19.5963 1.02421 15.4795 4.61253 15.3306C4.85186 15.3214 4.99789 15.2779 5.08225 15.0054C5.81914 12.575 7.41612 11.059 9.90257 10.5298C10.1534 10.4771 10.2173 10.3072 10.2971 10.1216C11.3259 7.75524 13.0849 6.2597 15.5989 5.70074ZM17.6233 13.0494L15.2268 21.9703H16.8733L19.2668 13.0494H17.6233ZM10.3772 17.5084L14.2629 20.8716V19.0504L12.4817 17.5084L14.2629 15.9693V14.148L10.3772 17.5084ZM20.2336 15.9693L22.011 17.5084L20.2336 19.0504V20.8716L24.1164 17.5084L20.2336 14.148V15.9693Z" fill="#1FC1FF"/>
</svg>
