<svg width="24" height="25" viewBox="0 0 24 25" fill="none" xmlns="http://www.w3.org/2000/svg">
<g clip-path="url(#clip0_2643_1662)">
<path fill-rule="evenodd" clip-rule="evenodd" d="M15.7073 12.0075C15.8948 12.195 16.0001 12.4493 16.0001 12.7145C16.0001 12.9797 15.8948 13.234 15.7073 13.4215L10.0503 19.0785C9.9581 19.174 9.84775 19.2502 9.72575 19.3026C9.60374 19.355 9.47252 19.3826 9.33974 19.3838C9.20696 19.3849 9.07529 19.3596 8.95239 19.3093C8.82949 19.259 8.71784 19.1848 8.62395 19.0909C8.53005 18.997 8.4558 18.8854 8.40552 18.7625C8.35524 18.6396 8.32994 18.5079 8.33109 18.3751C8.33225 18.2423 8.35983 18.1111 8.41224 17.9891C8.46465 17.8671 8.54083 17.7567 8.63634 17.6645L13.5863 12.7145L8.63634 7.7645C8.45418 7.5759 8.35339 7.3233 8.35567 7.0611C8.35795 6.7989 8.46312 6.54809 8.64852 6.36268C8.83393 6.17727 9.08474 6.0721 9.34694 6.06983C9.60914 6.06755 9.86174 6.16834 10.0503 6.3505L15.7073 12.0075Z" fill="#1FC1FF"/>
</g>
<defs>
<clipPath id="clip0_2643_1662">
<rect width="24" height="24" fill="white" transform="translate(0 24.7144) rotate(-90)"/>
</clipPath>
</defs>
</svg>
