<svg width="37" height="32" viewBox="0 0 37 32" fill="none" xmlns="http://www.w3.org/2000/svg">
<path fill-rule="evenodd" clip-rule="evenodd" d="M24.9719 31.6078C26.0405 31.2146 27.7082 30.3507 28.915 29.5655C30.3588 28.6259 32.3424 26.834 33.3303 25.5769C35.1047 23.3191 36.033 21.0227 36.5664 17.5707C36.9251 15.2495 36.9506 14.6602 36.9837 7.92284C37.0189 0.757471 37.051 1.20723 36.4645 0.639523C35.8986 0.0916118 36.2334 0.116238 29.3403 0.116237C22.6827 0.116236 22.9157 0.103087 22.3657 0.509263C22.2252 0.61294 22.0225 0.842402 21.9151 1.01911L21.72 1.3405L21.7004 7.44538L21.6808 13.5503L21.8369 13.9017C22.0203 14.3142 22.5235 14.774 22.9035 14.8762C23.0593 14.918 24.3576 14.9467 26.1101 14.9469L29.0549 14.9473L29.0549 15.3872C29.0549 16.3888 28.76 18.0886 28.3907 19.2148C27.8998 20.712 27.1508 21.9192 26.0658 22.9618C25.1806 23.8124 24.1556 24.4879 22.7147 25.1704C21.661 25.6694 21.503 25.7933 21.2135 26.3467C21.1368 26.4933 21.0857 26.7545 21.0832 27.0127C21.0796 27.3865 21.1277 27.5383 21.4836 28.2757C22.838 31.0818 22.9488 31.2598 23.5146 31.5392C23.9294 31.7442 24.5252 31.7721 24.9719 31.6078ZM3.60219 31.6591C4.00269 31.5875 5.88585 30.6954 6.90559 30.0942C9.99927 28.2702 12.4142 25.8265 13.8273 23.0899C14.8606 21.0889 15.3725 19.0676 15.733 15.5637C15.8288 14.6325 15.8562 13.2403 15.8821 7.99336C15.9179 0.749355 15.9503 1.20807 15.363 0.639521C14.7971 0.0916805 15.1314 0.116236 8.2425 0.116235C1.52782 0.116235 1.76319 0.102103 1.21715 0.537801C1.07392 0.652112 0.872512 0.909276 0.769534 1.10929L0.58237 1.47293L0.583956 7.528C0.585546 13.4684 0.588365 13.5891 0.732751 13.8979C0.901926 14.2598 1.15999 14.5417 1.52182 14.7598C1.76889 14.9088 1.84651 14.9132 4.88115 14.9473L7.98755 14.9823L7.96551 15.542C7.90849 16.9875 7.54803 18.7078 7.04738 19.9231C6.53263 21.1727 5.91613 22.0842 4.98059 22.9788C4.12915 23.793 3.25987 24.3732 1.89536 25.0378C0.587281 25.6749 0.221688 25.9685 0.0736165 26.5007C-0.101631 27.1307 -0.00934182 27.4481 0.853146 29.1838C1.33451 30.1524 1.76166 30.9151 1.92643 31.1001C2.34499 31.57 2.95751 31.7743 3.60219 31.6591Z" fill="#0C374A"/>
</svg>
